<svg width="102" height="103" viewBox="0 0 102 103" fill="none" xmlns="http://www.w3.org/2000/svg">
<path d="M101.074 20.5293L88.4693 33.1344H79.0338H73.8659L71.5621 35.4382L62.7994 44.2008L57.3395 49.6608L52.7226 54.2777C52.0319 54.9683 51.1272 55.3136 50.222 55.3136C49.2837 55.3136 48.3444 54.9422 47.6454 54.1997C46.3179 52.7899 46.457 50.5409 47.826 49.1714L57.0119 39.9855L57.7154 39.282L66.516 30.4814L68.8642 28.1332V23.0985V13.5297L73.2226 9.17134L81.4693 0.924663C81.5783 0.815641 81.6927 0.720432 81.8097 0.631636C81.8378 0.610424 81.8654 0.589705 81.894 0.569479C82.0109 0.486603 82.1303 0.41014 82.2526 0.346009C82.2625 0.340583 82.2729 0.33713 82.2832 0.331703C82.3992 0.272999 82.5171 0.223668 82.6364 0.18075C82.6665 0.169897 82.6961 0.159044 82.7262 0.149178C82.853 0.108233 82.9813 0.0737017 83.1105 0.0500228C83.1283 0.0465696 83.1465 0.045583 83.1643 0.0421298C83.2807 0.0228907 83.3971 0.0110513 83.514 0.00513154C83.5441 0.00365161 83.5737 0.00167837 83.6038 0.000691744C83.7341 -0.00177481 83.8638 0.00217168 83.9925 0.0154911C84.0138 0.0179576 84.035 0.0219041 84.0562 0.0243707C84.1677 0.0381834 84.2787 0.0584091 84.3877 0.0840612C84.4183 0.0914609 84.4494 0.0978739 84.4799 0.105767C84.6047 0.138819 84.7281 0.17779 84.8475 0.225148C84.8652 0.232054 84.882 0.240934 84.8993 0.24784C85.0043 0.291745 85.1064 0.341569 85.2061 0.396327C85.2347 0.412113 85.2633 0.427405 85.2909 0.443685C85.4024 0.509295 85.511 0.579838 85.6141 0.658275C85.6264 0.667648 85.6377 0.678501 85.6496 0.687873C85.7413 0.76039 85.8287 0.838333 85.9125 0.921209C85.9362 0.944395 85.9599 0.967581 85.9826 0.991753C86.0728 1.08696 86.1592 1.18612 86.2376 1.29317C86.244 1.30205 86.2494 1.31191 86.2564 1.32128C86.3279 1.42143 86.392 1.52699 86.4517 1.63651C86.468 1.6666 86.4843 1.69669 86.4996 1.72777C86.5602 1.84913 86.6165 1.97443 86.6614 2.10663C86.6633 2.11305 86.6648 2.11946 86.6668 2.12587C86.7092 2.25265 86.7413 2.38486 86.7674 2.52052C86.7743 2.55653 86.7807 2.59304 86.7867 2.62954C86.8094 2.77458 86.8266 2.92257 86.8301 3.07698L87.0831 14.9145L87.3362 14.9199L98.9201 15.1675C99.5452 15.1808 100.093 15.3683 100.551 15.6638C100.726 15.7768 100.892 15.9001 101.039 16.0432C101.251 16.2503 101.431 16.4857 101.576 16.7407C101.721 16.9957 101.832 17.27 101.903 17.5547C102.154 18.5521 101.93 19.6739 101.074 20.5293ZM49.5979 24.7728C34.1593 24.7728 21.5986 37.3335 21.5986 52.7721C21.5986 68.2108 34.1593 80.7714 49.5979 80.7714C65.0366 80.7714 77.5973 68.2108 77.5973 52.7721C77.5973 48.9637 76.8262 45.335 75.4415 42.0239L65.3232 52.1421C65.3316 52.3523 65.3464 52.5605 65.3464 52.7726C65.3464 61.4568 58.2817 68.5215 49.5975 68.5215C40.9132 68.5215 33.8485 61.4563 33.8485 52.7726C33.8485 44.1189 40.8649 37.0755 49.5067 37.0261L59.8223 26.7105C56.6538 25.4614 53.205 24.7728 49.5979 24.7728ZM93.7014 38.3669C92.3137 39.7546 90.4317 40.5341 88.4689 40.5341H82.8076C84.2195 44.3498 84.9969 48.4709 84.9969 52.7716C84.9969 72.2909 69.1173 88.1706 49.5979 88.1706C30.0786 88.1706 14.199 72.2909 14.199 52.7716C14.199 33.2523 30.0786 17.3726 49.5979 17.3726C53.7605 17.3726 57.7534 18.1022 61.4645 19.4302V13.5297C61.4645 11.5673 62.244 9.68487 63.6317 8.29719L65.9724 5.95643C60.8435 4.15733 55.3337 3.17416 49.5975 3.17416C22.2493 3.17465 0 25.4239 0 52.7721C0 80.1203 22.2498 102.37 49.5979 102.37C76.9461 102.37 99.1959 80.1203 99.1959 52.7721C99.1959 46.8317 98.1422 41.1339 96.2178 35.8511L93.7014 38.3669Z" fill="black"/>
</svg>
