<svg width="641" height="476" viewBox="0 0 641 476" fill="none" xmlns="http://www.w3.org/2000/svg">
<g filter="url(#filter0_d)">
<path d="M89.5814 156.323C93.0132 158.821 96.5958 161.079 100.329 163.097C108.378 167.443 117.03 170.828 125.585 174.112C130.058 175.809 142.997 177.313 147.527 175.586C139.34 167.81 130.204 158.245 123.263 149.087C116.56 140.278 108.005 136.994 104.019 126.649C103.503 125.313 103.035 124.027 102.519 122.691C100.695 117.695 98.8203 112.746 95.7112 108.496C91.7399 103.143 85.0571 99.0331 78.6245 100.46C73.9604 101.449 70.2286 105.206 68.3933 109.654C66.6076 114.055 66.5244 119.045 67.3744 123.816C69.7467 137.05 78.7553 148.373 89.5814 156.323Z" fill="#63C5B5"/>
<path d="M78.606 116.266C80.8129 130.62 89.8345 141.161 99.4349 152.207C108.937 163.251 121.666 171.502 135.586 175.824" stroke="white" stroke-miterlimit="10" stroke-linecap="round" stroke-linejoin="round"/>
</g>
<g filter="url(#filter1_d)">
<path d="M94.7516 401.758C85.4466 397.011 76.0295 392.198 68.2301 385.162C61.4425 379.103 56.188 371.604 49.9107 364.938C45.8609 360.65 41.4106 356.655 38.4065 351.623C35.4025 346.59 34.0872 339.983 36.9378 334.78C39.8318 329.376 46.7226 326.941 52.74 327.775C58.8466 328.586 64.2329 332.151 68.729 336.324C74.7085 341.83 79.5119 348.683 82.6653 356.151C85.5462 362.927 87.134 370.226 90.0148 377.002C92.6919 383.355 96.5498 389.119 100.941 394.366C104.838 399.17 113.784 407.338 116.923 412.526C112.967 416.015 98.6979 403.79 94.7516 401.758Z" fill="#63C5B5"/>
<path d="M50.397 339.033C58.4285 340.302 63.5069 348.226 66.9944 355.513C70.9353 363.825 73.0295 373.467 79.1078 380.469C90.5661 393.606 104.872 408.2 113.497 411.409" stroke="white" stroke-miterlimit="10" stroke-linecap="round" stroke-linejoin="round"/>
</g>
<g filter="url(#filter2_d)">
<path d="M52.1513 390.717C45.262 389.821 36.5306 391.016 33.9115 397.491C31.6881 402.914 35.1227 408.882 38.7721 413.463C41.8582 417.333 45.4799 421.065 50.2935 422.398C53.562 423.272 57.002 422.96 60.3068 422.492C69.5966 421.249 78.8382 419.448 87.9423 417.111C98.4745 414.408 112.338 415.416 122.78 419.776C106.24 401.665 75.4355 393.588 52.1513 390.717Z" fill="#539C90"/>
<path d="M44.543 407.033C52.6677 405.328 60.8381 403.802 69.1098 404.153C77.56 404.457 111.369 410.526 117.634 415.292" stroke="white" stroke-miterlimit="10" stroke-linecap="round" stroke-linejoin="round"/>
</g>
<g filter="url(#filter3_d)">
<path d="M112.078 342.796C103.6 329.526 89.1328 320.311 73.6518 318.284C62.1331 316.718 50.338 318.929 39.0037 316.533C27.1164 314.045 16.335 306.397 10.161 295.892C3.89486 285.387 2.32832 272.302 5.82999 260.691C8.50232 251.845 14.5842 243.459 23.4305 240.602C28.2222 239.036 33.4747 239.312 38.3586 240.418C42.8739 241.524 47.1128 243.367 50.9831 245.855C59.8294 251.476 67.017 260.138 72.3617 269.261C77.2456 277.646 89.3171 290.547 97.5184 299.025C102.31 304.001 105.812 307.318 105.812 307.318C111.433 314.23 108.761 334.41 112.078 342.796Z" fill="#63C5B5"/>
<path d="M20.7583 266.033C48.403 278.473 78.4437 294.876 98.0714 317.913" stroke="white" stroke-miterlimit="10" stroke-linecap="round" stroke-linejoin="round"/>
</g>
<g filter="url(#filter4_d)">
<path opacity="0.2" d="M103.893 314.876C103.893 314.876 62.7025 281.518 54.0405 245.672C62.8868 251.293 70.0745 259.955 75.4191 269.078C80.303 277.463 92.3746 290.364 100.576 298.842C101.589 303.449 102.695 308.702 103.893 314.876Z" fill="#5275A0"/>
<path opacity="0.2" d="M105.737 182.087C101.959 193.606 96.7064 204.756 91.4539 215.722C88.6895 221.435 77.5394 234.705 71.5497 237.193C72.2869 222.264 72.2869 204.756 70.5361 189.644C68.8774 175.084 74.1299 164.118 68.4167 150.572C67.6795 148.822 66.9423 147.163 66.2051 145.412C66.758 145.596 67.2187 145.781 67.7716 145.965C77.1708 150.02 81.5018 159.88 82.239 169.555C82.8841 177.48 81.5018 185.497 80.396 193.422C79.9353 197.108 79.4745 200.794 80.3039 204.388V204.48C81.3175 208.719 87.4915 208.534 88.3209 204.203L90.8089 190.934C91.5461 186.971 92.3754 182.825 95.6006 180.06C96.8907 178.954 98.5494 178.309 100.208 178.309C102.973 178.494 104.631 180.06 105.737 182.087Z" fill="#5275A0"/>
<path d="M103.894 306.487C97.3517 272.576 93.9422 267.323 96.7988 258.846C100.485 247.972 98.3653 237.099 101.867 226.225C105.276 215.351 107.672 203.556 104.908 192.498C103.986 188.997 102.236 185.126 97.9967 185.034C96.338 184.942 94.6794 185.679 93.3893 186.785C90.164 189.55 89.3347 193.696 88.5975 197.659L86.1095 210.928C85.2801 215.259 79.1061 215.443 78.0925 211.205V211.112C77.2632 207.519 77.7239 203.833 78.1847 200.147C79.2904 192.222 80.6727 184.297 80.0276 176.28C79.1983 166.604 74.8673 156.744 65.4681 152.69C62.1507 151.308 58.3726 150.939 54.8709 151.861C45.1031 154.349 42.5229 163.932 43.9973 172.133C45.011 177.847 47.6833 183.191 50.1713 188.444C56.161 201.437 51.7379 213.324 52.5672 227.515C54.7788 266.771 103.894 306.487 103.894 306.487Z" fill="#539C90"/>
<path d="M60.1235 161.998C64.9153 186.141 69.7992 210.468 79.1984 233.229C81.9629 239.864 83.253 248.71 99.1948 266.864" stroke="white" stroke-miterlimit="10" stroke-linecap="round" stroke-linejoin="round"/>
</g>
<g filter="url(#filter5_d)">
<path d="M245.509 168.265C240.533 162.552 235.926 156.746 231.042 151.125C227.909 147.532 224.684 143.938 221.09 140.62C219.339 138.962 217.496 137.303 215.653 135.736C204.319 126.429 191.786 118.689 178.333 112.883C170.223 109.382 161.654 106.525 154.742 100.996C147.831 95.4673 142.855 86.3445 145.159 77.8668C146.818 71.6928 152.07 66.901 158.06 64.6895C164.049 62.4779 170.684 62.6622 176.95 64.0444C194.367 67.8225 208.834 80.2627 218.786 95.0987C218.97 95.3751 219.155 95.6516 219.339 95.928C226.619 106.986 231.687 119.242 236.018 131.774C237.4 135.829 238.782 139.883 240.073 143.846C242.008 149.743 248.089 162.275 245.509 168.265Z" fill="#539C90"/>
<path d="M165.985 78.5137C184.968 82.1075 198.421 94.7319 212.428 107.909C226.527 121.179 236.663 138.411 241.455 157.117" stroke="white" stroke-miterlimit="10" stroke-linecap="round" stroke-linejoin="round"/>
</g>
<g filter="url(#filter6_d)">
<path opacity="0.2" d="M231.041 151.125C230.857 153.061 230.949 155.088 231.318 157.023C226.526 155.917 223.301 148.545 221.089 140.528C218.97 132.696 217.864 124.31 217.588 120.44C216.942 112.238 217.495 103.945 219.154 95.8359C226.434 106.894 231.502 119.15 235.833 131.682C234.359 136.197 233.069 140.713 231.963 145.32C231.594 147.255 231.226 149.19 231.041 151.125Z" fill="#5275A0"/>
<path d="M263.938 82.5654C262.372 89.6608 258.041 95.8348 254.262 102.101C252.235 105.418 250.392 108.736 248.641 112.145C243.112 123.111 238.781 134.722 236.017 146.701C235.095 150.664 234.543 154.442 235.28 158.404C225.88 156.285 222.195 129.654 221.549 121.821C220.444 107.63 222.84 92.9782 228.737 79.9852C231.317 74.2719 234.635 68.6508 239.703 64.9649C244.771 61.2789 251.959 59.9888 257.303 63.214C260.529 65.1492 262.648 68.3744 263.662 71.9682C264.675 75.3777 264.767 79.1558 263.938 82.5654Z" fill="#63C5B5"/>
<path d="M231.779 150.572C225.973 135.92 229.475 105.05 238.782 85.6068C241.638 79.7092 245.601 74.2724 251.222 70.9551" stroke="white" stroke-miterlimit="10" stroke-linecap="round" stroke-linejoin="round"/>
</g>
<g filter="url(#filter7_d)">
<path d="M522.511 249.449C530.343 236.641 526.289 220.146 529.053 205.31C531.173 193.976 537.439 183.471 546.469 176.283C552.183 171.768 560.108 168.542 566.558 171.952C567.94 172.689 569.599 173.703 570.889 172.874C571.718 172.413 571.995 171.399 572.179 170.478C573.838 162.461 569.967 153.799 573.101 146.242C574.759 142.188 578.261 139.147 581.947 136.843C589.042 132.328 597.428 129.656 605.814 129.379C608.025 129.287 610.421 129.379 612.356 130.393C615.95 132.236 617.609 136.751 617.148 140.713C616.687 144.768 614.476 148.362 611.988 151.587C603.786 162.276 591.807 171.491 590.24 184.945C590.056 186.604 590.056 188.447 590.793 189.921C591.53 191.395 592.913 192.409 593.742 193.884C596.23 198.491 591.438 203.743 586.646 206.047C582.315 208.167 577.616 209.457 572.824 209.917C569.507 210.194 565.821 210.286 563.517 212.774C559.37 217.289 564.162 224.477 563.241 230.559C562.688 234.337 559.923 237.378 557.159 240.05C552.091 244.934 546.469 249.357 540.48 253.228C535.596 256.361 530.528 259.033 526.197 262.903C521.866 266.773 518.456 271.934 518.18 277.647" fill="#63C5B5"/>
<path d="M532.739 237.008C534.029 230.834 536.886 225.029 539.743 219.408C544.258 210.561 548.773 201.531 555.5 194.343C560.66 188.814 566.927 184.483 572.087 179.046C575.773 175.176 578.998 170.753 581.486 166.053C582.868 163.473 583.974 160.801 585.817 158.497C587.937 155.825 590.978 153.89 593.558 151.586C597.059 148.453 599.824 144.583 601.759 140.344" stroke="white" stroke-miterlimit="10" stroke-linecap="round" stroke-linejoin="round"/>
</g>
<g filter="url(#filter8_d)">
<path d="M634.472 258.387C632.721 265.114 630.141 271.841 625.625 277.186C622.492 280.872 618.714 283.82 614.475 286.216C612.264 287.414 610.052 288.52 607.748 289.534C598.81 293.312 589.226 295.431 579.551 295.8C565.452 296.353 550.985 293.22 537.439 297.274C531.265 299.117 525.551 302.435 520.852 306.858C517.903 309.622 515.415 312.755 513.388 316.257L515.231 304.554C518.64 292.022 522.142 279.213 529.053 268.155C533.568 260.967 539.374 254.793 545.548 249.08C555.5 239.957 566.466 231.848 578.537 225.951C588.305 221.159 599.271 217.842 610.052 219.132C620.834 220.422 631.523 227.241 634.932 237.654C637.144 244.288 636.223 251.568 634.472 258.387Z" fill="#539C90"/>
<path d="M524.446 295.613C534.767 280.316 550.34 268.521 567.848 262.716C578.814 259.03 590.332 257.648 601.39 254.515C612.448 251.289 623.506 245.945 629.957 236.361" stroke="white" stroke-miterlimit="10" stroke-linecap="round" stroke-linejoin="round"/>
</g>
<g filter="url(#filter9_d)">
<path d="M531.265 401.647C531.91 385.89 540.019 371.422 549.879 359.166C558.08 348.938 568.032 339.631 580.288 334.931C584.158 333.457 588.397 332.535 592.359 333.457C596.322 334.47 600.008 337.88 600.008 341.935C600.1 345.436 597.704 348.385 595.308 350.873C587.199 358.982 576.786 364.143 567.018 370.04C550.247 380.176 534.306 393.722 527.579 412.152" fill="#63C5B5"/>
<path d="M537.438 387.826C547.667 364.973 574.298 344.424 591.806 341.936" stroke="white" stroke-miterlimit="10" stroke-linecap="round" stroke-linejoin="round"/>
</g>
<path d="M524.813 402.539C524.629 399.867 533.291 393.048 535.226 391.297C545.916 381.529 558.724 374.434 572.178 370.195C577.615 368.444 583.42 367.246 588.857 368.536C594.294 369.826 599.27 374.341 599.823 380.239C600.376 385.952 596.505 391.481 591.622 394.246C586.738 397.01 581.024 397.379 575.588 397.102C567.202 396.642 558.909 394.522 550.431 394.614C542.045 394.614 530.158 395.536 524.813 402.539Z" fill="#539C90"/>
<path d="M533.567 394.522C550.799 385.122 576.97 379.04 595.86 381.344" stroke="white" stroke-miterlimit="10" stroke-linecap="round" stroke-linejoin="round"/>
<g filter="url(#filter10_d)">
<path d="M377.684 144.134C390.514 139.519 403.803 135.919 415.442 128.811C418.924 126.688 422.407 124.196 424.881 120.872C427.356 117.549 428.914 113.396 428.364 109.242C427.814 105.088 425.156 101.026 426.073 96.9648C426.622 94.2879 428.639 92.1648 430.197 89.8571C433.862 84.4109 434.962 77.2109 433.129 70.934C431.113 64.1032 426.073 58.6571 423.14 52.1956C420.757 46.934 419.932 40.934 420.757 35.2109C410.035 35.3956 400.137 41.3032 389.598 43.2417C381.533 44.7186 373.102 43.8879 365.037 45.8263C350.373 49.2417 338.46 62.1648 336.168 77.1186C329.387 75.9186 322.055 78.4109 317.381 83.4879C312.341 88.8417 309.591 96.5033 310.049 103.888C313.349 157.334 343.775 185.211 343.775 185.211C343.775 185.211 372.827 145.888 377.684 144.134Z" fill="#63C5B5"/>
</g>
<path d="M348.809 143.385C347.426 130.208 352.034 117.215 357.378 105.051C362.539 93.256 368.436 81.6453 376.361 71.5089C384.286 61.3724 394.422 52.6183 406.31 47.7344" stroke="white" stroke-miterlimit="10" stroke-linecap="round" stroke-linejoin="round"/>
<path d="M360.327 55.8438C358.945 67.5467 359.958 81.7377 362.999 93.1642" stroke="white" stroke-miterlimit="10" stroke-linecap="round" stroke-linejoin="round"/>
<path d="M365.12 88.9252C378.481 80.3553 399.123 75.1028 415.064 76.0243" stroke="white" stroke-miterlimit="10" stroke-linecap="round" stroke-linejoin="round"/>
<path d="M332.406 91.1348C348.532 97.9538 349.177 121.636 349.638 128.363" stroke="white" stroke-miterlimit="10" stroke-linecap="round" stroke-linejoin="round"/>
<path d="M353.97 113.253C366.318 104.407 384.195 101.734 397.28 105.052" stroke="white" stroke-miterlimit="10" stroke-linecap="round" stroke-linejoin="round"/>
<path d="M387.696 49.7598C384.01 54.3672 383.088 59.804 383.457 63.5821" stroke="white" stroke-miterlimit="10" stroke-linecap="round" stroke-linejoin="round"/>
<path d="M386.958 60.1745C392.672 57.2258 400.228 56.5807 408.429 58.608" stroke="white" stroke-miterlimit="10" stroke-linecap="round" stroke-linejoin="round"/>
<g filter="url(#filter11_d)">
<path d="M76.2156 63.6572C77.5097 63.5763 86.6494 56.863 90.1274 54.5983C91.098 53.9513 92.1494 53.3042 92.7965 52.3336C93.4436 51.363 93.7671 50.0689 93.2818 49.0174C92.6347 47.7233 91.6641 46.3483 88.995 46.4292C84.4656 46.4292 82.9288 47.8851 80.6641 50.2307C73.4656 57.7527 76.2156 63.6572 76.2156 63.6572Z" fill="#63C5B5"/>
<path d="M116.899 90.8335C120.862 92.6129 125.068 94.3924 129.355 93.8262C131.054 93.5835 132.833 92.8556 133.399 91.2379C133.884 89.8629 133.237 88.3262 132.105 87.3556C131.054 86.385 129.598 85.9806 128.223 85.5762C122.965 84.282 115.605 85.01 110.348 86.4659C110.429 86.5467 114.554 89.7012 116.899 90.8335Z" fill="#63C5B5"/>
<path d="M142.945 32.4333C141.165 31.3009 139.224 29.845 139.224 27.7421C139.224 25.6391 141.408 24.0215 143.511 24.0215C145.614 24.0215 147.555 25.1538 149.092 26.5288C155.724 32.3524 154.915 38.9847 154.915 38.9847C154.915 38.9847 144.886 33.6465 142.945 32.4333Z" fill="#63C5B5"/>
<path d="M148.202 14.6403C146.665 13.9933 145.047 13.1844 144.158 11.7285C143.753 11.0006 143.43 10.1918 143.753 9.38296C144.238 8.08884 145.047 6.95648 148.283 7.52266C158.636 9.38296 160.819 16.5006 160.819 16.5006C160.819 16.5006 150.952 15.7727 148.202 14.6403Z" fill="#63C5B5"/>
<path d="M178.452 30.2501C182.577 29.9265 186.863 27.8236 189.452 24.5883C190.422 23.3751 191.312 22.0001 191.635 20.4633C191.959 18.9265 191.635 17.1471 190.422 16.1765C188.966 14.9633 186.702 15.125 185.084 16.1765C183.466 17.228 182.496 18.9265 181.606 20.7059C180.555 22.9707 178.452 30.2501 178.452 30.2501Z" fill="#63C5B5"/>
<path d="M104.444 181.258C94.4145 172.442 84.3851 163.545 74.3556 154.728C69.0174 150.037 63.5174 145.184 60.2012 138.875C52.9218 125.368 57.1277 107.897 66.9144 96.1695C76.7012 84.4415 91.0983 77.4857 105.576 72.4709C120.054 67.4562 135.098 63.8974 148.848 57.1841C157.503 52.9783 166.157 46.7503 168.584 37.4488C170.04 31.8679 168.826 25.64 165.429 20.9488C162.032 16.2576 156.451 13.2649 150.709 12.9414" stroke="white" stroke-miterlimit="10" stroke-linecap="round" stroke-linejoin="round"/>
<path d="M185.407 20.625C182.657 29.0368 171.981 34.1324 167.128 41.4118" stroke="white" stroke-miterlimit="10" stroke-linecap="round" stroke-linejoin="round"/>
<path d="M147.069 30.332C149.172 32.5159 151.679 34.3762 153.539 36.8026C157.422 41.9791 157.745 50.3909 152.003 55.5674" stroke="white" stroke-miterlimit="10" stroke-linecap="round" stroke-linejoin="round"/>
<path d="M93.1201 77.4062C101.936 84.2004 113.583 88.7298 124.745 89.2151" stroke="white" stroke-miterlimit="10" stroke-linecap="round" stroke-linejoin="round"/>
<path d="M72.9005 89.8601C68.8564 77.8895 73.305 63.4924 83.4153 55.8086" stroke="white" stroke-miterlimit="10" stroke-linecap="round" stroke-linejoin="round"/>
</g>
<g filter="url(#filter12_d)">
<path d="M462.69 35.0195C462.408 33.2941 462.744 31.2015 464.222 30.1324C465.384 29.2924 467.095 29.1006 468.281 29.8511C477.496 35.8116 473.934 51.0122 473.934 51.0122C473.934 51.0122 464.676 48.2182 462.69 35.0195Z" fill="#63C5B5"/>
<path d="M457.768 63.9079C449.543 74.4394 472.435 77.184 481.705 71.7669C481.72 71.676 464.835 54.7769 457.768 63.9079Z" fill="#63C5B5"/>
<path d="M491.021 40.5036C489.811 38.1625 489.776 34.8904 491.736 33.1519C493.243 31.9008 495.515 31.7058 497.352 32.4677C499.204 33.1386 501.823 35.426 502.772 37.0717C508.742 47.5506 503.808 56.1843 503.808 56.1843C503.808 56.1843 493.013 44.3702 491.021 40.5036Z" fill="#63C5B5"/>
<path d="M576.763 83.6799C576.509 81.7726 576.951 79.6036 578.611 78.5638C579.653 77.8911 580.97 77.8228 582.138 78.1038C583.306 78.3848 584.416 79.0298 585.344 79.6455C587.443 81.1027 588.97 83.2147 589.788 85.6793C591.673 91.9553 588.607 98.836 588.607 98.836C588.607 98.836 577.411 88.3573 576.763 83.6799Z" fill="#63C5B5"/>
<path d="M544.97 100.316C541.537 96.1248 535.511 94.1299 530.262 95.4332C528.9 95.7744 527.6 96.3122 526.682 97.3781C524.468 99.5422 524.52 103.284 526.036 106.047C527.461 108.796 530.139 110.72 532.664 112.432C537.393 115.525 545.145 117.237 550.293 119.464C550.293 119.464 551.913 108.805 544.97 100.316Z" fill="#63C5B5"/>
<path d="M469.301 38.6035C470.913 50.0623 479.045 59.8619 488.883 66.0157C498.721 72.1695 510.176 75.2234 521.432 77.7785C532.779 80.3482 544.275 82.5686 554.802 87.3398C565.07 91.9761 574.827 99.7969 577.829 110.732C581.482 124.012 574.11 137.947 564.411 147.776C554.727 157.513 542.65 164.719 533.194 174.773C528.813 179.388 524.937 184.925 524.671 191.229C524.25 199.655 530.276 206.876 535.903 213.1" stroke="white" stroke-miterlimit="10" stroke-linecap="round" stroke-linejoin="round"/>
<path d="M496.33 38.8398C502.536 48.4235 506.527 62.5044 506.185 73.9291" stroke="white" stroke-miterlimit="10" stroke-linecap="round" stroke-linejoin="round"/>
<path d="M465.651 67.1328C469.828 69.0172 474.019 70.8107 478.478 71.5269C482.936 72.2432 488.516 70.6199 492.289 68.0528" stroke="white" stroke-miterlimit="10" stroke-linecap="round" stroke-linejoin="round"/>
<path d="M584.03 85.5C587.495 90.07 589.06 96.0146 588.336 101.685C587.612 107.355 583.422 113.682 579.019 117.267" stroke="white" stroke-miterlimit="10" stroke-linecap="round" stroke-linejoin="round"/>
<path d="M537.524 104.256C544.423 113.017 550.555 120.162 558.539 127.978C562.165 131.548 569.754 136.593 573.555 136.177" stroke="white" stroke-miterlimit="10" stroke-linecap="round" stroke-linejoin="round"/>
</g>
<g filter="url(#filter13_d)">
<path opacity="0.2" d="M614.476 286.216C612.264 287.414 610.053 288.52 607.749 289.533C598.81 293.312 589.227 295.431 579.551 295.8C565.452 296.352 550.985 293.219 537.439 297.274C531.265 299.117 525.552 302.434 520.852 306.857C520.391 307.042 519.931 307.318 519.47 307.595C518.364 298.011 542.139 285.663 549.326 282.346C562.411 276.54 576.879 273.868 591.162 275.066C597.428 275.527 603.786 276.817 608.947 280.319C611.158 281.793 613.093 283.82 614.476 286.216Z" fill="#5275A0"/>
<path d="M591.162 280.686C597.428 281.147 603.786 282.437 608.946 285.938C614.107 289.44 617.701 295.798 616.503 301.972C615.12 309.16 607.749 313.767 600.469 314.689C593.189 315.61 586.001 313.583 578.814 312.109C562.964 308.884 546.654 308.146 530.62 309.897C526.657 310.358 522.787 311.095 519.285 313.215C518.18 303.631 541.954 291.283 549.142 287.966C562.319 282.16 576.879 279.58 591.162 280.686Z" fill="#63C5B5"/>
<path d="M525.552 307.226C537.347 296.813 567.664 289.81 589.135 292.113C595.585 292.758 602.128 294.694 607.104 298.932" stroke="white" stroke-miterlimit="10" stroke-linecap="round" stroke-linejoin="round"/>
</g>
<path opacity="0.2" d="M542.684 438.289L113.96 439.211C108.25 439.211 103.553 434.601 103.553 428.885L103 144.551C103 138.835 107.605 134.133 113.315 134.133L542.039 133.211C547.749 133.211 552.446 137.821 552.446 143.537L552.999 427.871C553.091 433.587 548.394 438.289 542.684 438.289Z" fill="#5275A0"/>
<g filter="url(#filter14_d)">
<path d="M534.685 433.289L105.96 434.211C100.25 434.211 95.5526 429.602 95.5526 423.888L95 139.548C95 133.833 99.605 129.133 105.315 129.133L534.04 128.211C539.75 128.211 544.447 132.819 544.447 138.534L545 422.782C545 428.589 540.395 433.289 534.685 433.289Z" fill="white"/>
</g>
<path d="M534.304 130.023C539.004 130.023 542.782 133.801 542.782 138.5L543.335 422.688C543.335 424.992 542.413 427.111 540.847 428.678C539.28 430.245 537.069 431.166 534.857 431.166L105.903 432.088C101.203 432.088 97.4252 428.309 97.4252 423.61L96.7801 139.422C96.7801 137.118 97.7016 134.999 99.2681 133.432C100.835 131.866 103.046 130.944 105.258 130.944L534.304 130.023ZM534.304 128.18C534.304 128.18 534.212 128.18 534.304 128.18L105.35 129.101C99.6368 129.101 95.0293 133.801 95.0293 139.514L95.5822 423.702C95.5822 429.415 100.19 434.023 105.903 434.023L534.857 433.101C540.57 433.101 545.178 428.402 545.178 422.688L544.625 138.5C544.625 132.787 540.018 128.18 534.304 128.18Z" fill="white"/>
<path d="M162.406 411.125L109.594 411.211C108.204 411.211 107 410.179 107 408.802V405.706C107 404.415 108.112 403.297 109.594 403.297L162.406 403.211C163.796 403.211 165 404.243 165 405.62V408.716C164.907 410.093 163.796 411.125 162.406 411.125Z" fill="white"/>
<path d="M297.68 345.94L146.32 346.211C144.476 346.211 143 344.768 143 342.965V338.727C143 336.924 144.476 335.481 146.32 335.481L297.68 335.211C299.524 335.211 301 336.654 301 338.457V342.695C301 344.498 299.524 345.94 297.68 345.94Z" fill="#CBDBF0"/>
<path d="M328.695 177.853L139.305 178.211C137.469 178.211 136 176.78 136 174.991V170.788C136 169 137.469 167.569 139.305 167.569L328.695 167.211C330.531 167.211 332 168.642 332 170.43V174.634C332 176.422 330.531 177.853 328.695 177.853Z" fill="#CBDBF0"/>
<path d="M513.678 295.853L354.322 296.211C352.476 296.211 351 294.78 351 292.991V288.788C351 287 352.476 285.569 354.322 285.569L513.678 285.211C515.524 285.211 517 286.642 517 288.43V292.634C517 294.333 515.524 295.853 513.678 295.853Z" fill="#CBDBF0"/>
<path d="M297.676 368.916L146.32 369.211C144.476 369.211 143 367.637 143 365.67V361.047C143 359.08 144.476 357.506 146.32 357.506L297.676 357.211C299.52 357.211 300.996 358.785 300.996 360.752V365.375C301.088 367.342 299.52 368.916 297.676 368.916Z" fill="#CBDBF0"/>
<path d="M297.68 391.916L146.32 392.211C144.476 392.211 143 390.637 143 388.67V384.047C143 382.08 144.476 380.506 146.32 380.506L297.68 380.211C299.524 380.211 301 381.785 301 383.752V388.375C301 390.244 299.524 391.916 297.68 391.916Z" fill="#CBDBF0"/>
<path d="M511.47 405.935L356.715 406.211C353.673 406.211 351.184 403.731 351.184 400.701L351 330.997C351 327.966 353.489 325.486 356.53 325.486L511.285 325.211C514.327 325.211 516.816 327.691 516.816 330.721L517 400.425C517 403.456 514.511 405.935 511.47 405.935Z" fill="#CBDBF0"/>
<path d="M116.5 183.211C122.299 183.211 127 178.51 127 172.711C127 166.912 122.299 162.211 116.5 162.211C110.701 162.211 106 166.912 106 172.711C106 178.51 110.701 183.211 116.5 183.211Z" fill="#CBDBF0"/>
<path d="M170 255.897L156.775 255.989L156.867 311.211H145.491C141.514 311.211 138.185 307.979 138.185 303.916L138 201.691C138 197.628 141.237 194.303 145.306 194.303L169.815 194.211L170 255.897Z" fill="#CBDBF0"/>
<path d="M258.779 194.068V194.99C261.36 194.99 263.387 197.017 263.387 199.597L263.571 305.108C263.571 306.306 263.11 307.504 262.189 308.333C261.36 309.163 260.162 309.716 258.964 309.716L144.146 309.992C141.566 309.992 139.538 307.965 139.538 305.385L139.354 199.874C139.354 197.294 141.381 195.266 143.962 195.266L258.779 194.99V194.068ZM258.779 194.068L143.962 194.345C140.921 194.345 138.433 196.833 138.433 199.874L138.617 305.385C138.617 308.425 141.105 310.913 144.146 310.913L258.964 310.637C262.005 310.637 264.493 308.149 264.493 305.108L264.308 199.597C264.308 196.556 261.82 194.068 258.779 194.068Z" fill="#CBDBF0"/>
<g filter="url(#filter15_d)">
<path d="M480.478 276.054L329.31 242.026C326.357 241.382 324.419 238.347 325.157 235.404L342.877 157.506C343.523 154.563 346.568 152.632 349.522 153.368L500.69 187.396C503.643 188.04 505.581 191.075 504.843 194.018L487.123 271.915C486.385 274.858 483.432 276.79 480.478 276.054Z" fill="#F5F5F5"/>
</g>
<path d="M156.585 472.267H136.312L131.336 446.373H161.469L156.585 472.267Z" fill="#63C5B5"/>
<path d="M136.958 446.373C136.958 448.492 136.59 451.994 137.972 452.086C139.354 452.178 138.801 448.769 140.368 448.861C141.381 448.953 139.907 460.103 143.777 460.38C146.45 460.564 145.989 454.943 146.265 451.349C146.45 448.953 149.49 449.414 149.583 450.981C149.583 452.731 149.49 453.929 149.583 455.957C149.767 459.366 154.927 458.445 154.743 453.929C154.559 449.414 154.743 446.373 154.743 446.373H136.958Z" fill="#CBDBF0"/>
<path d="M132.074 462.039C131.613 462.039 131.245 462.039 130.876 461.947C129.402 461.579 128.296 460.841 127.743 459.643C125.716 455.22 131.153 447.019 131.337 446.65L131.613 448.125C131.521 448.217 126.822 455.312 128.665 459.183C129.125 460.104 129.863 460.657 131.061 460.934C131.429 461.026 131.706 461.026 132.074 461.026C139.354 461.026 151.886 447.388 151.978 447.203C152.531 446.558 153.453 447.203 153.084 447.664C152.623 448.401 139.999 462.039 132.074 462.039Z" fill="#0D2440"/>
<path d="M213 305.211C227.707 310.755 240.531 328.221 237.572 340.788C234.254 355.112 224.658 361.211 224.658 361.211L221.609 355.482C221.609 355.482 229.232 343.191 228.604 337.369C227.528 328.036 216.139 321.845 216.139 321.845L213 305.211Z" fill="#528B82"/>
<path d="M175.34 466.211C175.34 466.211 166.25 470.055 164 472.211H182V466.305L175.34 466.211Z" fill="#333333"/>
<path d="M216 466.211C216 466.211 218.559 469.211 219 472.211H207C207.176 470.12 208.059 468.12 209.206 466.211H216Z" fill="#333333"/>
<g filter="url(#filter16_d)">
<path d="M216.781 466.211H208.097C208.283 456.053 206.136 421.607 204.081 395.842C202.868 380.696 201.654 368.599 201 366.105L205.669 365.09L223.224 361.211C226.305 374.786 219.395 437.121 216.781 466.211Z" fill="#414042"/>
</g>
<path d="M185.447 365.949C178.598 376.462 176.909 452.64 174 466.75L182.257 467.211C182.257 467.211 191.733 419.254 212 365.211L185.447 365.949Z" fill="#089790"/>
<g filter="url(#filter17_d)">
<path d="M185.447 365.949C178.598 376.462 176.909 452.64 174 466.75L182.257 467.211C182.257 467.211 191.733 419.254 212 365.211L185.447 365.949Z" fill="#414042"/>
</g>
<path d="M190.013 281.39C190.013 281.39 184.844 301.076 197.859 301.076L197.121 306.112L206.998 307.211L204.875 300.161C204.875 300.161 206.813 287.8 206.998 285.511C207.182 281.299 195.367 273.974 190.013 281.39Z" fill="#8B5E3C"/>
<path d="M158.414 258.752L154.544 258.76L154.576 274.978L158.446 274.97L158.414 258.752Z" fill="#0D2440"/>
<path d="M168.474 258.664L144.515 258.756C143.501 258.756 142.672 257.927 142.672 257.006V254.425C142.672 253.412 143.501 252.582 144.515 252.582L168.474 252.49C169.487 252.49 170.317 253.32 170.317 254.241V256.821C170.224 257.927 169.395 258.664 168.474 258.664Z" fill="#2C5B6D"/>
<path d="M153.895 279.126C153.806 275.509 150.879 276.504 152.476 270.627C153.451 267.01 160.813 271.169 159.926 273.701C159.039 276.233 157.975 280.211 157.975 280.211L153.895 279.126Z" fill="#8B5E3C"/>
<path d="M198.103 304.612C178.677 305.913 177.388 312.508 168.734 311.486C155.844 310 158.146 285.849 159.711 277.211H152.069C152.069 277.211 138.259 332.107 181.991 321.982C180.334 331.642 191.198 347.34 180.61 366.382C197.183 370.933 212.742 372.048 226 366.289C223.698 363.131 230.788 331.271 216.885 308.328C214.031 303.776 199.484 304.519 198.103 304.612Z" fill="#3D60AD"/>
<path d="M198.103 304.612C178.677 305.913 177.388 312.508 168.734 311.486C155.844 310 158.146 285.849 159.711 277.211H152.069C152.069 277.211 138.259 332.107 181.991 321.982C180.334 331.642 191.198 347.34 180.61 366.382C197.183 370.933 212.742 372.048 226 366.289C223.698 363.131 230.788 331.271 216.885 308.328C214.031 303.776 199.484 304.519 198.103 304.612Z" fill="#63C5B5"/>
<path d="M195.452 285.08C196.736 285.451 198.202 285.637 198.844 286.751C199.302 287.494 199.21 288.329 199.21 289.165C199.485 288.329 200.402 287.679 201.318 287.772C202.235 287.865 202.968 288.7 202.968 289.536C202.968 289.907 202.876 290.371 202.693 290.743C202.326 291.671 201.868 292.599 201.227 293.527C202.785 294.084 204.16 298.819 204.893 300.211C207.551 299.561 213.417 297.24 213.967 287.679C214.242 283.224 212.867 277.932 208.101 274.962C204.709 272.92 199.21 272.827 195.361 273.848C192.244 274.684 187.295 277.84 189.587 281.46C190.778 283.409 193.344 284.523 195.452 285.08Z" fill="#414042"/>
<path d="M212.206 278.515C214.033 277.871 216.316 278.239 217.32 279.711C218.142 280.907 218.051 282.471 218.325 283.85C218.416 284.494 218.69 285.23 219.238 285.69C219.878 286.242 220.791 286.426 221.613 286.426C223.714 286.518 225.814 286.242 227.823 286.61C229.833 286.978 231.933 288.082 232.573 290.013C232.938 291.117 232.755 292.221 233.121 293.325C233.669 294.889 235.313 295.809 236.774 296.728C239.879 298.66 242.436 301.236 244.354 304.271C245.542 306.203 246.455 308.319 246.638 310.526C246.82 312.734 248.373 315.677 247.916 317.885C247.46 320.277 245.176 323.496 240.518 324.968C232.573 327.543 230.107 328.647 222.526 324.14C221.613 323.588 219.786 321.748 218.964 321.104C218.325 320.553 217.868 319.817 217.686 319.081C217.046 316.873 217.777 314.482 218.964 312.55C220.06 310.526 221.613 308.778 222.8 306.847C223.531 305.651 224.079 304.363 223.988 302.983C223.988 302.431 223.805 301.972 223.44 301.604C223.074 301.328 222.618 301.144 222.252 301.052C220.608 300.684 218.782 301.052 217.229 300.316C215.768 299.58 214.946 297.832 215.402 296.268C215.676 295.257 216.498 294.337 216.681 293.325C216.955 291.853 216.042 290.289 214.763 289.37C213.485 288.45 211.841 288.174 210.288 287.898C209.557 287.806 208.735 287.622 208.096 287.162C207.365 286.61 207 285.598 207 284.678C207.091 281.643 209.466 279.435 212.206 278.515Z" fill="#414042"/>
<path d="M210.955 286.586C213.627 287.047 215.286 289.166 214.917 291.839C214.641 293.589 213.535 295.064 212.89 296.63C212.153 298.473 211.968 300.685 213.627 302.067C215.286 303.449 217.405 303.081 219.34 303.173C225.422 303.449 221.46 308.978 221.091 312.204C221.091 312.572 221.644 312.664 221.644 312.296C222.105 309.808 224.869 306.306 222.842 303.818C221.091 301.606 217.774 303.081 215.47 302.344C209.572 300.501 216.023 294.235 215.562 290.549C215.193 288.245 213.258 286.586 211.047 286.31C210.77 286.218 210.77 286.586 210.955 286.586Z" fill="#414042"/>
<path d="M191.05 274.881C198.237 270.919 206.254 271.656 212.244 277.369C212.52 277.646 212.889 277.277 212.612 277.001C207.176 271.011 197.5 269.813 190.865 274.697C190.865 274.697 190.957 274.973 191.05 274.881Z" fill="#414042"/>
<path d="M480.351 298.211L477 304.878L485.138 308.211L486 300.497L480.351 298.211Z" fill="#FAB8A3"/>
<path d="M485.725 277.211C467.979 284.791 475.242 303.201 486.092 301.035C491.334 299.952 494 283.347 494 283.347L485.725 277.211Z" fill="#FAB8A3"/>
<path d="M491.227 274.837C490.685 273.763 490.144 272.689 489.152 271.883C488.25 271.167 486.717 270.899 485.815 271.704C484.642 272.778 485.364 274.837 486.536 275.911C485.544 276 484.282 275.374 483.56 276C483.019 276.537 483.199 277.433 483.47 278.149C484.282 279.76 485.454 281.192 487.078 282.176C486.176 282.713 485.183 283.609 485.725 284.504C485.905 284.772 486.085 284.951 486.266 285.13C486.627 285.667 486.266 286.383 485.905 286.92C485.364 287.815 484.733 288.71 484.101 289.516C484.733 288.71 486.176 289.068 486.627 289.963C487.078 290.859 486.717 292.022 485.995 292.738C485.635 293.186 485.183 293.544 484.552 293.633C484.101 293.723 481.937 300.257 483.65 301.51C485.725 303.121 492.579 301.689 493.572 299.899C494.564 300.973 496.007 301.778 497.45 301.51C498.893 301.241 499.975 299.451 499.254 298.198C500.787 298.735 502.771 298.288 503.764 297.035C504.846 295.781 505.026 293.812 504.124 292.38C504.936 292.112 505.116 290.948 504.936 290.143C504.485 288.442 503.042 286.92 501.328 286.473C502.23 286.473 502.952 285.578 502.952 284.772C502.952 283.877 502.501 283.071 501.96 282.355C500.336 280.386 498.352 279.849 496.007 279.491C493.662 279.223 492.309 276.806 491.227 274.837Z" fill="#414042"/>
<path d="M474.571 465.211C474.571 465.211 464.356 470.221 463 471.799C463 471.799 483.069 472.726 484.696 471.799C486.233 470.778 481.442 465.211 481.442 465.211H474.571Z" fill="#333333"/>
<path d="M513.392 459.639C513.392 459.639 504.123 466.515 503 468.211C503 468.211 525 465.086 525 463.747C525 462.407 520.319 458.211 520.319 458.211L513.392 459.639Z" fill="#333333"/>
<path d="M484.736 368.16C484.365 370.298 469.97 427.095 511.112 461.211L523 458.515C523 458.515 509.162 445.501 502.568 422.076C496.346 399.952 501.268 397.721 504.983 385.543C509.069 372.064 506.004 362.211 506.004 362.211L484.736 368.16Z" fill="#414042"/>
<path d="M465.215 368.408C458.792 383.88 447.689 436.557 471.822 466.211H483.843C483.843 466.211 474.391 455.804 473.29 431.584C472.189 407.364 478.337 396.773 482.65 388.761C486.963 380.749 491 367.211 491 367.211L465.215 368.408Z" fill="#414042"/>
<path d="M456.899 272.211C453.741 283.646 452.749 304.751 468.446 313.211L479 310.608C479 310.608 459.966 300.381 464.025 274.349L456.899 272.211Z" fill="#BB462C"/>
<path d="M427.14 266.233L435.483 265.211C435.483 265.211 434.475 300.616 474.813 303.59C505.616 305.82 508 364.457 508 364.457C498.099 371.241 481.414 373.285 460.053 371.705C460.053 371.705 461.428 329.888 458.036 318.458C458.036 318.458 424.574 307.772 427.14 266.233Z" fill="#F15D3C"/>
<path d="M416.206 260.702C414.811 262.139 420.76 263.895 426.523 266.211L433.959 265.412C433.959 265.412 434.052 264.135 433.959 262.857C433.866 261.5 433.122 260.781 432.193 261.899C431.356 263.017 427.545 263.416 425.779 262.378C424.013 261.34 417.693 259.264 416.206 260.702Z" fill="#FAB8A3"/>
<path d="M457.01 272.131C454.362 269.388 455.092 269.577 455.092 269.577L463.219 271.469C463.219 271.469 465.045 267.402 466.506 267.213C468.058 267.119 465.41 270.05 465.958 271.09C466.597 272.225 464.314 274.211 464.314 274.211L457.01 272.131Z" fill="#FAB8A3"/>
<g filter="url(#filter18_d)">
<path d="M262.558 20.365L259.24 12.2558L291.492 0L262.558 20.365Z" fill="#539C90"/>
<path d="M264.216 15.3889L291.492 0L272.509 19.2592L264.216 15.3889Z" fill="#63C5B5"/>
<path d="M251.868 8.84632L291.492 0L259.24 12.2558L251.868 8.84632Z" fill="#63C5B5"/>
<path d="M264.217 15.3887L262.558 20.3647L267.442 16.8631L264.217 15.3887Z" fill="#63C5B5"/>
</g>
<g filter="url(#filter19_d)">
<path d="M259.011 19.3573C250.445 17.9971 238.773 26.3399 243.762 35.0455C245.456 38.038 254.304 36.7685 253.646 33.4132C253.363 31.8716 251.292 31.1461 249.692 31.3275C240.091 32.4157 239.714 40.1238 240.091 42.1188C242.256 52.366 258.54 48.92 264 47.4691" stroke="white" stroke-miterlimit="10" stroke-linecap="round" stroke-linejoin="round" stroke-dasharray="4 4"/>
</g>
<path d="M533.658 127.211L106.25 128.131C99.9795 128.131 95 133.194 95 139.454V149.211L545 148.29V138.533C544.908 132.274 539.836 127.211 533.658 127.211Z" fill="#F15D3C"/>
<path d="M116.5 142.211C118.433 142.211 120 140.644 120 138.711C120 136.778 118.433 135.211 116.5 135.211C114.567 135.211 113 136.778 113 138.711C113 140.644 114.567 142.211 116.5 142.211Z" fill="white"/>
<path d="M131.5 142.211C133.433 142.211 135 140.644 135 138.711C135 136.778 133.433 135.211 131.5 135.211C129.567 135.211 128 136.778 128 138.711C128 140.644 129.567 142.211 131.5 142.211Z" fill="white"/>
<path d="M146.5 142.211C148.433 142.211 150 140.644 150 138.711C150 136.778 148.433 135.211 146.5 135.211C144.567 135.211 143 136.778 143 138.711C143 140.644 144.567 142.211 146.5 142.211Z" fill="white"/>
<path opacity="0.2" d="M385.654 108.252C356.682 107.149 316.787 128.372 330.949 180.371C330.672 184.781 333.263 187.905 336.133 187.078C338.91 186.251 336.503 177.891 336.503 177.891C341.317 139.213 350.388 132.506 365.661 132.69L401.575 132.598C410.461 133.884 426.568 140.039 428.974 171L437.953 172.654C438.601 150.329 433.14 110.089 385.654 108.252Z" fill="#5275A0"/>
<path d="M385.654 104.252C356.682 103.152 316.787 124.327 330.949 176.211L336.411 173.736C341.224 135.144 350.295 128.452 365.568 128.635L401.575 128.544C410.461 129.827 427.03 137.619 429.437 168.511H437.953C438.601 146.236 433.14 106.085 385.654 104.252Z" fill="#2C5B6D"/>
<path d="M380.15 105.211L376 114.246C376 114.246 376.541 119.384 381.594 119.206C386.647 119.118 387.368 116.815 387.368 116.815L388 106.451L380.15 105.211Z" fill="#FAB8A3"/>
<path d="M401.749 96.9673C396.872 105.853 394.756 108.595 388.315 109.918C380.034 111.62 370.832 105.948 375.065 91.8627C378.561 80.33 383.898 82.1261 389.051 82.5987C394.388 82.9768 406.994 87.4198 401.749 96.9673Z" fill="#FAB8A3"/>
<path d="M382.597 90.3068C381.316 89.6708 379.669 90.216 378.662 91.2154C377.656 92.3057 377.106 93.9412 377.564 95.304C375.551 95.304 373.812 97.3029 373.995 99.2109C372.622 96.0309 373.354 92.76 373.08 89.58C372.805 86.3999 373.171 82.8564 375.276 80.4033C376.1 79.4038 377.289 78.5861 378.388 78.041C382.872 75.6786 388.454 75.5878 393.03 77.8592C393.945 78.3135 396.325 79.7673 399.619 79.0404C405.843 77.4958 409.503 81.7662 405.751 85.6731C406.941 86.1273 408.314 86.6725 408.863 87.7628C409.046 88.0354 409.046 88.3988 408.863 88.6714C408.771 88.8531 408.497 88.944 408.314 89.0348C407.215 89.3982 406.117 89.4891 405.019 89.3074C405.477 89.6708 407.765 89.7617 408.497 91.1246C410.327 94.668 403.006 92.8509 401.816 92.5783C403.097 92.8509 406.483 95.4857 405.385 97.3029C405.202 97.6663 400.626 100.301 395.867 94.7589C394.769 93.4869 393.396 92.3057 391.749 91.8514C390.468 91.488 389.095 91.9423 387.814 92.4874C386.899 92.8509 384.519 94.2137 383.879 93.396C383.146 92.4874 384.153 91.0337 382.597 90.3068Z" fill="#414042"/>
<path d="M430.625 168.489C429.416 172.956 428.207 173.329 429.675 174.073C431.143 174.818 432.265 172.305 432.265 172.305L439 173.701C439 173.701 437.446 169.048 436.41 168.396C435.374 167.931 430.625 168.489 430.625 168.489Z" fill="#FAB8A3"/>
<path d="M336.774 174.211C337.736 176.382 338.025 176.382 339.372 179.075C341.971 184.113 335.908 192.017 332.059 183.331C331 180.986 331 176.556 331 176.556L336.774 174.211Z" fill="#FAB8A3"/>
<path d="M390.406 226.046L420.365 192.144L413.117 219.381L390.406 226.046Z" fill="#F15D3C"/>
<path d="M429.51 236.453L420.44 192.166C415.961 201.494 413.13 210.623 413.192 219.403L429.51 236.453Z" fill="#F15D3C"/>
<defs>
<filter id="filter0_d" x="50.3906" y="94.2754" width="107.678" height="109.791" filterUnits="userSpaceOnUse" color-interpolation-filters="sRGB">
<feFlood flood-opacity="0" result="BackgroundImageFix"/>
<feColorMatrix in="SourceAlpha" type="matrix" values="0 0 0 0 0 0 0 0 0 0 0 0 0 0 0 0 0 0 127 0"/>
<feOffset dy="4"/>
<feGaussianBlur stdDeviation="2"/>
<feColorMatrix type="matrix" values="0 0 0 0 0 0 0 0 0 0 0 0 0 0 0 0 0 0 0.25 0"/>
<feBlend mode="normal" in2="BackgroundImageFix" result="effect1_dropShadow"/>
<feBlend mode="normal" in="SourceGraphic" in2="effect1_dropShadow" result="shape"/>
</filter>
<filter id="filter1_d" x="28.3301" y="316.299" width="92.6556" height="119.844" filterUnits="userSpaceOnUse" color-interpolation-filters="sRGB">
<feFlood flood-opacity="0" result="BackgroundImageFix"/>
<feColorMatrix in="SourceAlpha" type="matrix" values="0 0 0 0 0 0 0 0 0 0 0 0 0 0 0 0 0 0 127 0"/>
<feOffset dy="4"/>
<feGaussianBlur stdDeviation="2"/>
<feColorMatrix type="matrix" values="0 0 0 0 0 0 0 0 0 0 0 0 0 0 0 0 0 0 0.25 0"/>
<feBlend mode="normal" in2="BackgroundImageFix" result="effect1_dropShadow"/>
<feBlend mode="normal" in="SourceGraphic" in2="effect1_dropShadow" result="shape"/>
</filter>
<filter id="filter2_d" x="27.0098" y="373.496" width="99.7703" height="74.7849" filterUnits="userSpaceOnUse" color-interpolation-filters="sRGB">
<feFlood flood-opacity="0" result="BackgroundImageFix"/>
<feColorMatrix in="SourceAlpha" type="matrix" values="0 0 0 0 0 0 0 0 0 0 0 0 0 0 0 0 0 0 127 0"/>
<feOffset dy="4"/>
<feGaussianBlur stdDeviation="2"/>
<feColorMatrix type="matrix" values="0 0 0 0 0 0 0 0 0 0 0 0 0 0 0 0 0 0 0.25 0"/>
<feBlend mode="normal" in2="BackgroundImageFix" result="effect1_dropShadow"/>
<feBlend mode="normal" in="SourceGraphic" in2="effect1_dropShadow" result="shape"/>
</filter>
<filter id="filter3_d" x="0" y="239.508" width="116.078" height="111.288" filterUnits="userSpaceOnUse" color-interpolation-filters="sRGB">
<feFlood flood-opacity="0" result="BackgroundImageFix"/>
<feColorMatrix in="SourceAlpha" type="matrix" values="0 0 0 0 0 0 0 0 0 0 0 0 0 0 0 0 0 0 127 0"/>
<feOffset dy="4"/>
<feGaussianBlur stdDeviation="2"/>
<feColorMatrix type="matrix" values="0 0 0 0 0 0 0 0 0 0 0 0 0 0 0 0 0 0 0.25 0"/>
<feBlend mode="normal" in2="BackgroundImageFix" result="effect1_dropShadow"/>
<feBlend mode="normal" in="SourceGraphic" in2="effect1_dropShadow" result="shape"/>
</filter>
<filter id="filter4_d" x="39.6123" y="145.412" width="70.5026" height="177.464" filterUnits="userSpaceOnUse" color-interpolation-filters="sRGB">
<feFlood flood-opacity="0" result="BackgroundImageFix"/>
<feColorMatrix in="SourceAlpha" type="matrix" values="0 0 0 0 0 0 0 0 0 0 0 0 0 0 0 0 0 0 127 0"/>
<feOffset dy="4"/>
<feGaussianBlur stdDeviation="2"/>
<feColorMatrix type="matrix" values="0 0 0 0 0 0 0 0 0 0 0 0 0 0 0 0 0 0 0.25 0"/>
<feBlend mode="normal" in2="BackgroundImageFix" result="effect1_dropShadow"/>
<feBlend mode="normal" in="SourceGraphic" in2="effect1_dropShadow" result="shape"/>
</filter>
<filter id="filter5_d" x="140.589" y="63.0137" width="109.548" height="113.251" filterUnits="userSpaceOnUse" color-interpolation-filters="sRGB">
<feFlood flood-opacity="0" result="BackgroundImageFix"/>
<feColorMatrix in="SourceAlpha" type="matrix" values="0 0 0 0 0 0 0 0 0 0 0 0 0 0 0 0 0 0 127 0"/>
<feOffset dy="4"/>
<feGaussianBlur stdDeviation="2"/>
<feColorMatrix type="matrix" values="0 0 0 0 0 0 0 0 0 0 0 0 0 0 0 0 0 0 0.25 0"/>
<feBlend mode="normal" in2="BackgroundImageFix" result="effect1_dropShadow"/>
<feBlend mode="normal" in="SourceGraphic" in2="effect1_dropShadow" result="shape"/>
</filter>
<filter id="filter6_d" x="213.325" y="61.375" width="55.1727" height="105.029" filterUnits="userSpaceOnUse" color-interpolation-filters="sRGB">
<feFlood flood-opacity="0" result="BackgroundImageFix"/>
<feColorMatrix in="SourceAlpha" type="matrix" values="0 0 0 0 0 0 0 0 0 0 0 0 0 0 0 0 0 0 127 0"/>
<feOffset dy="4"/>
<feGaussianBlur stdDeviation="2"/>
<feColorMatrix type="matrix" values="0 0 0 0 0 0 0 0 0 0 0 0 0 0 0 0 0 0 0.25 0"/>
<feBlend mode="normal" in2="BackgroundImageFix" result="effect1_dropShadow"/>
<feBlend mode="normal" in="SourceGraphic" in2="effect1_dropShadow" result="shape"/>
</filter>
<filter id="filter7_d" x="514.18" y="129.352" width="107.044" height="156.296" filterUnits="userSpaceOnUse" color-interpolation-filters="sRGB">
<feFlood flood-opacity="0" result="BackgroundImageFix"/>
<feColorMatrix in="SourceAlpha" type="matrix" values="0 0 0 0 0 0 0 0 0 0 0 0 0 0 0 0 0 0 127 0"/>
<feOffset dy="4"/>
<feGaussianBlur stdDeviation="2"/>
<feColorMatrix type="matrix" values="0 0 0 0 0 0 0 0 0 0 0 0 0 0 0 0 0 0 0.25 0"/>
<feBlend mode="normal" in2="BackgroundImageFix" result="effect1_dropShadow"/>
<feBlend mode="normal" in="SourceGraphic" in2="effect1_dropShadow" result="shape"/>
</filter>
<filter id="filter8_d" x="509.388" y="218.852" width="130.844" height="105.405" filterUnits="userSpaceOnUse" color-interpolation-filters="sRGB">
<feFlood flood-opacity="0" result="BackgroundImageFix"/>
<feColorMatrix in="SourceAlpha" type="matrix" values="0 0 0 0 0 0 0 0 0 0 0 0 0 0 0 0 0 0 127 0"/>
<feOffset dy="4"/>
<feGaussianBlur stdDeviation="2"/>
<feColorMatrix type="matrix" values="0 0 0 0 0 0 0 0 0 0 0 0 0 0 0 0 0 0 0.25 0"/>
<feBlend mode="normal" in2="BackgroundImageFix" result="effect1_dropShadow"/>
<feBlend mode="normal" in="SourceGraphic" in2="effect1_dropShadow" result="shape"/>
</filter>
<filter id="filter9_d" x="523.579" y="333.088" width="80.4318" height="87.0643" filterUnits="userSpaceOnUse" color-interpolation-filters="sRGB">
<feFlood flood-opacity="0" result="BackgroundImageFix"/>
<feColorMatrix in="SourceAlpha" type="matrix" values="0 0 0 0 0 0 0 0 0 0 0 0 0 0 0 0 0 0 127 0"/>
<feOffset dy="4"/>
<feGaussianBlur stdDeviation="2"/>
<feColorMatrix type="matrix" values="0 0 0 0 0 0 0 0 0 0 0 0 0 0 0 0 0 0 0.25 0"/>
<feBlend mode="normal" in2="BackgroundImageFix" result="effect1_dropShadow"/>
<feBlend mode="normal" in="SourceGraphic" in2="effect1_dropShadow" result="shape"/>
</filter>
<filter id="filter10_d" x="306" y="35.2109" width="132" height="158" filterUnits="userSpaceOnUse" color-interpolation-filters="sRGB">
<feFlood flood-opacity="0" result="BackgroundImageFix"/>
<feColorMatrix in="SourceAlpha" type="matrix" values="0 0 0 0 0 0 0 0 0 0 0 0 0 0 0 0 0 0 127 0"/>
<feOffset dy="4"/>
<feGaussianBlur stdDeviation="2"/>
<feColorMatrix type="matrix" values="0 0 0 0 0 0 0 0 0 0 0 0 0 0 0 0 0 0 0.25 0"/>
<feBlend mode="normal" in2="BackgroundImageFix" result="effect1_dropShadow"/>
<feBlend mode="normal" in="SourceGraphic" in2="effect1_dropShadow" result="shape"/>
</filter>
<filter id="filter11_d" x="52.0244" y="7.37305" width="143.729" height="182.385" filterUnits="userSpaceOnUse" color-interpolation-filters="sRGB">
<feFlood flood-opacity="0" result="BackgroundImageFix"/>
<feColorMatrix in="SourceAlpha" type="matrix" values="0 0 0 0 0 0 0 0 0 0 0 0 0 0 0 0 0 0 127 0"/>
<feOffset dy="4"/>
<feGaussianBlur stdDeviation="2"/>
<feColorMatrix type="matrix" values="0 0 0 0 0 0 0 0 0 0 0 0 0 0 0 0 0 0 0.25 0"/>
<feBlend mode="normal" in2="BackgroundImageFix" result="effect1_dropShadow"/>
<feBlend mode="normal" in="SourceGraphic" in2="effect1_dropShadow" result="shape"/>
</filter>
<filter id="filter12_d" x="439.074" y="28.8164" width="157.253" height="197.236" filterUnits="userSpaceOnUse" color-interpolation-filters="sRGB">
<feFlood flood-opacity="0" result="BackgroundImageFix"/>
<feColorMatrix in="SourceAlpha" type="matrix" values="0 0 0 0 0 0 0 0 0 0 0 0 0 0 0 0 0 0 127 0"/>
<feOffset dy="4"/>
<feGaussianBlur stdDeviation="2"/>
<feColorMatrix type="matrix" values="0 0 0 0 0 0 0 0 0 0 0 0 0 0 0 0 0 0 0.25 0"/>
<feBlend mode="normal" in2="BackgroundImageFix" result="effect1_dropShadow"/>
<feBlend mode="normal" in="SourceGraphic" in2="effect1_dropShadow" result="shape"/>
</filter>
<filter id="filter13_d" x="515.248" y="274.785" width="105.486" height="48.1355" filterUnits="userSpaceOnUse" color-interpolation-filters="sRGB">
<feFlood flood-opacity="0" result="BackgroundImageFix"/>
<feColorMatrix in="SourceAlpha" type="matrix" values="0 0 0 0 0 0 0 0 0 0 0 0 0 0 0 0 0 0 127 0"/>
<feOffset dy="4"/>
<feGaussianBlur stdDeviation="2"/>
<feColorMatrix type="matrix" values="0 0 0 0 0 0 0 0 0 0 0 0 0 0 0 0 0 0 0.25 0"/>
<feBlend mode="normal" in2="BackgroundImageFix" result="effect1_dropShadow"/>
<feBlend mode="normal" in="SourceGraphic" in2="effect1_dropShadow" result="shape"/>
</filter>
<filter id="filter14_d" x="91" y="128.211" width="458" height="314" filterUnits="userSpaceOnUse" color-interpolation-filters="sRGB">
<feFlood flood-opacity="0" result="BackgroundImageFix"/>
<feColorMatrix in="SourceAlpha" type="matrix" values="0 0 0 0 0 0 0 0 0 0 0 0 0 0 0 0 0 0 127 0"/>
<feOffset dy="4"/>
<feGaussianBlur stdDeviation="2"/>
<feColorMatrix type="matrix" values="0 0 0 0 0 0 0 0 0 0 0 0 0 0 0 0 0 0 0.25 0"/>
<feBlend mode="normal" in2="BackgroundImageFix" result="effect1_dropShadow"/>
<feBlend mode="normal" in="SourceGraphic" in2="effect1_dropShadow" result="shape"/>
</filter>
<filter id="filter15_d" x="321" y="153.211" width="188" height="131" filterUnits="userSpaceOnUse" color-interpolation-filters="sRGB">
<feFlood flood-opacity="0" result="BackgroundImageFix"/>
<feColorMatrix in="SourceAlpha" type="matrix" values="0 0 0 0 0 0 0 0 0 0 0 0 0 0 0 0 0 0 127 0"/>
<feOffset dy="4"/>
<feGaussianBlur stdDeviation="2"/>
<feColorMatrix type="matrix" values="0 0 0 0 0 0 0 0 0 0 0 0 0 0 0 0 0 0 0.25 0"/>
<feBlend mode="normal" in2="BackgroundImageFix" result="effect1_dropShadow"/>
<feBlend mode="normal" in="SourceGraphic" in2="effect1_dropShadow" result="shape"/>
</filter>
<filter id="filter16_d" x="197" y="361.211" width="31" height="113" filterUnits="userSpaceOnUse" color-interpolation-filters="sRGB">
<feFlood flood-opacity="0" result="BackgroundImageFix"/>
<feColorMatrix in="SourceAlpha" type="matrix" values="0 0 0 0 0 0 0 0 0 0 0 0 0 0 0 0 0 0 127 0"/>
<feOffset dy="4"/>
<feGaussianBlur stdDeviation="2"/>
<feColorMatrix type="matrix" values="0 0 0 0 0 0 0 0 0 0 0 0 0 0 0 0 0 0 0.25 0"/>
<feBlend mode="normal" in2="BackgroundImageFix" result="effect1_dropShadow"/>
<feBlend mode="normal" in="SourceGraphic" in2="effect1_dropShadow" result="shape"/>
</filter>
<filter id="filter17_d" x="170" y="365.211" width="46" height="110" filterUnits="userSpaceOnUse" color-interpolation-filters="sRGB">
<feFlood flood-opacity="0" result="BackgroundImageFix"/>
<feColorMatrix in="SourceAlpha" type="matrix" values="0 0 0 0 0 0 0 0 0 0 0 0 0 0 0 0 0 0 127 0"/>
<feOffset dy="4"/>
<feGaussianBlur stdDeviation="2"/>
<feColorMatrix type="matrix" values="0 0 0 0 0 0 0 0 0 0 0 0 0 0 0 0 0 0 0.25 0"/>
<feBlend mode="normal" in2="BackgroundImageFix" result="effect1_dropShadow"/>
<feBlend mode="normal" in="SourceGraphic" in2="effect1_dropShadow" result="shape"/>
</filter>
<filter id="filter18_d" x="247.868" y="0" width="47.6243" height="28.365" filterUnits="userSpaceOnUse" color-interpolation-filters="sRGB">
<feFlood flood-opacity="0" result="BackgroundImageFix"/>
<feColorMatrix in="SourceAlpha" type="matrix" values="0 0 0 0 0 0 0 0 0 0 0 0 0 0 0 0 0 0 127 0"/>
<feOffset dy="4"/>
<feGaussianBlur stdDeviation="2"/>
<feColorMatrix type="matrix" values="0 0 0 0 0 0 0 0 0 0 0 0 0 0 0 0 0 0 0.25 0"/>
<feBlend mode="normal" in2="BackgroundImageFix" result="effect1_dropShadow"/>
<feBlend mode="normal" in="SourceGraphic" in2="effect1_dropShadow" result="shape"/>
</filter>
<filter id="filter19_d" x="235.5" y="18.7109" width="33.0001" height="38.9927" filterUnits="userSpaceOnUse" color-interpolation-filters="sRGB">
<feFlood flood-opacity="0" result="BackgroundImageFix"/>
<feColorMatrix in="SourceAlpha" type="matrix" values="0 0 0 0 0 0 0 0 0 0 0 0 0 0 0 0 0 0 127 0"/>
<feOffset dy="4"/>
<feGaussianBlur stdDeviation="2"/>
<feColorMatrix type="matrix" values="0 0 0 0 0 0 0 0 0 0 0 0 0 0 0 0 0 0 0.25 0"/>
<feBlend mode="normal" in2="BackgroundImageFix" result="effect1_dropShadow"/>
<feBlend mode="normal" in="SourceGraphic" in2="effect1_dropShadow" result="shape"/>
</filter>
</defs>
</svg>
