<svg width="103" height="106" viewBox="0 0 103 106" fill="none" xmlns="http://www.w3.org/2000/svg">
<path fill-rule="evenodd" clip-rule="evenodd" d="M100.032 56.1606L101.625 58.335C104.058 61.6719 103.024 66.3652 99.4291 68.3458L97.0824 69.6591C94.5205 71.08 93.1427 73.9864 93.6809 76.8712L94.176 79.5192C94.9296 83.5667 91.9586 87.3557 87.8466 87.5925L85.1555 87.7432C82.2276 87.8939 79.7303 89.9176 78.9552 92.7594L78.2448 95.3644C77.1468 99.3257 72.8411 101.457 69.0305 99.8854L66.5332 98.852C63.8205 97.7326 60.6989 98.4645 58.7613 100.682L56.9959 102.706C54.3048 105.827 49.5039 105.849 46.7482 102.792L44.9614 100.79C43.0023 98.5937 39.8591 97.9048 37.168 99.0673L34.6922 100.122C30.9031 101.758 26.5543 99.7132 25.4133 95.7519L24.6598 93.1685C23.8417 90.3482 21.3013 88.3676 18.3734 88.2384L15.6823 88.1307C11.5703 87.9585 8.53475 84.2125 9.22367 80.1651L9.67578 77.5171C10.1709 74.6107 8.75004 71.7258 6.16659 70.348L3.79843 69.0778C0.160077 67.1187 -0.937888 62.447 1.43027 59.0885L2.98034 56.8925C4.68111 54.4813 4.63805 51.2735 2.91575 48.9054L1.32263 46.731C-1.11012 43.4156 -0.076739 38.7223 3.51856 36.7201L5.86519 35.4069C8.42711 33.986 9.80495 31.0796 9.26673 28.1947L8.77157 25.5467C8.01806 21.4993 10.989 17.7103 15.101 17.4734L17.7921 17.3227C20.72 17.172 23.2173 15.1483 23.9924 12.3065L24.7028 9.70156C25.8008 5.74027 30.1065 3.60893 33.9171 5.18053L36.4145 6.21391C39.1271 7.3334 42.2487 6.60142 44.1863 4.38396L45.9517 2.36026C48.6643 -0.761403 53.4652 -0.782932 56.1994 2.27415L57.9862 4.27632C59.9454 6.47225 63.0886 7.16117 65.7796 5.99862L68.2555 4.94371C72.0445 3.30753 76.3933 5.35276 77.5343 9.31404L78.2878 11.8975C79.1059 14.7178 81.6463 16.6984 84.5742 16.8276L87.2653 16.9352C91.3773 17.1074 94.4129 20.8534 93.7239 24.9008L93.2718 27.5489C92.7767 30.4553 94.1976 33.3401 96.781 34.7179L99.1492 35.9881C102.788 37.9473 103.886 42.619 101.517 45.9775L99.9673 48.1734C98.2665 50.5846 98.3096 53.7924 100.032 56.1606ZM54.9839 50.4101C60.8492 53.0839 63.5647 56.4671 63.5647 61.3782C63.5647 67.2169 59.926 71.4186 53.2461 72.0735C53.0288 72.128 52.9202 72.2917 52.9202 72.4554L52.9745 75.1292C52.9745 75.7295 52.6487 76.0023 52.1056 76.0023H49.6074C49.0643 76.0023 48.7385 75.7295 48.7385 75.1292L48.7928 72.4554C48.7928 72.2917 48.6842 72.128 48.4669 72.0735C42.3301 71.3641 38.6914 67.5989 38.6914 62.3604V60.1231C38.6914 59.5775 39.0173 59.25 39.5603 59.25H44.0136C44.5567 59.25 44.8826 59.5229 44.8826 60.0686V60.9416C44.8826 64.1611 47.1092 66.7804 51.3453 66.7804C55.4184 66.7804 57.2649 64.434 57.2649 61.7056C57.2649 58.9316 54.3431 57.5997 50.6651 55.9231C48.9892 55.1592 47.1563 54.3237 45.3713 53.2476C41.3525 50.9558 38.8 48.5002 38.8 43.6437C38.8 37.9686 42.2758 34.1489 48.3583 33.3304C48.5755 33.2758 48.6842 33.1121 48.6842 32.9484L48.6298 29.8926C48.6298 29.2924 48.9557 29.0195 49.4988 29.0195H51.8883C52.4314 29.0195 52.7573 29.2924 52.7573 29.8926L52.703 32.8938C52.703 33.0575 52.8116 33.2212 53.0288 33.2758C59.6001 33.8761 63.2931 37.8049 63.2931 43.4254V45.117C63.2931 45.6627 62.9673 45.9901 62.4242 45.9901H57.9709C57.4278 45.9901 57.102 45.7173 57.102 45.3353V44.735C57.102 41.4064 55.0925 38.6234 50.7479 38.6234C47.1635 38.6234 45.0455 40.4242 45.0455 43.4254C45.0455 46.4307 47.8694 47.5444 51.6921 49.052C52.7281 49.4606 53.8375 49.8981 54.9839 50.4101Z" fill="black"/>
</svg>
