<svg width="104" height="104" viewBox="0 0 104 104" fill="none" xmlns="http://www.w3.org/2000/svg">
<path fill-rule="evenodd" clip-rule="evenodd" d="M104 52C104 80.7188 80.7188 104 52 104C23.2812 104 0 80.7188 0 52C0 23.2812 23.2812 0 52 0C80.7188 0 104 23.2812 104 52ZM53.4472 60.433C53.4472 60.433 53.1214 59.7655 52.3199 59.7655C51.5305 59.7655 51.2061 60.4109 51.1953 60.4324L51.195 60.433L42.7848 75.6249C42.4447 76.2391 42.6653 77.0154 43.2743 77.3651C43.4438 77.4626 47.4283 79.8069 47.4283 84.7146C47.4283 85.4246 48.004 86.0003 48.714 86.0003H55.9259C56.6358 86.0003 57.2116 85.4246 57.2116 84.7146C57.2116 79.8069 61.196 77.4626 61.361 77.3677C61.9764 77.0212 62.1972 76.2428 61.855 75.6248C61.8549 75.6249 53.4488 60.4361 53.4472 60.433ZM49.9281 83.4289C49.4801 79.4647 47.0357 76.9912 45.5956 75.8565L51.0341 66.0294V71.3082C51.0341 72.0181 51.6098 72.5939 52.3199 72.5939C53.0298 72.5939 53.6056 72.0181 53.6056 71.3082V66.0294L59.0442 75.8566C57.6041 76.9912 55.1596 79.4647 54.7117 83.4289H49.9281ZM72.9717 23H78.3533C79.0634 23 79.639 23.5756 79.639 24.2857V29.6673C79.639 30.3774 79.0633 30.953 78.3533 30.953H76.6267C75.8136 35.927 73.4529 40.602 69.9039 44.2206C67.9712 46.1912 65.7184 47.8152 63.2674 49.0337H72.1215C72.5189 48.4899 73.1594 48.1352 73.8847 48.1352C75.0911 48.1352 76.0688 49.113 76.0688 50.3194C76.0688 51.5258 75.0911 52.5038 73.8847 52.5038C73.1594 52.5038 72.5187 52.1489 72.1213 51.6051H56.2961V53.0104C56.2961 53.7205 55.7203 54.2961 55.0104 54.2961H49.6285C48.9185 54.2961 48.3428 53.7205 48.3428 53.0104V51.6051H32.5175C32.1203 52.1489 31.4795 52.5038 30.7544 52.5038C29.5478 52.5038 28.57 51.5259 28.57 50.3194C28.57 49.113 29.5478 48.1352 30.7544 48.1352C31.4795 48.1352 32.12 48.4899 32.5174 49.0337H41.3713C38.9256 47.818 36.6774 46.198 34.7475 44.233C31.1913 40.6124 28.8263 35.9332 28.0122 30.953H26.2857C25.5757 30.953 25 30.3774 25 29.6673V24.2857C25 23.5756 25.5757 23 26.2857 23H31.6674C32.3774 23 32.9531 23.5756 32.9531 24.2857V29.6673C32.9531 30.3774 32.3774 30.953 31.6674 30.953H30.6193C32.2532 39.9657 39.3021 47.0359 48.3428 48.676V47.6286C48.3428 46.9187 48.9185 46.3429 49.6285 46.3429H55.0104C55.7203 46.3429 56.2961 46.9187 56.2961 47.6286V48.676C65.3355 47.0361 72.3861 39.9621 74.0196 30.953H72.9717C72.2617 30.953 71.686 30.3774 71.686 29.6673V24.2857C71.686 23.5756 72.2617 23 72.9717 23ZM30.3817 25.5714H27.5714V28.3816H30.3817V25.5714ZM50.9142 51.7247H53.7247V48.9144H50.9142V51.7247ZM74.2574 28.3816H77.0676V25.5714H74.2574V28.3816Z" fill="black"/>
</svg>
