<svg width="233" height="220" viewBox="0 0 233 220" fill="none" xmlns="http://www.w3.org/2000/svg">
<path d="M181.874 60.0905C181.049 62.4971 180.389 64.9491 179.895 67.4465C178.832 72.8298 178.433 78.3945 178.075 83.8864C177.9 86.754 179.358 94.4625 181.17 96.7722C184.189 90.7175 188.07 83.808 192.112 78.2322C195.994 72.8541 196.352 67.3621 201.61 63.2829C202.289 62.7554 202.947 62.2642 203.626 61.7367C206.184 59.8244 208.705 57.8916 210.601 55.3685C212.978 52.1589 214.15 47.6026 212.169 44.1455C210.759 41.6311 207.918 40.1308 205.018 39.8416C202.155 39.5729 199.259 40.3857 196.656 41.6982C189.439 45.3468 184.519 52.4864 181.874 60.0905Z" fill="#63C5B5"/>
<path d="M203.036 46.8624C195.143 50.6091 190.678 57.6212 186.024 65.0537C181.354 72.4295 178.878 81.1809 178.885 89.9399" stroke="white" stroke-miterlimit="10" stroke-linecap="round" stroke-linejoin="round"/>
<path d="M180.922 179.069C184.97 176.625 189.066 174.148 192.36 170.719C195.229 167.764 197.359 164.208 199.977 160.996C201.667 158.929 203.547 156.981 204.741 154.612C205.934 152.243 206.315 149.217 204.86 146.96C203.378 144.614 200.188 143.737 197.499 144.309C194.768 144.872 192.451 146.656 190.556 148.685C188.034 151.364 186.087 154.614 184.905 158.087C183.823 161.24 183.342 164.586 182.261 167.739C181.257 170.694 179.702 173.421 177.889 175.932C176.285 178.227 172.51 182.204 171.26 184.648C173.159 186.095 179.206 180.114 180.922 179.069Z" fill="#63C5B5"/>
<path d="M198.919 149.314C195.334 150.147 193.298 153.889 191.959 157.291C190.448 161.171 189.814 165.592 187.296 168.95C182.548 175.252 176.56 182.304 172.77 184.031" stroke="white" stroke-miterlimit="10" stroke-linecap="round" stroke-linejoin="round"/>
<path d="M199.798 172.708C202.879 172.081 206.86 172.338 208.252 175.177C209.431 177.553 208.073 180.359 206.574 182.545C205.305 184.392 203.791 186.194 201.661 186.952C200.213 187.452 198.65 187.422 197.143 187.318C192.908 187.057 188.678 186.543 184.492 185.782C179.649 184.902 173.423 185.805 168.849 188.111C175.731 179.399 189.378 174.757 199.798 172.708Z" fill="#2C5B6D"/>
<path d="M203.76 179.826C200.036 179.319 196.298 178.894 192.575 179.32C188.77 179.731 173.702 183.563 171.027 185.918" stroke="white" stroke-miterlimit="10" stroke-linecap="round" stroke-linejoin="round"/>
<path d="M171.239 149.055C175.686 143.485 182.637 140.025 189.702 139.849C194.961 139.691 200.166 141.248 205.382 140.708C210.851 140.154 216.068 137.224 219.347 132.789C222.667 128.358 223.994 122.543 222.97 117.149C222.188 113.04 219.849 108.976 216.003 107.27C213.921 106.337 211.543 106.211 209.292 106.477C207.207 106.76 205.211 107.388 203.351 108.324C199.101 110.433 195.454 113.99 192.614 117.843C190.017 121.385 183.97 126.618 179.875 130.044C177.481 132.056 175.747 133.383 175.747 133.383C172.888 136.226 173.131 145.438 171.239 149.055Z" fill="#63C5B5"/>
<path d="M215.997 118.846C202.961 123.131 188.658 129.085 178.727 138.522" stroke="white" stroke-miterlimit="10" stroke-linecap="round" stroke-linejoin="round"/>
<path opacity="0.2" d="M177.669 137.024C177.669 137.024 197.797 123.968 203.401 108.244C199.152 110.354 195.504 113.911 192.665 117.763C190.067 121.306 184.02 126.539 179.925 129.965C179.25 131.99 178.502 134.302 177.669 137.024Z" fill="#5275A0"/>
<path opacity="0.2" d="M183.155 77.1639C184.308 82.5286 186.142 87.7975 187.985 92.9834C188.957 95.6867 193.345 102.19 195.923 103.595C196.301 96.8402 197.134 88.959 198.641 82.2395C200.08 75.7646 198.237 70.5787 201.453 64.7528C201.868 63.9998 202.279 63.2882 202.694 62.5352C202.437 62.5918 202.221 62.6529 201.963 62.7095C197.539 64.0876 195.121 68.3199 194.328 72.6403C193.661 76.1769 193.902 79.8514 194.023 83.4712C194.055 85.1524 194.087 86.8335 193.543 88.4117L193.538 88.4532C192.881 90.3131 190.11 89.9365 189.943 87.9475L189.454 81.856C189.311 80.0373 189.135 78.1313 187.814 76.7335C187.286 76.1743 186.57 75.8051 185.824 75.7262C184.57 75.6777 183.749 76.3039 183.155 77.1639Z" fill="#5275A0"/>
<path d="M178.068 133.25C182.626 118.296 184.411 116.094 183.528 112.142C182.386 107.072 183.857 102.278 182.798 97.2169C181.781 92.1601 181.263 86.7367 183.033 81.8906C183.615 80.3582 184.587 78.6993 186.499 78.8594C187.25 78.8969 187.962 79.3076 188.49 79.8667C189.811 81.2645 189.987 83.1706 190.13 84.9893L190.619 91.0807C190.786 93.0697 193.556 93.4463 194.214 91.5865L194.219 91.545C194.763 89.9667 194.731 88.2856 194.699 86.6045C194.578 82.9846 194.333 79.3516 195.004 75.7735C195.838 71.4576 198.257 67.2252 202.68 65.8472C204.239 65.3828 205.958 65.3965 207.49 65.9779C211.769 67.5624 212.474 71.9991 211.42 75.6207C210.692 78.1442 209.235 80.4229 207.865 82.669C204.551 88.2327 205.977 93.794 204.929 100.143C202.066 117.708 178.068 133.25 178.068 133.25Z" fill="#2C5B6D"/>
<path d="M204.643 70.291C201.338 80.9309 197.982 91.6493 192.669 101.448C191.109 104.303 190.107 108.224 182.068 115.637" stroke="white" stroke-miterlimit="10" stroke-linecap="round" stroke-linejoin="round"/>
<g filter="url(#filter0_d)">
<path d="M181.017 18.1767L188.496 18.3922C188.578 15.4472 187.838 12.6459 186.606 10.2038L179.127 9.98828C180.442 12.4304 181.099 15.2317 181.017 18.1767Z" fill="#353535"/>
<path d="M179.127 9.98696L186.605 10.2024C185.537 8.26308 184.14 6.53921 182.414 5.17447L174.935 4.95898C176.661 6.32372 178.058 8.0476 179.127 9.98696Z" fill="#353535"/>
<path d="M174.853 4.96055L182.332 5.17604C179.62 2.94936 176.086 1.65646 172.306 1.58463L164.827 1.36914C168.689 1.44097 172.141 2.8057 174.853 4.96055Z" fill="#353535"/>
<path d="M176.087 193.295L183.566 193.51L188.497 18.3932L181.018 18.1777L176.087 193.295Z" fill="#353535"/>
<path d="M158.992 209.456L166.471 209.672C175.675 209.887 183.318 202.633 183.565 193.51L176.086 193.295C175.84 202.417 168.196 209.672 158.992 209.456Z" fill="#353535"/>
<path d="M125.873 6.32422C125.051 6.32422 124.393 6.97067 124.311 7.76078C124.311 8.55089 124.969 9.26917 125.791 9.26917C126.612 9.26917 127.27 8.62271 127.352 7.8326C127.352 7.04249 126.695 6.32422 125.873 6.32422Z" fill="white"/>
<path d="M117.654 13.293C117.161 13.293 116.75 13.7239 116.667 14.2267C116.667 14.7295 117.078 15.1605 117.571 15.1605L133.515 15.4478C134.008 15.4478 134.419 15.0168 134.501 14.514C134.501 14.0112 134.091 13.5803 133.597 13.5803L117.654 13.293Z" fill="white"/>
<path d="M124.219 186.614C120.152 186.543 116.736 189.76 116.654 193.836C116.573 197.911 119.745 201.272 123.813 201.343C127.88 201.415 131.297 198.197 131.378 194.122C131.541 190.046 128.287 186.686 124.219 186.614Z" fill="white"/>
<path d="M141.815 12.9336C140.829 12.9336 140.089 13.6519 140.007 14.5856C140.007 15.5194 140.747 16.3095 141.733 16.3095C142.719 16.3095 143.459 15.5912 143.541 14.6575C143.459 13.7237 142.719 12.9336 141.815 12.9336Z" fill="white"/>
<rect x="81.7686" y="22.8086" width="94.0613" height="165.843" fill="white"/>
<path d="M96.1214 0.00467887C86.9167 -0.210806 79.2736 7.04384 79.027 16.166L74.096 191.283C73.8494 200.405 81.0817 207.947 90.2863 208.091L158.992 209.456C168.197 209.671 175.84 202.416 176.087 193.294L181.018 18.1772C181.264 9.05503 174.032 1.51307 164.827 1.36941L96.1214 0.00467887ZM80.1776 181.586L84.6156 23.3488L174.854 25.1445L170.416 183.382L80.1776 181.586ZM123.735 201.914C119.297 201.842 115.846 198.179 115.928 193.869C116.092 189.487 119.708 186.04 124.146 186.111C128.584 186.183 132.036 189.847 131.954 194.156C131.872 198.538 128.173 201.985 123.735 201.914ZM133.68 13.5802C134.173 13.5802 134.584 14.0112 134.584 14.514C134.584 15.0168 134.173 15.4477 133.597 15.4477L117.654 15.1604C117.161 15.1604 116.75 14.7295 116.75 14.2267C116.75 13.7239 117.161 13.2929 117.736 13.2929L133.68 13.5802ZM141.816 12.9337C142.802 12.9337 143.542 13.7239 143.542 14.6576C143.542 15.5914 142.72 16.3815 141.734 16.3097C140.747 16.3097 140.008 15.5196 140.008 14.5858C140.008 13.652 140.83 12.8619 141.816 12.9337Z" fill="#333333"/>
</g>
<path d="M16.5612 120.461L19.3625 99.487C19.3625 99.487 37.535 96.3984 43.4249 89.1437C48.8839 82.32 52.1161 76.502 52.1161 76.502L61.1665 83.4693C61.1665 83.4693 51.3979 107.891 32.5789 116.941" fill="#213E49"/>
<path d="M57.0721 56.0301L61.9564 55.5273C62.1001 55.5273 62.2438 55.5273 62.3874 55.5273C62.3874 55.5273 62.3874 55.5273 62.4592 55.5273C62.6747 55.5273 62.8902 55.5273 63.1057 55.5992L82.212 59.6215C82.2838 59.6215 82.3556 59.6216 82.4275 59.6934C82.4993 59.6934 82.4993 59.6934 82.5711 59.7652C82.7148 59.837 82.7866 59.837 82.9303 59.9089C83.0021 59.9089 83.0739 59.9807 83.1458 59.9807C83.2894 60.0525 83.3612 60.1243 83.5049 60.1962C83.5767 60.1962 83.5767 60.268 83.6485 60.268C83.6485 60.268 83.6485 60.268 83.7204 60.268C83.9359 60.4117 84.0795 60.4835 84.2232 60.6271L84.295 60.699C84.4387 60.8426 84.5823 60.9863 84.726 61.1299C84.7978 61.2018 84.7978 61.2736 84.8696 61.2736C85.0133 61.4173 85.0851 61.5609 85.1569 61.6327C85.2288 61.7046 85.2288 61.7764 85.3006 61.8482C85.4443 61.9919 85.5161 62.2074 85.6597 62.351L85.7316 62.4228C85.8752 62.6383 85.947 62.8538 86.0907 63.0693C86.0907 63.1411 86.1625 63.213 86.1625 63.2848C86.2344 63.4284 86.3062 63.6439 86.378 63.7876C86.378 63.7876 86.378 63.8594 86.4498 63.8594V63.9312C86.5935 64.2904 86.6653 64.5777 86.7372 64.9368C86.7372 64.9368 86.7372 64.9368 86.7372 65.0087V65.0805C86.809 65.3678 86.809 65.6551 86.8808 65.9424C86.8808 66.0143 86.8808 66.0143 86.8808 66.0861V66.1579C86.8808 66.5171 86.9526 66.8044 86.9526 67.1635V67.2353C86.9526 67.379 86.9526 67.5226 86.9526 67.6663L85.3724 94.0272C85.3724 94.3146 85.3006 94.53 85.3006 94.8174V94.8892C85.3006 94.961 85.3006 95.0328 85.2288 95.1047C85.2288 95.1765 85.2288 95.2483 85.1569 95.3202C85.1569 95.4638 85.0851 95.5356 85.0851 95.6793C85.0851 95.7511 85.0851 95.8229 85.0133 95.8948C85.0133 96.0384 84.9415 96.1103 84.9415 96.2539C84.9415 96.3257 84.8696 96.3976 84.8696 96.4694C84.7978 96.613 84.7978 96.6849 84.726 96.8285C84.726 96.9004 84.726 96.9004 84.6541 96.9722C84.5823 97.1159 84.5105 97.2595 84.4387 97.4032L84.3668 97.475C84.295 97.6187 84.2232 97.6905 84.1513 97.8341C84.1513 97.906 84.0795 97.906 84.0795 97.9778C84.0077 98.0496 83.9359 98.1214 83.9359 98.2651C83.864 98.3369 83.864 98.3369 83.7922 98.4088C83.7204 98.4806 83.6485 98.5524 83.6485 98.6242C83.5767 98.6961 83.5767 98.6961 83.5049 98.7679C83.4331 98.8397 83.3612 98.9116 83.2894 98.9834C83.2176 99.0552 83.2176 99.0552 83.1458 99.127C83.0739 99.1989 83.0021 99.2707 82.9303 99.2707C82.8584 99.3425 82.8584 99.3425 82.7866 99.4144C82.7148 99.4862 82.643 99.4862 82.5711 99.558C82.4993 99.558 82.4993 99.6298 82.4275 99.6298C82.3556 99.7017 82.2838 99.7017 82.212 99.7735C82.1402 99.7735 82.1402 99.8453 82.0683 99.8453C81.9965 99.8453 81.9247 99.9172 81.8528 99.9172C81.781 99.9172 81.781 99.989 81.7092 99.989C81.6374 99.989 81.5655 100.061 81.4219 100.061C81.35 100.061 81.35 100.061 81.2782 100.133C81.1346 100.133 80.9909 100.204 80.8472 100.204L75.9629 100.707C76.1066 100.707 76.2503 100.635 76.3939 100.635C76.4657 100.635 76.4657 100.635 76.5376 100.635C76.6094 100.635 76.753 100.564 76.8249 100.564C76.8967 100.564 76.8967 100.492 76.9685 100.492C77.0404 100.492 77.1122 100.42 77.184 100.42C77.2558 100.42 77.2558 100.348 77.3277 100.348C77.3995 100.276 77.4713 100.276 77.5431 100.204C77.615 100.204 77.615 100.133 77.6868 100.133C77.7586 100.061 77.8305 100.061 77.9023 99.989C77.9741 99.9172 77.9741 99.9172 78.0459 99.8453C78.1178 99.7735 78.1896 99.7017 78.2614 99.7017C78.3333 99.6298 78.3333 99.6298 78.4051 99.558C78.4769 99.4862 78.5487 99.4143 78.6206 99.3425C78.6924 99.2707 78.6924 99.2707 78.7642 99.1989C78.8361 99.127 78.9079 99.0552 78.9079 98.9834C78.9797 98.9116 78.9797 98.9116 79.0515 98.8397C79.1234 98.7679 79.1952 98.6961 79.1952 98.5524C79.1952 98.4806 79.267 98.4806 79.267 98.4088C79.3389 98.2651 79.4107 98.1933 79.4825 98.0496L79.5543 97.9778C79.6262 97.8341 79.698 97.6905 79.7698 97.5468C79.7698 97.475 79.7698 97.475 79.8417 97.4032C79.9135 97.2595 79.9135 97.1877 79.9853 97.044C79.9853 96.9722 80.0571 96.9004 80.0571 96.8285C80.0571 96.6849 80.129 96.613 80.129 96.4694C80.129 96.3976 80.2008 96.3257 80.2008 96.2539C80.2008 96.1821 80.2726 96.0384 80.2726 95.8948C80.2726 95.8229 80.2726 95.7511 80.3444 95.6793C80.3444 95.6075 80.3445 95.4638 80.4163 95.392C80.4881 95.1765 80.4881 94.8892 80.4881 94.6019L82.0683 68.2409C82.0683 68.0254 82.0683 67.8818 82.0683 67.6663C82.0683 67.3072 82.0683 67.0199 81.9965 66.6607C81.9965 66.5889 81.9965 66.5171 81.9965 66.4452C81.9965 66.1579 81.9247 65.8706 81.8528 65.5833C81.8528 65.5115 81.8528 65.5115 81.8528 65.4396C81.781 65.0805 81.6374 64.7213 81.5655 64.434C81.5655 64.3622 81.4937 64.2904 81.4937 64.2185C81.4219 64.0749 81.35 63.8594 81.2782 63.7158C81.2782 63.6439 81.2064 63.5721 81.2064 63.5003C81.1346 63.2848 80.9909 63.0693 80.8472 62.8538C80.8472 62.782 80.7754 62.782 80.7754 62.7102C80.7036 62.5665 80.5599 62.351 80.4163 62.2074C80.3445 62.1355 80.3445 62.0637 80.2726 61.9919C80.2008 61.8482 80.0571 61.7046 79.9853 61.6327C79.9135 61.5609 79.9135 61.4891 79.8417 61.4891C79.698 61.3454 79.5543 61.2018 79.4107 61.0581L79.3388 60.9863C79.1952 60.8426 78.9797 60.699 78.8361 60.6271C78.7642 60.5553 78.6924 60.5553 78.6206 60.5553C78.4769 60.4835 78.4051 60.4117 78.2614 60.3398C78.1896 60.3398 78.1178 60.268 78.0459 60.268C77.9023 60.1962 77.8305 60.1962 77.6868 60.1243C77.5432 60.1243 77.4713 60.0525 77.3277 60.0525L58.2214 56.0301C58.0059 55.9583 57.7904 55.9583 57.5749 55.9583C57.4313 55.9583 57.2876 55.9583 57.0721 56.0301Z" fill="#BB462C"/>
<path d="M58.2208 56.0292C55.4195 55.4546 52.9055 58.1122 52.69 62.0628L51.1098 88.4237C50.8943 92.3024 52.9773 95.9657 55.7786 96.6121L74.8849 100.635C77.6862 101.209 80.2002 98.5515 80.4157 94.601L81.9959 68.24C82.2114 64.3613 80.1284 60.698 77.3271 60.0516L58.2208 56.0292Z" fill="#F15D3C"/>
<path d="M22.1638 207.299C22.2356 208.807 22.3793 210.387 23.313 211.465C24.3905 212.829 26.3298 213.189 28.0537 213.404C30.5677 213.763 33.0817 214.122 35.5957 214.482C35.7393 214.841 35.3084 215.2 34.9492 215.272C33.0817 215.918 31.0705 215.631 29.1311 215.415C26.9045 215.2 24.606 215.056 22.3075 215.056C21.3019 215.056 20.0808 214.984 19.578 214.051C19.2189 213.404 19.3625 212.614 19.4343 211.824C19.7216 209.525 19.0752 207.227 19.3625 204.928C19.4343 204.641 19.5062 204.354 19.7216 204.282C19.8653 204.21 20.009 204.282 20.1526 204.282C22.0201 204.785 22.0202 205.575 22.1638 207.299Z" fill="#FAB8A3"/>
<path d="M21.4461 213.19C23.3137 214.339 25.253 214.627 27.4079 214.339C27.5515 214.339 28.2698 214.196 28.4134 214.124C28.4853 213.693 28.4134 213.262 28.7726 213.334C30.3528 213.406 31.933 213.549 33.5133 213.693C34.0161 213.765 35.8836 213.837 36.0991 214.196C36.2427 214.555 36.1709 214.986 35.8836 215.273C35.6681 215.56 35.2371 215.776 34.878 215.848C33.0823 216.494 31.1429 216.422 29.2036 216.351C26.8332 216.207 24.5347 216.135 22.1644 215.991C21.3743 215.92 20.5124 215.92 19.8659 215.489C18.8603 214.842 18.5012 213.549 18.5012 212.4C18.5012 210.389 20.7997 212.759 21.4461 213.19Z" fill="#414042"/>
<path d="M58.8681 211.251C59.1554 212.688 59.5145 214.268 60.592 215.274C61.8849 216.495 63.7524 216.567 65.5481 216.567C68.0621 216.567 70.6479 216.639 73.1619 216.639C73.3056 216.998 72.9464 217.357 72.5873 217.5C70.8634 218.362 68.7804 218.362 66.841 218.434C64.5425 218.506 62.3158 218.65 60.0173 218.937C59.0117 219.081 57.7907 219.152 57.216 218.362C56.7851 217.788 56.7851 216.926 56.7851 216.208C56.7851 213.909 55.7795 211.682 55.8513 209.384C55.8513 209.097 55.9231 208.809 56.1386 208.666C56.2823 208.594 56.4259 208.594 56.5696 208.594C58.4371 208.737 58.5808 209.528 58.8681 211.251Z" fill="#FAB8A3"/>
<path d="M17.0646 136.549C17.0646 136.549 18.7885 154.003 19.4349 163.556C20.0814 173.109 13.8323 193.509 14.0478 199.039C14.2633 204.57 15.5562 207.731 15.5562 207.731L28.9162 207.587L33.4414 138.057L17.0646 136.549Z" fill="#414042"/>
<path d="M32.3495 82.7003C31.9068 82.8753 30.9215 81.432 30.1489 79.4767C29.3762 77.5214 29.1087 75.7944 29.5514 75.6195C29.9941 75.4446 30.9794 76.8878 31.7521 78.8431C32.5247 80.7985 32.7922 82.5254 32.3495 82.7003Z" stroke="#414042" stroke-miterlimit="10"/>
<path d="M23.4573 95.9662C17.5862 95.9662 12.8268 91.2068 12.8268 85.3357C12.8268 79.4645 17.5862 74.7051 23.4573 74.7051C29.3284 74.7051 34.0879 79.4645 34.0879 85.3357C34.0879 91.2068 29.3284 95.9662 23.4573 95.9662Z" fill="#FAB8A3"/>
<path d="M26.3304 90.5091L28.7007 102.289L22.1643 104.659L19.5785 90.0781L26.3304 90.5091Z" fill="#FAB8A3"/>
<path d="M16.489 134.037C16.489 134.037 36.17 135.33 42.419 137.7C45.6513 147.541 59.5859 204.285 60.9507 210.175C58.8677 210.606 49.7455 211.971 49.7455 211.971C49.7455 211.971 43.9274 205.937 38.253 187.046C32.2194 167.078 18.7875 145.027 17.7819 143.375C16.2736 140.933 16.489 134.037 16.489 134.037Z" fill="#414042"/>
<path d="M79.6264 88.928C79.77 88.497 79.9137 88.0661 80.2728 87.7787C80.7038 87.4196 81.3502 87.4914 81.9249 87.7069C82.4277 87.9224 82.9305 88.2815 83.5051 88.4252C84.5107 88.7125 85.6599 88.3534 86.45 88.928C86.9528 89.2871 87.1683 89.9336 87.0247 90.5082C86.9528 90.7955 86.8092 91.0828 86.6655 91.3701C86.2346 92.3039 86.3064 93.525 85.6599 94.3151C85.1571 94.9616 84.4389 95.2489 83.6487 95.608C81.853 96.3263 80.0573 97.0446 78.2616 97.7629C78.118 97.8347 78.0461 97.8347 77.9025 97.8347C77.8307 97.7629 77.7588 97.691 77.687 97.6192C76.9687 95.7517 77.256 94.8179 78.1898 93.3095C78.9799 91.9448 79.1954 90.4364 79.6264 88.928Z" fill="#FAB8A3"/>
<path d="M59.0124 217.212C61.0236 218.074 62.963 218.145 65.046 217.571C65.1896 217.571 65.9079 217.283 65.9797 217.283C65.9797 216.852 65.9079 216.493 66.2671 216.422C67.8473 216.278 69.4275 216.206 71.0077 216.206C71.5105 216.206 73.378 215.991 73.5935 216.35C73.809 216.637 73.7372 217.14 73.5217 217.427C73.3062 217.786 72.9471 218.002 72.6598 218.145C71.0077 219.079 68.9965 219.223 67.129 219.366C64.7587 219.582 62.4602 219.797 60.0898 219.941C59.2997 220.013 58.4378 220.085 57.7195 219.726C56.6421 219.223 56.1393 218.002 55.9956 216.852C55.7083 214.769 58.2223 216.852 59.0124 217.212Z" fill="#414042"/>
<path d="M80.8476 84.1146C80.9912 83.7555 81.1349 83.3963 81.4941 83.3245C81.925 83.1808 82.356 83.4681 82.4996 83.8991C82.6433 84.3301 82.6433 84.761 82.5715 85.192C82.4278 86.4131 82.356 87.5623 82.2123 88.7834C82.1405 89.4299 81.9969 90.2918 81.3504 90.5073C80.9194 90.7228 80.273 90.5073 79.9857 90.1482C79.3392 89.358 79.7702 88.4961 79.9138 87.6342C80.1293 86.4131 80.3448 85.2638 80.8476 84.1146Z" fill="#FAB8A3"/>
<path d="M18.8601 104.012C19.2193 101.498 21.4459 99.6301 24.0317 99.7019C29.4907 99.8456 37.8228 100.492 39.1875 101.21C40.9114 102.144 52.4039 105.664 55.9235 105.664C59.4431 105.664 74.096 92.4473 74.096 92.4473L81.2788 100.133C81.2788 100.133 68.2061 116.51 63.3218 118.449C58.4374 120.317 43.0662 120.245 43.0662 120.245L42.3479 137.915C42.3479 137.915 19.5066 142.512 17.3517 138.705C15.1969 134.898 16.5616 120.532 16.5616 120.532L18.8601 104.012Z" fill="#2C5B6D"/>
<path d="M35.2089 84.4952C34.7661 84.6702 33.7809 83.2269 33.0082 81.2716C32.2356 79.3163 31.9681 77.5894 32.4108 77.4144C32.8535 77.2395 33.8388 78.6828 34.6114 80.6381C35.3841 82.5934 35.6516 84.3203 35.2089 84.4952Z" stroke="#414042" stroke-miterlimit="10"/>
<path d="M34.7339 80.7383C34.3029 80.8819 23.1695 84.9762 23.1695 84.9762" stroke="#414042" stroke-width="0.75" stroke-miterlimit="10"/>
<path d="M24.5084 82.2501C24.0772 83.5282 24.9397 85.1614 23.9334 86.0844C23.3584 86.5815 22.5678 86.5815 21.8491 86.7235C20.5554 87.0785 19.4773 88.2146 19.3335 89.5637C19.1898 90.9128 19.9085 92.2619 21.1304 92.901C21.4897 93.114 21.921 93.185 22.2085 93.469C22.7835 94.0371 22.7116 94.8891 22.4241 95.5992C22.1366 96.3093 21.7053 96.9483 21.5616 97.7294C21.2741 99.0785 22.0647 100.428 22.5678 101.706C24.1491 105.824 23.0709 110.581 21.346 114.629C20.0523 117.753 18.3273 120.806 15.8117 123.007C13.2243 125.209 9.70252 126.558 6.39635 125.777C3.09018 124.996 0.287118 121.871 0.574611 118.534C0.718357 117.256 1.22147 116.12 1.65271 114.984C2.94643 111.646 3.95264 107.883 2.51518 104.617C1.79644 102.842 0.358982 101.351 0.0714891 99.4335C-0.359751 97.0193 1.22147 94.6051 3.16205 93.114C5.10263 91.6229 7.47443 90.6998 9.70251 89.4927C11.8587 88.2856 14.0149 86.5815 14.7336 84.2383C15.2367 82.5342 15.0211 80.759 15.668 79.0549C16.5305 76.8537 18.8304 75.3626 21.2022 75.0786C23.1428 74.7945 27.9583 75.2206 28.8927 77.3507C29.7552 79.907 25.1553 80.191 24.5084 82.2501Z" fill="#414042"/>
<path d="M6.84694 93.2619C5.73133 91.4032 5.59188 88.5779 7.19556 87.0909C7.89282 86.496 8.79925 86.1986 9.35706 85.5295C10.3332 84.4886 10.2635 82.7785 10.4727 81.3659C10.891 78.6149 12.425 76.087 14.5865 74.6C16.748 73.113 19.537 72.5925 22.1168 73.336C22.7444 73.4847 23.3719 73.7821 23.7205 74.3026C24.2783 75.1948 23.9297 76.3844 23.3022 77.2022C22.6746 78.0201 21.7682 78.5405 21.0012 79.2097C19.0489 81.0685 18.3516 83.9681 17.3755 86.5704C16.1902 89.7675 14.447 92.7415 12.2855 95.2694C9.35707 98.7639 8.72952 96.3847 6.84694 93.2619Z" fill="#414042"/>
<path d="M154.765 84.7353L165.859 67.5224L164.473 80.2044L154.765 84.7353Z" fill="white"/>
<path d="M172.973 86.7249L165.894 67.5258C164.526 72.0052 163.881 76.2832 164.508 80.2078L172.973 86.7249Z" fill="white"/>
<path d="M93.8491 93.3836L92.7598 93.3459C92.7098 93.3442 92.6809 93.3132 92.6826 93.2632L92.7203 92.1739C92.7244 92.0539 92.6569 91.9816 92.5369 91.9774L91.3177 91.9353C91.1977 91.9311 91.1254 91.9987 91.1212 92.1186L91.0836 93.2079C91.0818 93.2579 91.0508 93.2868 91.0008 93.2851L89.9115 93.2474C89.7916 93.2433 89.7192 93.3108 89.715 93.4308L89.6729 94.65C89.6687 94.77 89.7363 94.8423 89.8562 94.8465L90.9455 94.8842C90.9955 94.8859 91.0245 94.9169 91.0227 94.9669L90.9851 96.0562C90.9809 96.1762 91.0485 96.2485 91.1684 96.2527L92.3877 96.2948C92.5076 96.299 92.58 96.2314 92.5841 96.1115L92.6218 95.0222C92.6235 94.9722 92.6545 94.9433 92.7045 94.945L93.7938 94.9826C93.9138 94.9868 93.9862 94.9193 93.9903 94.7993L94.0325 93.5801C94.0366 93.4601 93.9691 93.3877 93.8491 93.3836ZM93.4345 105.376L92.3451 105.339C92.2951 105.337 92.2662 105.306 92.2679 105.256L92.3056 104.167C92.3097 104.047 92.2422 103.974 92.1223 103.97L90.903 103.928C90.7831 103.924 90.7107 103.991 90.7065 104.111L90.6689 105.201C90.6671 105.251 90.6361 105.28 90.5862 105.278L89.4968 105.24C89.3769 105.236 89.3045 105.304 89.3004 105.424L89.2582 106.643C89.254 106.763 89.3216 106.835 89.4415 106.839L90.5309 106.877C90.5808 106.879 90.6098 106.91 90.6081 106.96L90.5704 108.049C90.5662 108.169 90.6338 108.241 90.7537 108.246L91.973 108.288C92.0929 108.292 92.1653 108.224 92.1694 108.104L92.2071 107.015C92.2088 106.965 92.2398 106.936 92.2898 106.938L93.3792 106.975C93.4991 106.98 93.5715 106.912 93.5756 106.792L93.6178 105.573C93.6219 105.453 93.5544 105.381 93.4345 105.376ZM93.0198 117.369L91.9304 117.332C91.8805 117.33 91.8515 117.299 91.8532 117.249L91.8909 116.16C91.895 116.04 91.8275 115.967 91.7076 115.963L90.4883 115.921C90.3684 115.917 90.296 115.984 90.2919 116.104L90.2542 117.194C90.2525 117.244 90.2214 117.273 90.1715 117.271L89.0821 117.233C88.9622 117.229 88.8898 117.297 88.8857 117.416L88.8435 118.636C88.8394 118.756 88.9069 118.828 89.0268 118.832L90.1162 118.87C90.1662 118.872 90.1951 118.903 90.1934 118.953L90.1557 120.042C90.1516 120.162 90.2191 120.234 90.339 120.238L91.5583 120.281C91.6782 120.285 91.7506 120.217 91.7547 120.097L91.7924 119.008C91.7941 118.958 91.8252 118.929 91.8751 118.931L92.9645 118.968C93.0844 118.972 93.1568 118.905 93.1609 118.785L93.2031 117.566C93.2072 117.446 93.1397 117.373 93.0198 117.369ZM92.6051 129.362L91.5157 129.324C91.4658 129.323 91.4368 129.292 91.4386 129.242L91.4762 128.152C91.4804 128.032 91.4128 127.96 91.2929 127.956L90.0736 127.914C89.9537 127.91 89.8813 127.977 89.8772 128.097L89.8395 129.186C89.8378 129.236 89.8068 129.265 89.7568 129.264L88.6674 129.226C88.5475 129.222 88.4751 129.289 88.471 129.409L88.4288 130.629C88.4247 130.748 88.4922 130.821 88.6122 130.825L89.7015 130.863C89.7515 130.864 89.7804 130.895 89.7787 130.945L89.741 132.035C89.7369 132.155 89.8044 132.227 89.9243 132.231L91.1436 132.273C91.2635 132.277 91.3359 132.21 91.3401 132.09L91.3777 131.001C91.3795 130.951 91.4105 130.922 91.4605 130.923L92.5498 130.961C92.6697 130.965 92.7421 130.898 92.7463 130.778L92.7884 129.559C92.7926 129.439 92.725 129.366 92.6051 129.362Z" fill="#F15D3C"/>
<path d="M99.1924 97.3706C100.691 97.4225 101.722 96.5576 101.769 95.1884L101.771 95.1384C101.772 95.1084 101.712 95.0964 101.613 95.0829L100.775 95.0139C100.675 95.0005 100.613 95.0484 100.611 95.1183C100.584 95.8978 100.036 96.3992 99.2269 96.3712C98.4174 96.3432 97.8957 95.8049 97.9226 95.0254L98.0108 92.4769C98.0381 91.6873 98.5957 91.1863 99.4052 91.2143C100.215 91.2423 100.726 91.7803 100.699 92.5698L100.697 92.6298C100.696 92.6598 100.755 92.6918 100.855 92.6853L101.706 92.6647C101.807 92.6582 101.858 92.6199 101.861 92.55C101.907 91.2008 100.939 90.2667 99.4398 90.2149C97.9307 90.1627 96.8991 91.0576 96.8504 92.4668L96.7651 94.9353C96.7163 96.3445 97.6833 97.3184 99.1924 97.3706ZM102.997 97.4221L103.836 97.4512C103.936 97.4546 103.998 97.3967 104.002 97.2968L104.233 90.6208C104.236 90.5208 104.178 90.4588 104.078 90.4553L103.239 90.4263C103.139 90.4229 103.077 90.4807 103.073 90.5807L102.842 97.2567C102.839 97.3566 102.897 97.4187 102.997 97.4221ZM106.115 91.7765C106.555 91.7917 106.865 91.5023 106.88 91.0725C106.895 90.6528 106.605 90.3426 106.166 90.3274C105.726 90.3122 105.406 90.6013 105.391 91.021C105.376 91.4508 105.676 91.7613 106.115 91.7765ZM105.497 97.5086L106.336 97.5376C106.436 97.5411 106.498 97.4832 106.502 97.3832L106.667 92.5961C106.671 92.4962 106.613 92.4341 106.513 92.4307L105.674 92.4016C105.574 92.3982 105.512 92.4561 105.508 92.556L105.343 97.3431C105.339 97.4431 105.397 97.5051 105.497 97.5086ZM110.124 96.768C109.505 96.7466 109.085 96.4419 108.961 95.9674C108.925 95.8561 108.91 95.7055 108.916 95.5256C108.918 95.4856 108.938 95.4663 108.978 95.4677L112.077 95.5748C112.177 95.5782 112.239 95.5204 112.242 95.4204C112.242 95.1302 112.232 94.8497 112.2 94.5985C112.044 93.3223 111.422 92.5203 110.083 92.474C109.013 92.4371 108.203 93.0194 107.92 93.9502C107.82 94.2469 107.789 94.566 107.774 95.0058C107.758 95.4655 107.813 95.8877 107.931 96.2519C108.21 97.1321 108.901 97.7063 109.98 97.7437C110.86 97.7741 111.553 97.4178 111.953 96.8313C112.016 96.7434 111.989 96.6724 111.921 96.61L111.454 96.2137C111.376 96.1509 111.296 96.1682 111.233 96.256C111.002 96.5682 110.625 96.7653 110.124 96.768ZM110.038 93.4731C110.578 93.4918 110.927 93.804 111.031 94.2679C111.058 94.3589 111.064 94.4791 111.079 94.6297C111.077 94.6697 111.057 94.689 111.017 94.6876L109.008 94.6182C108.968 94.6168 108.949 94.5961 108.96 94.5565C108.976 94.3869 109.01 94.258 109.054 94.1395C109.189 93.7239 109.518 93.4551 110.038 93.4731ZM115.849 92.6734C115.319 92.6551 114.904 92.8108 114.601 93.1706C114.57 93.2095 114.54 93.1885 114.542 93.1385L114.551 92.8687C114.555 92.7688 114.497 92.7067 114.397 92.7033L113.558 92.6742C113.458 92.6708 113.396 92.7287 113.392 92.8286L113.227 97.6158C113.223 97.7157 113.281 97.7777 113.381 97.7812L114.221 97.8102C114.32 97.8137 114.382 97.7558 114.386 97.6558L114.49 94.6476C114.511 94.038 114.915 93.6417 115.485 93.6614C116.064 93.6815 116.43 94.1143 116.408 94.724L116.305 97.7222C116.301 97.8221 116.359 97.8842 116.459 97.8876L117.299 97.9167C117.399 97.9201 117.461 97.8622 117.464 97.7623L117.576 94.5242C117.614 93.4149 116.928 92.7107 115.849 92.6734ZM121.515 93.7299L121.537 93.1102C121.54 93.0103 121.482 92.9483 121.382 92.9448L120.413 92.9113C120.373 92.9099 120.354 92.8792 120.355 92.8492L120.394 91.7299C120.397 91.63 120.339 91.5679 120.239 91.5645L119.45 91.5372C119.35 91.5337 119.288 91.5916 119.284 91.6916L119.246 92.8109C119.244 92.8509 119.224 92.8702 119.184 92.8688L118.664 92.8508C118.564 92.8474 118.502 92.9052 118.499 93.0052L118.477 93.6248C118.474 93.7248 118.532 93.7868 118.632 93.7902L119.151 93.8082C119.191 93.8096 119.21 93.8403 119.209 93.8703L119.112 96.6686C119.086 97.7283 119.687 97.9892 120.646 98.0224C120.806 98.0279 120.967 98.0235 121.127 98.029C121.237 98.0228 121.289 97.9646 121.292 97.8646L121.315 97.195C121.319 97.0951 121.261 97.033 121.161 97.0296L120.901 97.0206C120.432 97.0044 120.219 96.7869 120.237 96.2672L120.318 93.9086C120.32 93.8686 120.341 93.8493 120.38 93.8507L121.35 93.8842C121.45 93.8877 121.512 93.8298 121.515 93.7299ZM124.617 97.2692C123.998 97.2478 123.578 96.9431 123.454 96.4685C123.418 96.3572 123.403 96.2066 123.41 96.0267C123.411 95.9867 123.432 95.9674 123.472 95.9688L126.57 96.0759C126.67 96.0794 126.732 96.0215 126.735 95.9216C126.735 95.6314 126.725 95.3509 126.694 95.0996C126.538 93.8235 125.915 93.0215 124.576 92.9752C123.506 92.9382 122.696 93.5205 122.414 94.4513C122.313 94.748 122.282 95.0672 122.267 95.5069C122.251 95.9666 122.307 96.3888 122.424 96.7531C122.704 97.6333 123.394 98.2075 124.474 98.2448C125.353 98.2752 126.046 97.9189 126.446 97.3324C126.509 97.2445 126.482 97.1735 126.414 97.1112L125.947 96.7148C125.87 96.6521 125.789 96.6693 125.726 96.7572C125.495 97.0694 125.118 97.2665 124.617 97.2692ZM124.531 93.9742C125.071 93.9929 125.42 94.3052 125.524 94.769C125.551 94.86 125.557 94.9803 125.572 95.1309C125.571 95.1709 125.55 95.1902 125.51 95.1888L123.501 95.1193C123.461 95.1179 123.442 95.0973 123.453 95.0576C123.469 94.8881 123.504 94.7592 123.548 94.6406C123.682 94.225 124.012 93.9563 124.531 93.9742ZM129.621 98.4028C130.85 98.4453 131.689 97.9139 131.722 96.9545C131.757 95.9551 130.838 95.6132 130.017 95.3446C129.354 95.1316 128.798 95.0123 128.812 94.6025C128.824 94.2428 129.201 94.0657 129.711 94.0833C130.31 94.104 130.65 94.3959 130.639 94.7257L130.637 94.7857C130.635 94.8257 130.695 94.8477 130.795 94.8512L131.564 94.8778C131.664 94.8813 131.726 94.8334 131.728 94.7634C131.759 93.8739 130.971 93.2163 129.742 93.1738C128.563 93.133 127.733 93.6847 127.7 94.6341C127.666 95.6136 128.545 95.9641 129.336 96.2316C129.988 96.4743 130.575 96.5646 130.561 96.9844C130.549 97.3142 130.181 97.5516 129.641 97.5329C129.062 97.5129 128.682 97.2096 128.693 96.8798L128.696 96.8098C128.697 96.7699 128.638 96.7378 128.538 96.7343L127.739 96.7067C127.639 96.7032 127.577 96.7611 127.573 96.8611L127.572 96.911C127.544 97.7206 128.342 98.3585 129.621 98.4028ZM98.2907 109.267L99.2102 109.298C99.3001 109.301 99.3615 109.264 99.3946 109.175L101.725 102.561C101.758 102.452 101.711 102.381 101.601 102.377L100.711 102.346C100.621 102.343 100.55 102.391 100.527 102.48L98.8792 107.586C98.8575 107.635 98.8175 107.634 98.7992 107.583L97.4988 102.365C97.4722 102.264 97.4133 102.232 97.3234 102.229L96.4139 102.197C96.304 102.194 96.2516 102.262 96.2778 102.373L98.1153 109.13C98.1422 109.221 98.2008 109.263 98.2907 109.267ZM104.185 108.57C103.566 108.548 103.146 108.244 103.022 107.769C102.986 107.658 102.971 107.507 102.978 107.327C102.979 107.287 103 107.268 103.04 107.269L106.138 107.377C106.238 107.38 106.3 107.322 106.303 107.222C106.303 106.932 106.293 106.652 106.262 106.4C106.106 105.124 105.483 104.322 104.144 104.276C103.074 104.239 102.264 104.821 101.982 105.752C101.881 106.049 101.85 106.368 101.835 106.808C101.819 107.267 101.874 107.689 101.992 108.054C102.272 108.934 102.962 109.508 104.042 109.545C104.921 109.576 105.614 109.22 106.014 108.633C106.077 108.545 106.05 108.474 105.982 108.412L105.515 108.015C105.438 107.953 105.357 107.97 105.294 108.058C105.063 108.37 104.686 108.567 104.185 108.57ZM104.099 105.275C104.639 105.294 104.988 105.606 105.092 106.07C105.119 106.161 105.125 106.281 105.14 106.432C105.139 106.472 105.118 106.491 105.078 106.489L103.069 106.42C103.029 106.419 103.01 106.398 103.021 106.358C103.037 106.189 103.072 106.06 103.116 105.941C103.25 105.526 103.58 105.257 104.099 105.275ZM109.91 104.475C109.381 104.457 108.965 104.613 108.662 104.972C108.631 105.011 108.602 104.99 108.603 104.94L108.613 104.671C108.616 104.571 108.558 104.509 108.458 104.505L107.619 104.476C107.519 104.473 107.457 104.531 107.453 104.63L107.288 109.418C107.284 109.518 107.342 109.58 107.442 109.583L108.282 109.612C108.382 109.615 108.444 109.558 108.447 109.458L108.551 106.449C108.572 105.84 108.976 105.444 109.546 105.463C110.126 105.483 110.491 105.916 110.47 106.526L110.366 109.524C110.363 109.624 110.421 109.686 110.52 109.689L111.36 109.718C111.46 109.722 111.522 109.664 111.525 109.564L111.637 106.326C111.676 105.217 110.99 104.513 109.91 104.475ZM116.053 103.037L115.98 105.155C115.978 105.205 115.938 105.214 115.909 105.173C115.64 104.853 115.277 104.661 114.787 104.644C113.797 104.61 113.129 105.127 112.81 105.976C112.677 106.332 112.613 106.74 112.598 107.19C112.582 107.649 112.627 108.071 112.734 108.445C112.995 109.305 113.645 109.878 114.605 109.911C115.094 109.928 115.481 109.751 115.762 109.43C115.794 109.381 115.833 109.403 115.831 109.453L115.822 109.713C115.819 109.813 115.877 109.875 115.977 109.878L116.816 109.907C116.916 109.911 116.978 109.853 116.982 109.753L117.212 103.077C117.216 102.977 117.158 102.915 117.058 102.911L116.219 102.882C116.119 102.879 116.057 102.937 116.053 103.037ZM115.615 108.465C115.425 108.758 115.169 108.92 114.82 108.908C114.44 108.894 114.156 108.714 113.997 108.399C113.846 108.113 113.78 107.721 113.796 107.251C113.814 106.732 113.928 106.325 114.128 106.042C114.317 105.778 114.592 105.638 114.942 105.65C115.272 105.661 115.516 105.83 115.676 106.115C115.837 106.401 115.903 106.804 115.885 107.313C115.869 107.793 115.785 108.2 115.615 108.465ZM120.351 104.836C119.202 104.797 118.363 105.338 118.216 106.123C118.203 106.193 118.261 106.245 118.361 106.258L119.257 106.399C119.356 106.413 119.408 106.375 119.441 106.276C119.551 105.989 119.867 105.82 120.347 105.837C120.976 105.858 121.265 106.179 121.248 106.688L121.24 106.918C121.239 106.958 121.218 106.977 121.178 106.976L120.118 106.939C118.789 106.894 118.018 107.487 117.983 108.517C117.946 109.566 118.69 110.052 119.62 110.084C120.219 110.105 120.715 109.942 121.077 109.614C121.118 109.586 121.147 109.597 121.146 109.647L121.137 109.896C121.133 109.996 121.191 110.058 121.291 110.062L122.131 110.091C122.231 110.094 122.293 110.036 122.296 109.937L122.411 106.609C122.445 105.629 121.641 104.881 120.351 104.836ZM119.971 109.176C119.491 109.159 119.13 108.916 119.145 108.477C119.162 107.977 119.621 107.723 120.321 107.747L121.15 107.776C121.19 107.777 121.209 107.798 121.208 107.838L121.192 108.297C121.173 108.847 120.601 109.197 119.971 109.176ZM125.351 110.262C126.581 110.305 127.42 109.773 127.453 108.814C127.487 107.815 126.569 107.473 125.747 107.204C125.084 106.991 124.528 106.872 124.542 106.462C124.555 106.102 124.931 105.925 125.441 105.943C126.04 105.964 126.38 106.255 126.369 106.585L126.367 106.645C126.366 106.685 126.425 106.707 126.525 106.711L127.294 106.737C127.394 106.741 127.456 106.693 127.458 106.623C127.489 105.733 126.701 105.076 125.472 105.033C124.293 104.993 123.463 105.544 123.43 106.494C123.397 107.473 124.275 107.824 125.066 108.091C125.718 108.334 126.305 108.424 126.291 108.844C126.28 109.174 125.911 109.411 125.371 109.392C124.792 109.372 124.412 109.069 124.423 108.739L124.426 108.669C124.427 108.629 124.368 108.597 124.268 108.594L123.469 108.566C123.369 108.563 123.307 108.621 123.303 108.721L123.302 108.771C123.274 109.58 124.072 110.218 125.351 110.262ZM98.2731 121.353C99.8121 121.406 100.779 120.649 100.819 119.48C100.864 118.201 99.7287 117.741 98.7228 117.316C97.588 116.857 97.1152 116.64 97.1363 116.031C97.1557 115.471 97.5865 115.166 98.326 115.191C99.2655 115.224 99.7572 115.761 99.7364 116.361L99.7326 116.471C99.7302 116.541 99.7885 116.593 99.8884 116.596L100.708 116.625C100.808 116.628 100.87 116.57 100.873 116.47L100.878 116.34C100.92 115.111 99.9296 114.246 98.4105 114.194C97.0014 114.145 96.0374 114.822 95.9963 116.011C95.9524 117.281 97.0169 117.748 98.1024 118.185C99.1673 118.642 99.679 118.89 99.659 119.47C99.6413 119.98 99.257 120.387 98.3976 120.357C97.4781 120.325 96.935 119.826 96.9554 119.236L96.9609 119.076C96.9644 118.977 96.9062 118.924 96.8062 118.921L95.9867 118.893C95.8868 118.889 95.8247 118.947 95.8213 119.047L95.814 119.257C95.7719 120.476 96.734 121.3 98.2731 121.353ZM104.132 120.575C103.512 120.554 103.093 120.249 102.969 119.775C102.933 119.663 102.918 119.513 102.924 119.333C102.925 119.293 102.946 119.273 102.986 119.275L106.084 119.382C106.184 119.385 106.246 119.328 106.25 119.228C106.25 118.937 106.239 118.657 106.208 118.406C106.052 117.129 105.429 116.327 104.09 116.281C103.021 116.244 102.21 116.827 101.928 117.757C101.828 118.054 101.797 118.373 101.781 118.813C101.765 119.273 101.821 119.695 101.938 120.059C102.218 120.939 102.909 121.513 103.988 121.551C104.868 121.581 105.56 121.225 105.961 120.638C106.024 120.551 105.996 120.48 105.928 120.417L105.462 120.021C105.384 119.958 105.303 119.975 105.24 120.063C105.009 120.375 104.632 120.572 104.132 120.575ZM104.046 117.28C104.585 117.299 104.935 117.611 105.039 118.075C105.066 118.166 105.072 118.286 105.086 118.437C105.085 118.477 105.064 118.496 105.024 118.495L103.015 118.425C102.976 118.424 102.956 118.403 102.968 118.364C102.983 118.194 103.018 118.065 103.062 117.947C103.197 117.531 103.526 117.262 104.046 117.28ZM110.528 116.744L110.522 116.924C110.52 116.974 110.489 116.993 110.451 116.951C110.181 116.662 109.797 116.478 109.247 116.459C108.348 116.428 107.649 116.955 107.362 117.735C107.22 118.09 107.174 118.529 107.158 118.999C107.143 119.429 107.159 119.849 107.246 120.213C107.512 121.192 108.359 121.592 109.139 121.619C109.678 121.637 110.044 121.48 110.303 121.229C110.344 121.19 110.374 121.211 110.372 121.261L110.37 121.321C110.332 122.411 109.672 122.678 108.387 122.523C108.277 122.51 108.206 122.557 108.202 122.657L108.147 123.396C108.143 123.506 108.181 123.567 108.28 123.58C109.864 123.785 111.458 123.43 111.528 121.391L111.687 116.784C111.691 116.684 111.633 116.622 111.533 116.619L110.693 116.59C110.594 116.586 110.531 116.644 110.528 116.744ZM110.346 119.99C110.232 120.386 109.911 120.695 109.371 120.676C108.852 120.658 108.513 120.326 108.397 119.912C108.342 119.76 108.312 119.479 108.327 119.039C108.342 118.619 108.391 118.351 108.478 118.164C108.632 117.759 108.963 117.45 109.472 117.468C109.992 117.486 110.311 117.807 110.397 118.23C110.45 118.432 110.465 118.573 110.446 119.103C110.428 119.642 110.402 119.801 110.346 119.99ZM115.903 116.93L115.799 119.928C115.778 120.548 115.374 120.944 114.774 120.923C114.175 120.902 113.859 120.481 113.881 119.862L113.984 116.863C113.988 116.763 113.93 116.701 113.83 116.698L112.99 116.669C112.89 116.666 112.828 116.723 112.825 116.823L112.71 120.151C112.671 121.281 113.491 121.869 114.44 121.902C115 121.922 115.406 121.755 115.677 121.435C115.709 121.386 115.748 121.407 115.747 121.457L115.738 121.717C115.734 121.817 115.792 121.879 115.892 121.882L116.721 121.911C116.821 121.914 116.883 121.857 116.887 121.757L117.052 116.97C117.056 116.87 116.998 116.808 116.898 116.804L116.069 116.775C115.969 116.772 115.907 116.83 115.903 116.93ZM120.678 116.875C120.158 116.857 119.77 117.084 119.497 117.464C119.465 117.513 119.436 117.492 119.438 117.442L119.451 117.052C119.455 116.953 119.397 116.89 119.297 116.887L118.457 116.858C118.357 116.855 118.295 116.912 118.292 117.012L118.126 121.8C118.123 121.899 118.181 121.961 118.281 121.965L119.12 121.994C119.22 121.997 119.282 121.94 119.286 121.84L119.382 119.051C119.403 118.442 119.856 118.087 120.396 118.076C120.597 118.053 120.776 118.079 120.905 118.123C121.014 118.157 121.075 118.139 121.098 118.03L121.287 117.206C121.31 117.117 121.282 117.046 121.204 117.003C121.076 116.939 120.918 116.883 120.678 116.875ZM123.958 116.968C122.808 116.928 121.969 117.47 121.822 118.255C121.809 118.325 121.868 118.377 121.967 118.39L122.863 118.531C122.963 118.545 123.014 118.506 123.047 118.408C123.157 118.121 123.473 117.952 123.953 117.969C124.583 117.99 124.872 118.311 124.854 118.82L124.846 119.05C124.845 119.09 124.824 119.109 124.784 119.108L123.725 119.071C122.396 119.025 121.625 119.619 121.589 120.648C121.553 121.698 122.296 122.184 123.226 122.216C123.826 122.237 124.321 122.074 124.683 121.746C124.724 121.717 124.754 121.728 124.752 121.778L124.743 122.028C124.74 122.128 124.798 122.19 124.898 122.194L125.737 122.223C125.837 122.226 125.899 122.168 125.903 122.068L126.018 118.74C126.052 117.761 125.247 117.013 123.958 116.968ZM123.577 121.308C123.098 121.291 122.736 121.048 122.751 120.609C122.768 120.109 123.227 119.855 123.927 119.879L124.757 119.908C124.797 119.909 124.816 119.93 124.814 119.97L124.799 120.429C124.78 120.979 124.207 121.329 123.577 121.308ZM129.679 117.166C129.149 117.148 128.734 117.303 128.431 117.663C128.4 117.702 128.37 117.681 128.372 117.631L128.381 117.361C128.385 117.261 128.327 117.199 128.227 117.196L127.387 117.167C127.288 117.163 127.225 117.221 127.222 117.321L127.056 122.108C127.053 122.208 127.111 122.27 127.211 122.274L128.05 122.303C128.15 122.306 128.212 122.248 128.216 122.148L128.32 119.14C128.341 118.531 128.745 118.134 129.314 118.154C129.894 118.174 130.259 118.607 130.238 119.217L130.135 122.215C130.131 122.315 130.189 122.377 130.289 122.38L131.129 122.409C131.228 122.413 131.291 122.355 131.294 122.255L131.406 119.017C131.444 117.907 130.758 117.203 129.679 117.166ZM135.682 120.936C135.557 121.362 135.157 121.628 134.648 121.61C134.118 121.592 133.779 121.28 133.665 120.816C133.621 120.624 133.591 120.333 133.605 119.923C133.619 119.534 133.67 119.225 133.736 119.037C133.871 118.602 134.241 118.324 134.761 118.342C135.3 118.361 135.679 118.694 135.756 119.087L135.781 119.218C135.798 119.309 135.856 119.361 135.957 119.344L136.791 119.243C136.891 119.226 136.943 119.178 136.927 119.068C136.919 118.997 136.913 118.897 136.877 118.786C136.663 118.008 135.865 117.38 134.795 117.343C133.766 117.307 132.947 117.829 132.637 118.699C132.527 118.985 132.454 119.353 132.436 119.873C132.421 120.333 132.447 120.734 132.555 121.078C132.779 121.826 133.341 122.366 134.115 122.542C134.145 122.554 134.164 122.564 134.184 122.575C134.524 122.877 134.734 123.174 134.664 123.442C134.596 123.68 134.364 123.742 134.116 123.673C134.007 123.649 133.945 123.687 133.922 123.787L133.861 124.095C133.848 124.184 133.876 124.255 133.965 124.288C134.41 124.434 135.199 124.481 135.413 123.788C135.515 123.431 135.409 123.037 135.041 122.665C135.003 122.633 135.014 122.594 135.064 122.595C135.888 122.484 136.545 122.016 136.79 121.294C136.812 121.225 136.825 121.155 136.837 121.096C136.86 120.996 136.812 120.935 136.713 120.911L135.888 120.753C135.789 120.729 135.705 120.836 135.693 120.886C135.693 120.886 135.693 120.906 135.682 120.936ZM139.925 117.52C138.775 117.481 137.936 118.022 137.789 118.807C137.777 118.877 137.835 118.929 137.934 118.942L138.83 119.083C138.93 119.097 138.981 119.059 139.014 118.96C139.124 118.673 139.44 118.504 139.92 118.521C140.55 118.542 140.839 118.863 140.821 119.372L140.813 119.602C140.812 119.642 140.791 119.661 140.751 119.66L139.692 119.623C138.363 119.577 137.592 120.171 137.556 121.201C137.52 122.25 138.263 122.736 139.193 122.768C139.793 122.789 140.288 122.626 140.65 122.298C140.691 122.27 140.721 122.281 140.719 122.331L140.71 122.58C140.707 122.68 140.765 122.742 140.865 122.746L141.704 122.775C141.804 122.778 141.866 122.72 141.87 122.62L141.985 119.292C142.019 118.313 141.214 117.565 139.925 117.52ZM139.544 121.86C139.065 121.843 138.703 121.6 138.718 121.161C138.735 120.661 139.194 120.407 139.894 120.431L140.724 120.46C140.764 120.461 140.783 120.482 140.781 120.522L140.766 120.981C140.747 121.531 140.174 121.881 139.544 121.86ZM99.5701 133.325L100.45 133.356C100.57 133.36 100.622 133.281 100.576 133.17L99.2957 130.264C99.2768 130.233 99.2882 130.194 99.3285 130.185C100.156 129.973 100.689 129.321 100.721 128.392C100.763 127.173 99.9623 126.325 98.723 126.282L96.0146 126.188C95.9147 126.185 95.8526 126.242 95.8492 126.342L95.618 133.028C95.6146 133.128 95.6724 133.19 95.7724 133.194L96.6119 133.223C96.7118 133.226 96.7739 133.168 96.7773 133.068L96.8741 130.27C96.8755 130.23 96.9061 130.211 96.9361 130.212L98.1054 130.253C98.1354 130.254 98.165 130.265 98.174 130.295L99.3844 133.199C99.4212 133.29 99.4802 133.322 99.5701 133.325ZM97.0394 127.224L98.5285 127.276C99.1682 127.298 99.583 127.742 99.5613 128.372C99.5402 128.982 99.0959 129.386 98.4563 129.364L96.9672 129.313C96.9272 129.311 96.9079 129.291 96.9093 129.251L96.9774 127.282C96.9788 127.242 96.9995 127.223 97.0394 127.224ZM103.893 132.574C103.273 132.553 102.854 132.248 102.73 131.773C102.694 131.662 102.679 131.512 102.685 131.332C102.686 131.292 102.707 131.272 102.747 131.274L105.845 131.381C105.945 131.384 106.007 131.326 106.011 131.226C106.011 130.936 106 130.656 105.969 130.405C105.813 129.128 105.19 128.326 103.851 128.28C102.782 128.243 101.971 128.825 101.689 129.756C101.589 130.053 101.558 130.372 101.542 130.812C101.526 131.272 101.582 131.694 101.699 132.058C101.979 132.938 102.67 133.512 103.749 133.55C104.629 133.58 105.321 133.224 105.722 132.637C105.785 132.549 105.757 132.478 105.689 132.416L105.223 132.02C105.145 131.957 105.064 131.974 105.001 132.062C104.77 132.374 104.393 132.571 103.893 132.574ZM103.807 129.279C104.346 129.298 104.696 129.61 104.8 130.074C104.827 130.165 104.833 130.285 104.847 130.436C104.846 130.476 104.825 130.495 104.785 130.494L102.776 130.424C102.737 130.423 102.717 130.402 102.729 130.363C102.744 130.193 102.779 130.064 102.823 129.946C102.958 129.53 103.287 129.261 103.807 129.279ZM108.897 133.708C110.126 133.75 110.965 133.219 110.998 132.259C111.032 131.26 110.114 130.918 109.293 130.65C108.629 130.436 108.073 130.317 108.087 129.907C108.1 129.548 108.476 129.371 108.986 129.388C109.586 129.409 109.926 129.701 109.914 130.031L109.912 130.091C109.911 130.131 109.97 130.153 110.07 130.156L110.84 130.183C110.94 130.186 111.001 130.138 111.004 130.068C111.034 129.179 110.247 128.521 109.017 128.479C107.838 128.438 107.009 128.99 106.976 129.939C106.942 130.918 107.82 131.269 108.611 131.537C109.263 131.779 109.851 131.87 109.836 132.289C109.825 132.619 109.456 132.857 108.917 132.838C108.337 132.818 107.957 132.515 107.969 132.185L107.971 132.115C107.972 132.075 107.914 132.043 107.814 132.039L107.014 132.012C106.914 132.008 106.852 132.066 106.849 132.166L106.847 132.216C106.819 133.025 107.617 133.663 108.897 133.708ZM116.397 130.115C116.136 129.255 115.486 128.682 114.526 128.649C114.036 128.632 113.65 128.809 113.369 129.129C113.337 129.178 113.298 129.157 113.3 129.107L113.309 128.847C113.312 128.747 113.254 128.685 113.154 128.682L112.315 128.653C112.215 128.649 112.153 128.707 112.149 128.807L111.918 135.483C111.915 135.583 111.973 135.645 112.073 135.649L112.912 135.678C113.012 135.681 113.074 135.623 113.078 135.523L113.151 133.405C113.153 133.355 113.193 133.346 113.222 133.387C113.491 133.706 113.854 133.899 114.344 133.916C115.333 133.95 116.002 133.433 116.321 132.584C116.454 132.228 116.518 131.82 116.533 131.37C116.549 130.91 116.504 130.489 116.397 130.115ZM115.003 132.518C114.814 132.782 114.539 132.922 114.189 132.91C113.859 132.899 113.615 132.73 113.454 132.444C113.294 132.159 113.228 131.756 113.246 131.246C113.262 130.767 113.346 130.359 113.516 130.095C113.706 129.802 113.962 129.64 114.311 129.652C114.691 129.666 114.975 129.845 115.134 130.161C115.285 130.446 115.351 130.839 115.335 131.309C115.317 131.828 115.203 132.235 115.003 132.518ZM119.648 134.099C120.677 134.135 121.486 133.593 121.819 132.654C121.94 132.328 122.015 131.91 122.028 131.52C122.042 131.12 121.997 130.699 121.888 130.375C121.61 129.444 120.859 128.868 119.84 128.833C118.771 128.796 117.952 129.318 117.62 130.237C117.509 130.543 117.435 130.961 117.421 131.371C117.407 131.771 117.452 132.192 117.551 132.516C117.809 133.466 118.598 134.063 119.648 134.099ZM119.682 133.1C119.163 133.082 118.793 132.769 118.661 132.264C118.608 132.052 118.579 131.731 118.59 131.421C118.601 131.091 118.651 130.793 118.719 130.585C118.886 130.091 119.266 129.814 119.775 129.831C120.285 129.849 120.655 130.152 120.787 130.657C120.84 130.869 120.87 131.17 120.858 131.5C120.848 131.8 120.807 132.108 120.719 132.335C120.552 132.83 120.172 133.117 119.682 133.1ZM125.663 129.034C125.133 129.016 124.717 129.172 124.415 129.531C124.384 129.57 124.354 129.549 124.356 129.499L124.365 129.23C124.369 129.13 124.311 129.068 124.211 129.064L123.371 129.035C123.271 129.032 123.209 129.09 123.206 129.189L123.04 133.977C123.037 134.077 123.095 134.139 123.195 134.142L124.034 134.171C124.134 134.175 124.196 134.117 124.2 134.017L124.304 131.008C124.325 130.399 124.729 130.003 125.298 130.022C125.878 130.042 126.243 130.475 126.222 131.085L126.119 134.083C126.115 134.183 126.173 134.245 126.273 134.248L127.112 134.278C127.212 134.281 127.274 134.223 127.278 134.123L127.39 130.885C127.428 129.776 126.742 129.072 125.663 129.034ZM130.378 134.45C131.607 134.493 132.446 133.962 132.479 133.002C132.514 132.003 131.595 131.661 130.774 131.392C130.111 131.179 129.555 131.06 129.569 130.65C129.581 130.29 129.958 130.113 130.467 130.131C131.067 130.152 131.407 130.444 131.396 130.773L131.394 130.833C131.392 130.873 131.451 130.895 131.551 130.899L132.321 130.925C132.421 130.929 132.483 130.881 132.485 130.811C132.516 129.922 131.728 129.264 130.499 129.221C129.319 129.181 128.49 129.732 128.457 130.682C128.423 131.661 129.302 132.012 130.093 132.279C130.745 132.522 131.332 132.612 131.317 133.032C131.306 133.362 130.938 133.599 130.398 133.581C129.818 133.561 129.439 133.257 129.45 132.927L129.452 132.858C129.454 132.818 129.395 132.785 129.295 132.782L128.495 132.754C128.395 132.751 128.333 132.809 128.33 132.909L128.328 132.959C128.3 133.768 129.099 134.406 130.378 134.45ZM134.268 128.771C134.708 128.787 135.018 128.497 135.033 128.067C135.047 127.648 134.758 127.338 134.318 127.322C133.878 127.307 133.558 127.596 133.544 128.016C133.529 128.446 133.828 128.756 134.268 128.771ZM133.649 134.504L134.489 134.533C134.589 134.536 134.651 134.478 134.654 134.378L134.82 129.591C134.823 129.491 134.765 129.429 134.666 129.426L133.826 129.397C133.726 129.393 133.664 129.451 133.661 129.551L133.495 134.338C133.492 134.438 133.549 134.5 133.649 134.504ZM137.376 134.632L138.345 134.666C138.435 134.669 138.497 134.631 138.53 134.542L140.264 129.809C140.308 129.701 140.251 129.629 140.141 129.625L139.202 129.582C139.112 129.579 139.05 129.617 139.017 129.716L137.953 132.991C137.931 133.041 137.891 133.039 137.873 132.989L137.038 129.638C137.012 129.547 136.953 129.505 136.863 129.502L135.924 129.469C135.814 129.465 135.752 129.523 135.787 129.645L137.201 134.496C137.228 134.587 137.286 134.629 137.376 134.632ZM141.851 129.034C142.291 129.049 142.601 128.759 142.616 128.33C142.631 127.91 142.341 127.6 141.901 127.585C141.462 127.569 141.141 127.858 141.127 128.278C141.112 128.708 141.412 129.018 141.851 129.034ZM141.233 134.766L142.072 134.795C142.172 134.798 142.234 134.74 142.238 134.64L142.403 129.853C142.407 129.753 142.349 129.691 142.249 129.688L141.409 129.659C141.309 129.655 141.247 129.713 141.244 129.813L141.078 134.6C141.075 134.7 141.133 134.762 141.233 134.766ZM146.875 128.117L146.801 130.235C146.8 130.285 146.759 130.294 146.731 130.253C146.462 129.934 146.098 129.741 145.608 129.724C144.619 129.69 143.951 130.207 143.631 131.056C143.499 131.412 143.435 131.82 143.419 132.27C143.403 132.73 143.449 133.151 143.556 133.525C143.816 134.385 144.467 134.958 145.426 134.991C145.916 135.008 146.302 134.831 146.584 134.511C146.615 134.462 146.655 134.483 146.653 134.533L146.644 134.793C146.64 134.893 146.698 134.955 146.798 134.958L147.638 134.987C147.738 134.991 147.8 134.933 147.803 134.833L148.034 128.157C148.038 128.057 147.98 127.995 147.88 127.991L147.04 127.962C146.94 127.959 146.878 128.017 146.875 128.117ZM146.437 133.545C146.247 133.838 145.991 134 145.641 133.988C145.261 133.974 144.977 133.795 144.818 133.479C144.668 133.194 144.602 132.801 144.618 132.331C144.636 131.812 144.75 131.405 144.95 131.122C145.139 130.858 145.414 130.718 145.764 130.73C146.094 130.741 146.338 130.91 146.498 131.196C146.658 131.481 146.724 131.884 146.707 132.393C146.69 132.873 146.606 133.281 146.437 133.545ZM151.173 129.916C150.024 129.877 149.184 130.418 149.037 131.203C149.025 131.273 149.083 131.325 149.183 131.338L150.078 131.479C150.178 131.493 150.229 131.455 150.263 131.356C150.373 131.069 150.689 130.9 151.168 130.917C151.798 130.939 152.087 131.259 152.069 131.768L152.062 131.998C152.06 132.038 152.039 132.058 151.999 132.056L150.94 132.02C149.611 131.974 148.84 132.567 148.804 133.597C148.768 134.646 149.512 135.132 150.441 135.164C151.041 135.185 151.537 135.022 151.898 134.694C151.939 134.666 151.969 134.677 151.967 134.727L151.959 134.977C151.955 135.076 152.013 135.138 152.113 135.142L152.952 135.171C153.052 135.174 153.114 135.117 153.118 135.017L153.233 131.689C153.267 130.709 152.462 129.961 151.173 129.916ZM150.793 134.256C150.313 134.239 149.951 133.997 149.966 133.557C149.984 133.057 150.443 132.803 151.142 132.827L151.972 132.856C152.012 132.857 152.031 132.878 152.03 132.918L152.014 133.377C151.995 133.927 151.422 134.278 150.793 134.256ZM157.601 128.488L157.528 130.606C157.526 130.656 157.485 130.665 157.457 130.624C157.188 130.304 156.824 130.112 156.334 130.095C155.345 130.061 154.677 130.578 154.357 131.427C154.225 131.783 154.161 132.191 154.145 132.641C154.129 133.1 154.175 133.522 154.282 133.896C154.542 134.756 155.193 135.329 156.152 135.362C156.642 135.379 157.028 135.202 157.31 134.881C157.341 134.832 157.381 134.854 157.379 134.904L157.37 135.164C157.366 135.264 157.424 135.326 157.524 135.329L158.364 135.358C158.464 135.362 158.526 135.304 158.529 135.204L158.76 128.528C158.764 128.428 158.706 128.366 158.606 128.362L157.766 128.333C157.666 128.33 157.604 128.388 157.601 128.488ZM157.163 133.916C156.973 134.209 156.717 134.371 156.367 134.358C155.987 134.345 155.703 134.165 155.544 133.85C155.394 133.564 155.328 133.172 155.344 132.702C155.362 132.182 155.476 131.776 155.676 131.493C155.865 131.229 156.14 131.089 156.49 131.101C156.82 131.112 157.064 131.281 157.224 131.566C157.384 131.852 157.451 132.255 157.433 132.764C157.416 133.244 157.332 133.651 157.163 133.916ZM162.091 134.586C161.471 134.565 161.051 134.26 160.927 133.786C160.891 133.674 160.877 133.524 160.883 133.344C160.884 133.304 160.905 133.285 160.945 133.286L164.043 133.393C164.143 133.397 164.205 133.339 164.208 133.239C164.208 132.949 164.198 132.668 164.167 132.417C164.011 131.141 163.388 130.339 162.049 130.292C160.98 130.255 160.169 130.838 159.887 131.769C159.786 132.065 159.755 132.384 159.74 132.824C159.724 133.284 159.78 133.706 159.897 134.07C160.177 134.951 160.867 135.525 161.947 135.562C162.826 135.592 163.519 135.236 163.919 134.65C163.982 134.562 163.955 134.491 163.887 134.428L163.42 134.032C163.343 133.969 163.262 133.987 163.199 134.074C162.968 134.387 162.591 134.584 162.091 134.586ZM162.004 131.291C162.544 131.31 162.893 131.622 162.997 132.086C163.024 132.177 163.03 132.298 163.045 132.448C163.044 132.488 163.023 132.507 162.983 132.506L160.974 132.437C160.934 132.435 160.915 132.414 160.926 132.375C160.942 132.205 160.977 132.076 161.021 131.958C161.155 131.542 161.485 131.274 162.004 131.291Z" fill="#333333"/>
<path d="M97.0045 57.4221C98.9539 57.4718 100.283 56.3353 100.329 54.5549L100.33 54.4899C100.331 54.4509 100.254 54.4359 100.124 54.4196L99.0337 54.3398C98.9041 54.3235 98.8244 54.3865 98.8221 54.4775C98.7963 55.4911 98.0903 56.1494 97.0376 56.1225C95.985 56.0957 95.3004 55.4021 95.3263 54.3884L95.4107 51.0745C95.4369 50.0478 96.1559 49.3899 97.2085 49.4167C98.2612 49.4435 98.9327 50.1369 98.9066 51.1635L98.9046 51.2415C98.9036 51.2805 98.9806 51.3215 99.1109 51.3118L100.217 51.275C100.347 51.2653 100.414 51.2149 100.416 51.124C100.461 49.3695 99.191 48.1668 97.2416 48.1171C95.2793 48.0671 93.9489 49.2426 93.9022 51.075L93.8204 54.285C93.7737 56.1174 95.0422 57.3721 97.0045 57.4221ZM105.086 50.7748C104.397 50.7573 103.858 50.9646 103.469 51.4359C103.429 51.4868 103.391 51.4599 103.392 51.3949L103.464 48.5878C103.467 48.4578 103.391 48.3779 103.261 48.3746L102.17 48.3467C102.04 48.3434 101.96 48.4194 101.956 48.5494L101.735 57.2306C101.732 57.3605 101.808 57.4405 101.938 57.4438L103.029 57.4716C103.159 57.4749 103.239 57.3989 103.243 57.269L103.342 53.3572C103.363 52.5645 103.883 52.0446 104.624 52.0635C105.377 52.0827 105.857 52.6411 105.837 53.4338L105.738 57.3326C105.735 57.4625 105.81 57.5425 105.94 57.5458L107.032 57.5736C107.162 57.5769 107.242 57.5009 107.245 57.371L107.353 53.1603C107.389 51.7178 106.489 50.8106 105.086 50.7748ZM111.805 56.5248C110.999 56.5043 110.45 56.1132 110.283 55.4978C110.235 55.3535 110.214 55.1579 110.22 54.924C110.221 54.872 110.248 54.8466 110.3 54.848L114.329 54.9506C114.459 54.9539 114.538 54.878 114.542 54.748C114.538 54.3708 114.522 54.0062 114.478 53.68C114.26 52.0229 113.441 50.9877 111.7 50.9434C110.309 50.9079 109.262 51.6745 108.906 52.8878C108.779 53.2747 108.743 53.6899 108.728 54.2617C108.713 54.8595 108.79 55.4077 108.947 55.8798C109.321 57.0207 110.226 57.759 111.629 57.7948C112.773 57.8239 113.669 57.3526 114.183 56.5854C114.264 56.4705 114.227 56.3785 114.138 56.2982L113.527 55.7885C113.425 55.7079 113.32 55.7312 113.239 55.8462C112.943 56.2548 112.455 56.5154 111.805 56.5248ZM111.654 52.2426C112.355 52.2605 112.813 52.6623 112.954 53.2641C112.99 53.382 112.999 53.5383 113.02 53.7339C113.019 53.7859 112.992 53.8112 112.94 53.8099L110.328 53.7433C110.276 53.742 110.251 53.7153 110.265 53.6637C110.284 53.4431 110.327 53.2751 110.383 53.1205C110.553 52.5787 110.978 52.2254 111.654 52.2426ZM118.608 57.9726C119.946 58.0067 121.056 57.3458 121.422 56.2367C121.45 56.1464 121.466 56.0558 121.481 55.9782C121.51 55.8489 121.447 55.7692 121.318 55.7399L120.243 55.5435C120.114 55.5142 120.006 55.6545 119.992 55.7191C119.992 55.7191 119.991 55.7451 119.977 55.7838C119.82 56.339 119.304 56.6899 118.641 56.673C117.952 56.6555 117.507 56.254 117.354 55.6519C117.295 55.4033 117.253 55.0251 117.266 54.4923C117.279 53.9855 117.341 53.5839 117.426 53.339C117.596 52.7712 118.074 52.4062 118.749 52.4234C119.451 52.4413 119.947 52.8701 120.051 53.3799L120.086 53.5498C120.109 53.6675 120.185 53.7344 120.316 53.7117L121.399 53.5703C121.53 53.5476 121.596 53.4843 121.574 53.3407C121.563 53.2494 121.553 53.1191 121.505 52.9748C121.219 51.9662 120.173 51.1593 118.782 51.1238C117.444 51.0897 116.386 51.778 115.993 52.9124C115.853 53.2859 115.763 53.7648 115.746 54.4406C115.731 55.0384 115.769 55.5595 115.914 56.0054C116.262 57.1716 117.269 57.9385 118.608 57.9726ZM122.954 57.9793L124.046 58.0072C124.176 58.0105 124.256 57.9345 124.259 57.8045L124.309 55.8682C124.31 55.8292 124.323 55.8165 124.35 55.7782L125.394 54.6214C125.434 54.5834 125.473 54.5714 125.497 54.637L126.818 57.9217C126.854 58.0267 126.931 58.0807 127.048 58.0837L128.205 58.1131C128.361 58.1171 128.428 58.0278 128.367 57.8702L126.549 53.6885C126.537 53.6492 126.538 53.6102 126.564 53.5849L128.211 51.7282C128.332 51.6013 128.257 51.4693 128.088 51.465L126.84 51.4332C126.736 51.4306 126.644 51.4672 126.577 51.5435L124.453 53.7782C124.413 53.8291 124.361 53.8018 124.363 53.7368L124.48 49.1233C124.484 48.9934 124.408 48.9134 124.278 48.9101L123.186 48.8823C123.056 48.879 122.976 48.955 122.973 49.0849L122.752 57.7661C122.748 57.8961 122.824 57.976 122.954 57.9793ZM129.757 58.1527L130.849 58.1805C130.979 58.1838 131.059 58.1078 131.062 57.9779L131.283 49.2967C131.287 49.1667 131.211 49.0868 131.081 49.0835L129.989 49.0556C129.859 49.0523 129.779 49.1283 129.776 49.2583L129.555 57.9395C129.551 58.0694 129.627 58.1494 129.757 58.1527ZM133.744 50.7769C134.316 50.7914 134.716 50.4115 134.73 49.8527C134.744 49.3069 134.364 48.9071 133.792 48.8925C133.221 48.8779 132.808 49.2575 132.794 49.8033C132.78 50.3622 133.173 50.7623 133.744 50.7769ZM133.008 58.2355L134.1 58.2634C134.23 58.2667 134.31 58.1907 134.313 58.0607L134.472 51.8357C134.475 51.7058 134.399 51.6258 134.269 51.6225L133.177 51.5947C133.047 51.5914 132.968 51.6674 132.964 51.7973L132.806 58.0223C132.802 58.1523 132.878 58.2322 133.008 58.2355ZM138.489 58.4532C140.087 58.494 141.172 57.7933 141.203 56.5458C141.237 55.2462 140.038 54.8125 138.967 54.4731C138.103 54.204 137.379 54.0555 137.392 53.5227C137.404 53.0548 137.891 52.8202 138.554 52.8371C139.334 52.8569 139.779 53.2324 139.768 53.6613L139.766 53.7392C139.765 53.7912 139.842 53.8192 139.972 53.8225L140.973 53.848C141.103 53.8513 141.183 53.7883 141.185 53.6974C141.214 52.5407 140.183 51.6952 138.584 51.6544C137.051 51.6154 135.979 52.3423 135.947 53.5769C135.915 54.8505 137.061 55.2958 138.093 55.6342C138.943 55.942 139.707 56.0525 139.694 56.5983C139.683 57.0272 139.207 57.3401 138.505 57.3223C137.751 57.3031 137.254 56.9133 137.265 56.4844L137.267 56.3934C137.268 56.3414 137.191 56.3005 137.061 56.2972L136.022 56.2707C135.892 56.2674 135.812 56.3433 135.809 56.4733L135.807 56.5383C135.78 57.5909 136.825 58.4108 138.489 58.4532ZM146.083 52.9379L146.104 52.1321C146.107 52.0022 146.031 51.9222 145.901 51.9189L144.64 51.8868C144.588 51.8855 144.563 51.8458 144.564 51.8068L144.601 50.3513C144.605 50.2213 144.529 50.1414 144.399 50.1381L143.372 50.1119C143.242 50.1086 143.162 50.1846 143.159 50.3145L143.122 51.7701C143.121 51.8221 143.094 51.8474 143.042 51.8461L142.366 51.8288C142.236 51.8255 142.156 51.9015 142.153 52.0315L142.132 52.8372C142.129 52.9672 142.205 53.0471 142.335 53.0504L143.011 53.0677C143.063 53.069 143.088 53.1086 143.087 53.1476L142.994 56.7864C142.972 58.1643 143.757 58.4964 145.004 58.5282C145.212 58.5335 145.42 58.5258 145.628 58.5311C145.772 58.5218 145.839 58.4454 145.842 58.3155L145.864 57.4448C145.867 57.3148 145.791 57.2349 145.662 57.2315L145.324 57.2229C144.713 57.2074 144.434 56.9272 144.451 56.2514L144.529 53.1844C144.531 53.1324 144.557 53.1071 144.609 53.1084L145.87 53.1405C146 53.1438 146.08 53.0678 146.083 52.9379ZM154.135 49.879L154.065 52.6341C154.064 52.6991 154.011 52.7108 153.974 52.6578C153.62 52.2457 153.145 51.9995 152.508 51.9833C151.222 51.9505 150.359 52.6307 149.954 53.7387C149.786 54.2026 149.707 54.7338 149.692 55.3186C149.677 55.9164 149.741 56.4642 149.885 56.949C150.234 58.0633 151.086 58.8002 152.334 58.832C152.971 58.8483 153.471 58.6139 153.833 58.194C153.873 58.13 153.924 58.1573 153.923 58.2223L153.914 58.5602C153.911 58.6902 153.987 58.7701 154.117 58.7734L155.208 58.8012C155.338 58.8046 155.418 58.7286 155.422 58.5986L155.643 49.9174C155.646 49.7875 155.57 49.7075 155.44 49.7042L154.349 49.6764C154.219 49.6731 154.139 49.7491 154.135 49.879ZM153.63 56.9404C153.387 57.3244 153.056 57.537 152.601 57.5254C152.107 57.5128 151.736 57.2823 151.525 56.8738C151.327 56.5046 151.236 55.9951 151.251 55.3843C151.268 54.7086 151.412 54.179 151.669 53.8085C151.911 53.4635 152.267 53.2775 152.722 53.2891C153.151 53.3 153.471 53.5163 153.682 53.8858C153.894 54.2553 153.985 54.7778 153.968 55.4405C153.952 56.0643 153.847 56.5949 153.63 56.9404ZM159.868 59.024C161.207 59.0581 162.253 58.3435 162.674 57.1189C162.828 56.6937 162.92 56.1498 162.933 55.643C162.946 55.1232 162.882 54.5753 162.736 54.1555C162.364 52.9496 161.382 52.2094 160.056 52.1756C158.665 52.1401 157.608 52.8284 157.187 54.0271C157.047 54.4267 156.955 54.9705 156.941 55.5033C156.928 56.0231 156.992 56.571 157.124 56.9905C157.47 58.2217 158.504 58.9893 159.868 59.024ZM159.902 57.7245C159.226 57.7072 158.742 57.3048 158.564 56.65C158.493 56.3751 158.451 55.9579 158.461 55.5551C158.472 55.1262 158.534 54.7376 158.619 54.4667C158.831 53.8219 159.321 53.4573 159.984 53.4742C160.647 53.4911 161.131 53.8805 161.309 54.5353C161.38 54.8102 161.422 55.2014 161.411 55.6302C161.401 56.0201 161.352 56.422 161.241 56.7182C161.029 57.3631 160.538 57.7407 159.902 57.7245ZM100.866 66.6335C100.086 66.6136 99.3893 66.921 98.9682 67.6255C98.9409 67.6768 98.8886 67.6884 98.8643 67.6228C98.5303 66.9511 97.8901 66.5576 97.0194 66.5355C96.3176 66.5176 95.7395 66.7499 95.3624 67.2605C95.3217 67.3245 95.2704 67.2971 95.2721 67.2322L95.2827 66.8163C95.2863 66.6733 95.2103 66.5934 95.0674 66.5897L93.6768 66.5543C93.5339 66.5507 93.4539 66.6267 93.4503 66.7696L93.2913 73.0076C93.2877 73.1505 93.3636 73.2305 93.5066 73.2341L94.8971 73.2696C95.0401 73.2732 95.1201 73.1972 95.1237 73.0543L95.227 68.9996C95.3199 68.4168 95.7187 68.0758 96.2775 68.0901C96.8883 68.1056 97.2926 68.5711 97.2747 69.2728L97.177 73.1066C97.1734 73.2496 97.2494 73.3295 97.3923 73.3332L98.7699 73.3683C98.9128 73.3719 98.9928 73.2959 98.9964 73.153L99.0945 69.3062C99.1124 68.6044 99.5525 68.1735 100.15 68.1887C100.761 68.2043 101.139 68.6691 101.121 69.3709L101.024 73.2046C101.02 73.3476 101.096 73.4275 101.239 73.4312L102.63 73.4666C102.773 73.4703 102.853 73.3943 102.856 73.2513L102.964 69.0147C103.002 67.5462 102.218 66.6679 100.866 66.6335ZM107.396 72.1446C106.669 72.1261 106.143 71.8136 105.975 71.2761C105.939 71.1712 105.916 71.0405 105.894 70.8709C105.896 70.819 105.922 70.7936 105.974 70.795L109.964 70.8966C110.107 70.9003 110.187 70.8243 110.191 70.6813C110.186 70.3431 110.168 70.0175 110.137 69.7306C109.896 67.9689 108.975 66.8271 107.221 66.7824C105.765 66.7453 104.639 67.5749 104.256 68.8395C104.142 69.2138 104.093 69.6156 104.08 70.1095C104.069 70.5383 104.111 70.9425 104.205 71.3221C104.521 72.7086 105.551 73.6451 107.188 73.6868C108.254 73.714 109.201 73.296 109.777 72.6084C109.858 72.4934 109.861 72.4025 109.759 72.2959L109.037 71.5622C108.935 71.4556 108.831 71.4659 108.724 71.5803C108.429 71.9239 107.982 72.1335 107.396 72.1446ZM107.154 68.3672C107.752 68.3825 108.121 68.717 108.264 69.2148C108.288 69.2934 108.299 69.3717 108.309 69.489C108.321 69.5413 108.294 69.5667 108.242 69.5653L106.033 69.509C105.981 69.5077 105.956 69.4811 105.97 69.4294C105.986 69.2998 106.028 69.1968 106.056 69.1065C106.211 68.6423 106.583 68.3527 107.154 68.3672ZM115.307 67.3266L115.204 71.3553C115.112 71.9251 114.699 72.3047 114.101 72.2895C113.438 72.2726 113.061 71.7818 113.078 71.093L113.176 67.2723C113.179 67.1293 113.103 67.0493 112.96 67.0457L111.583 67.0106C111.44 67.007 111.36 67.0829 111.356 67.2259L111.247 71.5015C111.209 72.996 112.19 73.8013 113.451 73.8334C114.178 73.8519 114.717 73.6316 115.067 73.1853C115.107 73.1344 115.159 73.1487 115.157 73.2137L115.148 73.5645C115.144 73.7075 115.22 73.7875 115.363 73.7911L116.754 73.8265C116.897 73.8302 116.977 73.7542 116.98 73.6112L117.139 67.3733C117.143 67.2303 117.067 67.1503 116.924 67.1467L115.534 67.1113C115.391 67.1076 115.311 67.1836 115.307 67.3266ZM123.589 74.0917C125.265 74.1345 126.428 73.4358 126.461 72.1233C126.491 70.9276 125.528 70.448 124.509 70.1229C123.555 69.7995 122.647 69.7373 122.66 69.2175C122.669 68.8406 123.104 68.6436 123.662 68.6578C124.325 68.6747 124.707 68.9836 124.698 69.3604L124.696 69.4384C124.694 69.4904 124.772 69.5184 124.915 69.522L126.188 69.5545C126.331 69.5581 126.411 69.4951 126.413 69.4042C126.445 68.1696 125.362 67.2707 123.686 67.228C122.074 67.1869 120.936 67.9512 120.903 69.2508C120.874 70.4074 121.811 70.8734 122.687 71.1948C123.639 71.6092 124.627 71.6214 124.614 72.1412C124.605 72.4921 124.208 72.7421 123.611 72.7268C122.961 72.7103 122.514 72.3868 122.524 72.0099L122.526 71.919C122.527 71.867 122.45 71.839 122.307 71.8353L120.994 71.8019C120.851 71.7983 120.771 71.8742 120.768 72.0172L120.766 72.0822C120.737 73.2128 121.821 74.0467 123.589 74.0917ZM128.663 66.8086C129.339 66.8259 129.792 66.3953 129.809 65.7455C129.825 65.0957 129.395 64.6426 128.719 64.6253C128.056 64.6085 127.59 65.0387 127.573 65.6885C127.557 66.3383 128 66.7917 128.663 66.8086ZM127.788 74.1077L129.178 74.1431C129.321 74.1468 129.401 74.0708 129.405 73.9278L129.564 67.6899C129.568 67.5469 129.492 67.467 129.349 67.4633L127.958 67.4279C127.815 67.4242 127.735 67.5002 127.732 67.6432L127.573 73.8811C127.569 74.0241 127.645 74.1041 127.788 74.1077ZM134.811 68.8509L134.837 67.8242C134.841 67.6813 134.765 67.6013 134.622 67.5977L133.452 67.5679C133.4 67.5666 133.375 67.5399 133.376 67.4879L133.414 66.0194C133.417 65.8764 133.341 65.7965 133.198 65.7928L131.873 65.7591C131.73 65.7554 131.65 65.8314 131.646 65.9744L131.609 67.4429C131.608 67.4949 131.581 67.5202 131.529 67.5189L130.866 67.502C130.723 67.4983 130.643 67.5743 130.64 67.7173L130.613 68.7439C130.61 68.8869 130.686 68.9669 130.829 68.9705L131.492 68.9874C131.544 68.9887 131.569 69.0154 131.568 69.0674L131.481 72.4722C131.458 73.8761 132.269 74.2089 133.594 74.2427C133.828 74.2486 134.063 74.2416 134.31 74.2349C134.453 74.2255 134.533 74.1365 134.537 74.0066L134.565 72.889C134.569 72.746 134.493 72.666 134.35 72.6624L133.986 72.6531C133.466 72.6399 133.252 72.3613 133.266 71.8025L133.335 69.1124C133.336 69.0604 133.363 69.0351 133.415 69.0364L134.585 69.0662C134.727 69.0698 134.807 68.9939 134.811 68.8509ZM138.947 72.9486C138.219 72.93 137.694 72.6176 137.525 72.0801C137.489 71.9751 137.466 71.8445 137.445 71.6749C137.446 71.6229 137.473 71.5976 137.525 71.5989L141.514 71.7006C141.657 71.7042 141.737 71.6282 141.741 71.4853C141.736 71.1471 141.719 70.8215 141.687 70.5346C141.446 68.7729 140.526 67.6311 138.771 67.5864C137.316 67.5493 136.189 68.3789 135.806 69.6435C135.692 70.0177 135.643 70.4196 135.63 70.9134C135.619 71.3423 135.661 71.7465 135.756 72.126C136.071 73.5125 137.101 74.4491 138.738 74.4908C139.804 74.5179 140.751 74.0999 141.328 73.4124C141.409 73.2974 141.411 73.2064 141.31 73.0998L140.587 72.3662C140.486 72.2596 140.381 72.2699 140.274 72.3842C139.98 72.7278 139.532 72.9375 138.947 72.9486ZM138.705 69.1712C139.303 69.1864 139.671 69.5209 139.815 70.0187C139.839 70.0974 139.85 70.1757 139.86 70.293C139.871 70.3453 139.845 70.3706 139.793 70.3693L137.583 70.313C137.531 70.3117 137.506 70.285 137.52 70.2334C137.537 70.1037 137.578 70.0008 137.607 69.9105C137.761 69.4463 138.133 69.1566 138.705 69.1712Z" fill="#333333"/>
<path d="M63.9782 81.2658L59.7013 76.8396L57.8089 78.6846L63.9224 85.0113L76.9133 72.3456L75.0767 70.445L63.9782 81.2658Z" fill="white"/>
<defs>
<filter id="filter0_d" x="70.0898" y="0" width="122.412" height="217.676" filterUnits="userSpaceOnUse" color-interpolation-filters="sRGB">
<feFlood flood-opacity="0" result="BackgroundImageFix"/>
<feColorMatrix in="SourceAlpha" type="matrix" values="0 0 0 0 0 0 0 0 0 0 0 0 0 0 0 0 0 0 127 0"/>
<feOffset dy="4"/>
<feGaussianBlur stdDeviation="2"/>
<feColorMatrix type="matrix" values="0 0 0 0 0 0 0 0 0 0 0 0 0 0 0 0 0 0 0.25 0"/>
<feBlend mode="normal" in2="BackgroundImageFix" result="effect1_dropShadow"/>
<feBlend mode="normal" in="SourceGraphic" in2="effect1_dropShadow" result="shape"/>
</filter>
</defs>
</svg>
