<svg width="230" height="46" viewBox="0 0 230 46" fill="none" xmlns="http://www.w3.org/2000/svg">
<path d="M37.3366 8.97007H30.8555V4.89648H51.4261V8.97007H44.9919V29.3853H37.3366V8.97007Z" fill="white"/>
<path d="M61.6483 25.3118H71.9968V29.3853H53.875V4.89648H61.6483V25.3118Z" fill="white"/>
<path d="M79.4721 25.7381L78.0942 29.3853H72.4873L81.6578 4.89648H88.6426L97.9557 29.3853H89.7355L88.3575 25.7381H79.4721ZM86.7895 21.5224L83.9386 13.991L81.0876 21.5224H86.7895Z" fill="white"/>
<path d="M110.728 10.4291C110.776 11.0017 111.158 11.3835 111.874 11.622C112.59 11.8606 113.879 12.0515 115.645 12.2424C117.411 12.4332 118.795 12.6718 119.75 12.9581C123.378 14.0079 125.239 16.2506 125.382 19.6385C125.382 21.8813 124.905 23.6468 123.998 24.9829C123.091 26.319 121.898 27.2733 120.37 27.8459C118.843 28.4185 117.077 28.7525 114.977 28.848C114.595 28.8957 114.022 28.8957 113.306 28.8957C111.588 28.8957 110.06 28.8003 108.724 28.5617C107.387 28.3708 106.289 28.1322 105.478 27.8459C104.666 27.6073 104.237 27.4165 104.237 27.3687L103.091 21.1655C103.664 21.6427 104.714 22.2153 106.242 22.8833C107.721 23.5991 109.487 23.9808 111.492 24.0285C113.64 24.0285 115.168 23.7899 116.074 23.3605C116.981 22.8833 117.459 22.1198 117.459 21.0223C117.411 20.0203 116.981 19.3045 116.218 18.9228C115.454 18.4933 114.499 18.2547 113.306 18.1116C112.16 17.9684 110.681 17.8253 108.962 17.5867C107.053 17.2527 105.573 16.6324 104.475 15.7257C103.378 14.8191 102.853 13.2921 102.853 11.2403C102.853 10.9063 102.9 10.3814 102.948 9.61792C103.234 7.47065 104.571 5.70511 107.005 4.3213C108.342 3.55783 110.251 3.12837 112.781 2.98522C113.258 2.9375 113.879 2.9375 114.738 2.9375C116.981 2.9375 118.795 3.08066 120.275 3.41468C121.707 3.7487 122.709 3.98728 123.234 4.22586L124.666 9.18846C124.666 9.18846 124.189 9.0453 123.33 8.71128C122.423 8.37726 121.373 8.13868 120.084 7.85238C118.795 7.61379 117.363 7.47065 115.74 7.47065C112.447 7.56608 110.728 8.52042 110.728 10.4291Z" fill="white"/>
<path d="M155.53 28.6355C155.105 28.8264 154.253 29.065 153.024 29.3513C151.794 29.6376 150.139 29.8284 148.2 29.8762C145.032 29.8762 142.573 29.3513 140.729 28.3015C138.885 27.2517 137.608 25.7248 136.804 23.6729C136.047 21.6688 135.669 19.1398 135.669 16.0382C135.764 14.1772 136 12.5548 136.426 11.1233C136.851 9.73948 137.513 8.49882 138.412 7.44904C139.31 6.39926 140.492 5.58808 141.958 4.96775C143.424 4.34743 145.221 4.0134 147.349 3.91797C149.335 3.91797 150.943 4.01341 152.22 4.252C153.497 4.49058 154.348 4.68145 154.821 4.87231L156.192 10.2167C155.719 9.93035 154.821 9.5486 153.591 9.11915C152.315 8.68969 150.801 8.45111 149.004 8.40339C146.687 8.40339 145.174 9.07144 144.417 10.4552C143.661 11.839 143.282 13.6523 143.282 15.9904C143.282 17.3265 143.33 18.4717 143.472 19.4738C143.566 20.4759 143.803 21.3825 144.181 22.2891C144.559 23.148 145.079 23.8638 145.836 24.3887C146.545 24.9136 147.491 25.1999 148.673 25.1999C150.281 25.1999 151.605 25.0567 152.74 24.8181C153.828 24.5795 154.726 24.2455 155.341 23.9592C155.956 23.6729 156.24 23.482 156.24 23.482L155.53 28.6355Z" fill="white"/>
<path d="M170.571 3.91797C173.529 3.91797 175.878 4.38994 177.662 5.33387C179.447 6.2778 180.715 7.74089 181.513 9.62876C182.312 11.5166 182.688 13.9237 182.688 16.8027C182.688 19.7761 182.265 22.2303 181.42 24.1654C180.574 26.1004 179.259 27.5163 177.428 28.4603C175.643 29.4042 173.295 29.8762 170.477 29.8762C167.753 29.8762 165.545 29.4042 163.808 28.5074C162.07 27.5635 160.802 26.1476 159.957 24.2126C159.111 22.2775 158.688 19.8233 158.688 16.8027C158.735 12.5078 159.722 9.29839 161.647 7.12734C163.667 5.05068 166.626 3.96517 170.571 3.91797ZM166.109 16.8027C166.156 18.5961 166.297 20.0592 166.438 21.192C166.579 22.2775 167.001 23.2686 167.612 24.1182C168.269 24.9677 169.209 25.3925 170.524 25.3925C171.886 25.3925 172.919 24.9677 173.623 24.1654C174.281 23.363 174.75 22.3719 174.891 21.2392C175.079 20.0592 175.173 18.6433 175.173 16.8971C175.173 15.198 175.079 13.7821 174.938 12.6494C174.797 11.5166 174.375 10.5255 173.764 9.67596C173.107 8.82642 172.12 8.40166 170.758 8.40166C168.833 8.40166 167.565 9.1568 167.001 10.6671C166.391 12.2246 166.109 14.254 166.109 16.8027Z" fill="white"/>
<path d="M197.676 4.94289C199.813 4.94289 201.618 5.45352 203.043 6.47476C204.468 7.496 205.513 8.88859 206.178 10.6525C206.843 12.4629 207.176 14.5054 207.176 16.8728C207.176 19.5187 206.796 21.7005 206.036 23.5109C205.276 25.3212 204.183 26.6674 202.711 27.5494C201.238 28.4314 199.433 28.8956 197.343 28.8956H185.136V4.89648H197.676V4.94289ZM201.571 16.8728C201.571 11.5809 199.813 8.93501 196.251 8.93501H192.878V24.9035H196.061C199.718 24.9499 201.571 22.2575 201.571 16.8728Z" fill="white"/>
<path d="M210.114 4.89648H227.561V9.06481H217.724V14.5594H225.797V18.7277H217.724V25.217H227.746V29.3853H210.114V4.89648Z" fill="white"/>
<path d="M0 32.8151L16.6524 0V22.8768L0 32.8151Z" fill="#FF5B35"/>
<path d="M32.8156 32.8151L16.4843 0C14.8933 8.25064 14.6125 15.9856 16.4843 22.8299L32.8156 32.8151Z" fill="#FF5B35"/>
<path d="M60.6392 39.9454C60.6392 41.1266 60.3112 42.0305 59.6553 42.6571C58.9994 43.2803 58.0548 43.5919 56.8213 43.5919H54.8193V36.4358H57.0318C58.1706 36.4358 59.0565 36.7426 59.6896 37.3561C60.3226 37.9695 60.6392 38.8326 60.6392 39.9454ZM59.4057 39.9845C59.4057 38.2714 58.6046 37.4148 57.0024 37.4148H55.9892V42.6081H56.8213C58.5442 42.6081 59.4057 41.7336 59.4057 39.9845Z" fill="white"/>
<path d="M64.7235 43.6898C63.8816 43.6898 63.2225 43.4451 62.7461 42.9556C62.2729 42.4629 62.0363 41.7858 62.0363 40.9243C62.0363 40.04 62.2566 39.3449 62.6971 38.8392C63.1376 38.3334 63.743 38.0805 64.5131 38.0805C65.2277 38.0805 65.7922 38.2975 66.2066 38.7315C66.6211 39.1655 66.8283 39.7626 66.8283 40.5229V41.1446H63.2209C63.2372 41.6699 63.3791 42.0746 63.6467 42.3585C63.9143 42.6391 64.2912 42.7794 64.7774 42.7794C65.0972 42.7794 65.3941 42.7501 65.6682 42.6913C65.9456 42.6293 66.2425 42.5282 66.5591 42.3878V43.3227C66.2784 43.4565 65.9945 43.5512 65.7074 43.6066C65.4202 43.6621 65.0923 43.6898 64.7235 43.6898ZM64.5131 38.9517C64.1476 38.9517 63.8539 39.0676 63.632 39.2993C63.4134 39.5309 63.2829 39.8687 63.2404 40.3125H65.6976C65.6911 39.8654 65.5834 39.5277 65.3745 39.2993C65.1657 39.0676 64.8785 38.9517 64.5131 38.9517Z" fill="white"/>
<path d="M72.0727 42.0501C72.0727 42.5787 71.8802 42.985 71.4951 43.2689C71.1101 43.5495 70.5586 43.6898 69.8407 43.6898C69.1195 43.6898 68.5403 43.5805 68.1031 43.3619V42.3683C68.7394 42.6619 69.3316 42.8088 69.8798 42.8088C70.588 42.8088 70.942 42.5951 70.942 42.1676C70.942 42.0305 70.9028 41.9163 70.8245 41.8249C70.7462 41.7336 70.6173 41.6389 70.4378 41.5411C70.2584 41.4432 70.0087 41.3322 69.689 41.2082C69.0657 40.9667 68.6431 40.7253 68.4212 40.4838C68.2026 40.2423 68.0933 39.9291 68.0933 39.544C68.0933 39.0806 68.2793 38.7217 68.6513 38.4672C69.0265 38.2094 69.5356 38.0805 70.1784 38.0805C70.8147 38.0805 71.4168 38.2094 71.9846 38.4672L71.6126 39.3335C71.0285 39.0921 70.5374 38.9713 70.1393 38.9713C69.5323 38.9713 69.2288 39.1443 69.2288 39.4902C69.2288 39.6598 69.3072 39.8034 69.4638 39.9209C69.6237 40.0384 69.9696 40.1999 70.5015 40.4055C70.9485 40.5784 71.2732 40.7367 71.4755 40.8803C71.6778 41.0238 71.828 41.1903 71.9258 41.3795C72.0237 41.5655 72.0727 41.7891 72.0727 42.0501Z" fill="white"/>
<path d="M75.9857 43.6898C75.1438 43.6898 74.4847 43.4451 74.0083 42.9556C73.5351 42.4629 73.2985 41.7858 73.2985 40.9243C73.2985 40.04 73.5188 39.3449 73.9593 38.8392C74.3998 38.3334 75.0052 38.0805 75.7753 38.0805C76.4899 38.0805 77.0544 38.2975 77.4688 38.7315C77.8833 39.1655 78.0905 39.7626 78.0905 40.5229V41.1446H74.4831C74.4994 41.6699 74.6413 42.0746 74.9089 42.3585C75.1765 42.6391 75.5534 42.7794 76.0396 42.7794C76.3594 42.7794 76.6563 42.7501 76.9304 42.6913C77.2078 42.6293 77.5047 42.5282 77.8213 42.3878V43.3227C77.5406 43.4565 77.2567 43.5512 76.9696 43.6066C76.6824 43.6621 76.3545 43.6898 75.9857 43.6898ZM75.7753 38.9517C75.4098 38.9517 75.1161 39.0676 74.8942 39.2993C74.6756 39.5309 74.545 39.8687 74.5026 40.3125H76.9598C76.9533 39.8654 76.8456 39.5277 76.6367 39.2993C76.4279 39.0676 76.1407 38.9517 75.7753 38.9517Z" fill="white"/>
<path d="M84.4607 43.5919H83.3055V40.2635C83.3055 39.8458 83.2207 39.5342 83.051 39.3286C82.8846 39.1231 82.6186 39.0203 82.2531 39.0203C81.7669 39.0203 81.4113 39.1638 81.1861 39.451C80.9609 39.7382 80.8484 40.2195 80.8484 40.8949V43.5919H79.6981V38.1784H80.5987L80.7603 38.8881H80.819C80.9821 38.6303 81.2138 38.4313 81.514 38.291C81.8143 38.1506 82.1471 38.0805 82.5126 38.0805C83.8113 38.0805 84.4607 38.7413 84.4607 40.0628V43.5919Z" fill="white"/>
<path d="M87.5955 43.5919L85.5397 38.1784H86.7536L87.8549 41.3257C88.0441 41.8543 88.1584 42.2818 88.1975 42.6081H88.2367C88.266 42.3732 88.3802 41.9457 88.5793 41.3257L89.6806 38.1784H90.9043L88.8387 43.5919H87.5955Z" fill="white"/>
<path d="M96.8291 40.8754C96.8291 41.7597 96.6023 42.4498 96.1487 42.9458C95.6951 43.4418 95.0637 43.6898 94.2544 43.6898C93.7487 43.6898 93.3016 43.5756 92.9133 43.3472C92.525 43.1188 92.2264 42.7908 92.0176 42.3634C91.8087 41.9359 91.7043 41.4399 91.7043 40.8754C91.7043 39.9976 91.9295 39.3123 92.3798 38.8196C92.8301 38.3268 93.4648 38.0805 94.2838 38.0805C95.067 38.0805 95.687 38.3334 96.1438 38.8392C96.6007 39.3417 96.8291 40.0204 96.8291 40.8754ZM92.8888 40.8754C92.8888 42.1252 93.3506 42.7501 94.274 42.7501C95.1877 42.7501 95.6446 42.1252 95.6446 40.8754C95.6446 39.6386 95.1844 39.0203 94.2642 39.0203C93.7813 39.0203 93.4305 39.1802 93.2119 39.4999C92.9965 39.8197 92.8888 40.2782 92.8888 40.8754Z" fill="white"/>
<path d="M99.6065 43.5919H98.4563V35.9757H99.6065V43.5919Z" fill="white"/>
<path d="M102.79 43.5919L100.734 38.1784H101.948L103.05 41.3257C103.239 41.8543 103.353 42.2818 103.392 42.6081H103.431C103.461 42.3732 103.575 41.9457 103.774 41.3257L104.875 38.1784H106.099L104.034 43.5919H102.79Z" fill="white"/>
<path d="M108.372 43.5919H107.222V38.1784H108.372V43.5919ZM107.154 36.7442C107.154 36.5386 107.209 36.3804 107.32 36.2694C107.434 36.1585 107.596 36.103 107.805 36.103C108.007 36.103 108.164 36.1585 108.275 36.2694C108.389 36.3804 108.446 36.5386 108.446 36.7442C108.446 36.94 108.389 37.095 108.275 37.2092C108.164 37.3202 108.007 37.3756 107.805 37.3756C107.596 37.3756 107.434 37.3202 107.32 37.2092C107.209 37.095 107.154 36.94 107.154 36.7442Z" fill="white"/>
<path d="M114.885 43.5919H113.729V40.2537C113.729 39.8393 113.651 39.5309 113.494 39.3286C113.338 39.1231 113.093 39.0203 112.76 39.0203C112.316 39.0203 111.99 39.1655 111.781 39.4559C111.576 39.7431 111.473 40.2227 111.473 40.8949V43.5919H110.323V38.1784H111.223L111.385 38.8881H111.444C111.594 38.6303 111.811 38.4313 112.095 38.291C112.382 38.1506 112.697 38.0805 113.039 38.0805C113.871 38.0805 114.423 38.3644 114.694 38.9322H114.772C114.932 38.6646 115.157 38.4557 115.447 38.3056C115.738 38.1555 116.071 38.0805 116.446 38.0805C117.092 38.0805 117.562 38.2436 117.856 38.5699C118.153 38.8963 118.301 39.3939 118.301 40.0628V43.5919H117.151V40.2537C117.151 39.8393 117.071 39.5309 116.911 39.3286C116.754 39.1231 116.51 39.0203 116.177 39.0203C115.73 39.0203 115.402 39.1606 115.193 39.4412C114.987 39.7186 114.885 40.1461 114.885 40.7236V43.5919Z" fill="white"/>
<path d="M122.571 43.6898C121.73 43.6898 121.07 43.4451 120.594 42.9556C120.121 42.4629 119.884 41.7858 119.884 40.9243C119.884 40.04 120.105 39.3449 120.545 38.8392C120.986 38.3334 121.591 38.0805 122.361 38.0805C123.076 38.0805 123.64 38.2975 124.055 38.7315C124.469 39.1655 124.676 39.7626 124.676 40.5229V41.1446H121.069C121.085 41.6699 121.227 42.0746 121.495 42.3585C121.762 42.6391 122.139 42.7794 122.625 42.7794C122.945 42.7794 123.242 42.7501 123.516 42.6913C123.794 42.6293 124.09 42.5282 124.407 42.3878V43.3227C124.126 43.4565 123.842 43.5512 123.555 43.6066C123.268 43.6621 122.94 43.6898 122.571 43.6898ZM122.361 38.9517C121.996 38.9517 121.702 39.0676 121.48 39.2993C121.261 39.5309 121.131 39.8687 121.088 40.3125H123.546C123.539 39.8654 123.431 39.5277 123.222 39.2993C123.014 39.0676 122.726 38.9517 122.361 38.9517Z" fill="white"/>
<path d="M131.046 43.5919H129.891V40.2635C129.891 39.8458 129.806 39.5342 129.637 39.3286C129.47 39.1231 129.204 39.0203 128.839 39.0203C128.353 39.0203 127.997 39.1638 127.772 39.451C127.547 39.7382 127.434 40.2195 127.434 40.8949V43.5919H126.284V38.1784H127.184L127.346 38.8881H127.405C127.568 38.6303 127.8 38.4313 128.1 38.291C128.4 38.1506 128.733 38.0805 129.098 38.0805C130.397 38.0805 131.046 38.7413 131.046 40.0628V43.5919Z" fill="white"/>
<path d="M134.964 42.7598C135.245 42.7598 135.526 42.7158 135.806 42.6277V43.4941C135.679 43.5495 135.514 43.5952 135.312 43.6311C135.113 43.6703 134.906 43.6898 134.69 43.6898C133.6 43.6898 133.055 43.1155 133.055 41.9669V39.0496H132.316V38.5406L133.109 38.1196L133.501 36.9743H134.211V38.1784H135.752V39.0496H134.211V41.9473C134.211 42.2247 134.279 42.4303 134.416 42.5641C134.556 42.6946 134.739 42.7598 134.964 42.7598Z" fill="white"/>
<path d="M141.995 40.8754C141.995 41.7597 141.769 42.4498 141.315 42.9458C140.861 43.4418 140.23 43.6898 139.421 43.6898C138.915 43.6898 138.468 43.5756 138.08 43.3472C137.691 43.1188 137.393 42.7908 137.184 42.3634C136.975 41.9359 136.871 41.4399 136.871 40.8754C136.871 39.9976 137.096 39.3123 137.546 38.8196C137.996 38.3268 138.631 38.0805 139.45 38.0805C140.233 38.0805 140.853 38.3334 141.31 38.8392C141.767 39.3417 141.995 40.0204 141.995 40.8754ZM138.055 40.8754C138.055 42.1252 138.517 42.7501 139.44 42.7501C140.354 42.7501 140.811 42.1252 140.811 40.8754C140.811 39.6386 140.351 39.0203 139.43 39.0203C138.948 39.0203 138.597 39.1802 138.378 39.4999C138.163 39.8197 138.055 40.2782 138.055 40.8754Z" fill="white"/>
<path d="M150.967 43.5919L150.267 41.0663C150.182 40.7987 150.029 40.1771 149.807 39.2014H149.763C149.573 40.0824 149.423 40.7073 149.312 41.0761L148.593 43.5919H147.32L145.803 38.1784H146.978L147.668 40.846C147.824 41.5052 147.935 42.0697 148.001 42.5396H148.03C148.063 42.3014 148.112 42.0289 148.177 41.7222C148.245 41.4122 148.304 41.1805 148.353 41.0271L149.175 38.1784H150.438L151.236 41.0271C151.285 41.187 151.345 41.4317 151.417 41.7613C151.492 42.0909 151.536 42.3471 151.549 42.5298H151.588C151.637 42.1284 151.752 41.5672 151.931 40.846L152.631 38.1784H153.786L152.259 43.5919H150.967Z" fill="white"/>
<path d="M157.386 43.6898C156.544 43.6898 155.885 43.4451 155.408 42.9556C154.935 42.4629 154.699 41.7858 154.699 40.9243C154.699 40.04 154.919 39.3449 155.36 38.8392C155.8 38.3334 156.405 38.0805 157.175 38.0805C157.89 38.0805 158.455 38.2975 158.869 38.7315C159.283 39.1655 159.491 39.7626 159.491 40.5229V41.1446H155.883C155.9 41.6699 156.042 42.0746 156.309 42.3585C156.577 42.6391 156.954 42.7794 157.44 42.7794C157.76 42.7794 158.057 42.7501 158.331 42.6913C158.608 42.6293 158.905 42.5282 159.221 42.3878V43.3227C158.941 43.4565 158.657 43.5512 158.37 43.6066C158.083 43.6621 157.755 43.6898 157.386 43.6898ZM157.175 38.9517C156.81 38.9517 156.516 39.0676 156.294 39.2993C156.076 39.5309 155.945 39.8687 155.903 40.3125H158.36C158.353 39.8654 158.246 39.5277 158.037 39.2993C157.828 39.0676 157.541 38.9517 157.175 38.9517Z" fill="white"/>
<path d="M163.864 38.0805C164.539 38.0805 165.065 38.3252 165.44 38.8147C165.818 39.3042 166.008 39.9911 166.008 40.8754C166.008 41.7629 165.817 42.4547 165.435 42.9507C165.053 43.4435 164.523 43.6898 163.844 43.6898C163.159 43.6898 162.627 43.4435 162.249 42.9507H162.17L161.96 43.5919H161.098V35.9757H162.249V37.7868C162.249 37.9206 162.242 38.1196 162.229 38.3839C162.216 38.6483 162.206 38.8163 162.2 38.8881H162.249C162.614 38.3497 163.152 38.0805 163.864 38.0805ZM163.565 39.0203C163.102 39.0203 162.767 39.1573 162.562 39.4314C162.36 39.7023 162.255 40.1575 162.249 40.7971V40.8754C162.249 41.5345 162.353 42.0126 162.562 42.3095C162.771 42.6032 163.112 42.7501 163.585 42.7501C163.993 42.7501 164.301 42.5885 164.51 42.2655C164.722 41.9424 164.828 41.4758 164.828 40.8656C164.828 39.6354 164.407 39.0203 163.565 39.0203Z" fill="white"/>
<path d="M181.628 43.6898C180.786 43.6898 180.127 43.4451 179.65 42.9556C179.177 42.4629 178.941 41.7858 178.941 40.9243C178.941 40.04 179.161 39.3449 179.601 38.8392C180.042 38.3334 180.647 38.0805 181.417 38.0805C182.132 38.0805 182.696 38.2975 183.111 38.7315C183.525 39.1655 183.733 39.7626 183.733 40.5229V41.1446H180.125C180.141 41.6699 180.283 42.0746 180.551 42.3585C180.819 42.6391 181.195 42.7794 181.682 42.7794C182.001 42.7794 182.298 42.7501 182.572 42.6913C182.85 42.6293 183.147 42.5282 183.463 42.3878V43.3227C183.183 43.4565 182.899 43.5512 182.612 43.6066C182.324 43.6621 181.997 43.6898 181.628 43.6898ZM181.417 38.9517C181.052 38.9517 180.758 39.0676 180.536 39.2993C180.318 39.5309 180.187 39.8687 180.145 40.3125H182.602C182.595 39.8654 182.488 39.5277 182.279 39.2993C182.07 39.0676 181.783 38.9517 181.417 38.9517Z" fill="white"/>
<path d="M188.977 42.0501C188.977 42.5787 188.784 42.985 188.399 43.2689C188.014 43.5495 187.463 43.6898 186.745 43.6898C186.024 43.6898 185.445 43.5805 185.007 43.3619V42.3683C185.644 42.6619 186.236 42.8088 186.784 42.8088C187.492 42.8088 187.846 42.5951 187.846 42.1676C187.846 42.0305 187.807 41.9163 187.729 41.8249C187.65 41.7336 187.522 41.6389 187.342 41.5411C187.163 41.4432 186.913 41.3322 186.593 41.2082C185.97 40.9667 185.547 40.7253 185.325 40.4838C185.107 40.2423 184.998 39.9291 184.998 39.544C184.998 39.0806 185.184 38.7217 185.556 38.4672C185.931 38.2094 186.44 38.0805 187.083 38.0805C187.719 38.0805 188.321 38.2094 188.889 38.4672L188.517 39.3335C187.933 39.0921 187.442 38.9713 187.044 38.9713C186.437 38.9713 186.133 39.1443 186.133 39.4902C186.133 39.6598 186.211 39.8034 186.368 39.9209C186.528 40.0384 186.874 40.1999 187.406 40.4055C187.853 40.5784 188.177 40.7367 188.38 40.8803C188.582 41.0238 188.732 41.1903 188.83 41.3795C188.928 41.5655 188.977 41.7891 188.977 42.0501Z" fill="white"/>
<path d="M192.542 42.7598C192.823 42.7598 193.104 42.7158 193.384 42.6277V43.4941C193.257 43.5495 193.092 43.5952 192.89 43.6311C192.691 43.6703 192.484 43.6898 192.268 43.6898C191.178 43.6898 190.634 43.1155 190.634 41.9669V39.0496H189.894V38.5406L190.687 38.1196L191.079 36.9743H191.789V38.1784H193.331V39.0496H191.789V41.9473C191.789 42.2247 191.857 42.4303 191.994 42.5641C192.135 42.6946 192.317 42.7598 192.542 42.7598Z" fill="white"/>
<path d="M197.518 38.0805C197.749 38.0805 197.94 38.0968 198.09 38.1294L197.978 39.2014C197.815 39.1622 197.645 39.1426 197.469 39.1426C197.009 39.1426 196.635 39.2927 196.348 39.5929C196.064 39.8932 195.922 40.2831 195.922 40.7628V43.5919H194.772V38.1784H195.672L195.824 39.1328H195.883C196.062 38.8098 196.296 38.5536 196.583 38.3644C196.873 38.1751 197.185 38.0805 197.518 38.0805Z" fill="white"/>
<path d="M202.787 43.5919L202.557 42.8382H202.517C202.256 43.1677 201.994 43.3929 201.729 43.5136C201.465 43.6311 201.126 43.6898 200.711 43.6898C200.179 43.6898 199.763 43.5463 199.463 43.2591C199.166 42.9719 199.018 42.5657 199.018 42.0403C199.018 41.4823 199.225 41.0614 199.639 40.7775C200.054 40.4936 200.685 40.3386 201.534 40.3125L202.468 40.2831V39.9943C202.468 39.6484 202.387 39.3906 202.224 39.2209C202.064 39.048 201.814 38.9615 201.475 38.9615C201.197 38.9615 200.931 39.0023 200.677 39.0839C200.422 39.1655 200.178 39.2617 199.943 39.3727L199.571 38.5504C199.864 38.397 200.186 38.2812 200.535 38.2028C200.884 38.1213 201.214 38.0805 201.524 38.0805C202.212 38.0805 202.731 38.2306 203.08 38.5308C203.433 38.831 203.609 39.3025 203.609 39.9454V43.5919H202.787ZM201.073 42.8088C201.491 42.8088 201.826 42.6929 202.077 42.4613C202.331 42.2263 202.459 41.8984 202.459 41.4774V41.0075L201.764 41.0369C201.222 41.0565 200.827 41.1478 200.579 41.311C200.334 41.4709 200.212 41.7173 200.212 42.0501C200.212 42.2916 200.284 42.4792 200.427 42.613C200.571 42.7435 200.786 42.8088 201.073 42.8088Z" fill="white"/>
<path d="M207.532 42.7598C207.812 42.7598 208.093 42.7158 208.374 42.6277V43.4941C208.246 43.5495 208.082 43.5952 207.879 43.6311C207.68 43.6703 207.473 43.6898 207.258 43.6898C206.168 43.6898 205.623 43.1155 205.623 41.9669V39.0496H204.884V38.5406L205.677 38.1196L206.068 36.9743H206.778V38.1784H208.32V39.0496H206.778V41.9473C206.778 42.2247 206.846 42.4303 206.984 42.5641C207.124 42.6946 207.307 42.7598 207.532 42.7598Z" fill="white"/>
<path d="M212.125 43.6898C211.283 43.6898 210.624 43.4451 210.148 42.9556C209.675 42.4629 209.438 41.7858 209.438 40.9243C209.438 40.04 209.658 39.3449 210.099 38.8392C210.539 38.3334 211.145 38.0805 211.915 38.0805C212.629 38.0805 213.194 38.2975 213.608 38.7315C214.023 39.1655 214.23 39.7626 214.23 40.5229V41.1446H210.622C210.639 41.6699 210.781 42.0746 211.048 42.3585C211.316 42.6391 211.693 42.7794 212.179 42.7794C212.499 42.7794 212.796 42.7501 213.07 42.6913C213.347 42.6293 213.644 42.5282 213.961 42.3878V43.3227C213.68 43.4565 213.396 43.5512 213.109 43.6066C212.822 43.6621 212.494 43.6898 212.125 43.6898ZM211.915 38.9517C211.549 38.9517 211.256 39.0676 211.034 39.2993C210.815 39.5309 210.684 39.8687 210.642 40.3125H213.099C213.093 39.8654 212.985 39.5277 212.776 39.2993C212.567 39.0676 212.28 38.9517 211.915 38.9517ZM211.18 37.5176V37.3952C211.366 37.1668 211.557 36.9123 211.753 36.6316C211.952 36.351 212.109 36.1112 212.223 35.9121H213.559V36.0149C213.39 36.214 213.135 36.4717 212.796 36.7883C212.46 37.1015 212.176 37.3446 211.944 37.5176H211.18Z" fill="white"/>
<path d="M220.409 38.1784V38.8098L219.484 38.9811C219.569 39.0953 219.639 39.2356 219.695 39.4021C219.75 39.5685 219.778 39.7447 219.778 39.9307C219.778 40.4887 219.585 40.9276 219.2 41.2474C218.815 41.5672 218.285 41.7271 217.609 41.7271C217.436 41.7271 217.28 41.714 217.139 41.6879C216.891 41.8413 216.767 42.0207 216.767 42.2263C216.767 42.3503 216.825 42.4433 216.939 42.5053C217.056 42.5673 217.27 42.5983 217.58 42.5983H218.525C219.122 42.5983 219.575 42.7256 219.885 42.9801C220.195 43.2346 220.35 43.6017 220.35 44.0814C220.35 44.6949 220.098 45.1681 219.592 45.5009C219.086 45.8337 218.355 46.0002 217.399 46.0002C216.661 46.0002 216.099 45.8696 215.71 45.6086C215.322 45.3475 215.128 44.9755 215.128 44.4926C215.128 44.1597 215.232 43.8791 215.441 43.6507C215.653 43.4255 215.948 43.2689 216.327 43.1808C216.174 43.1155 216.046 43.0111 215.945 42.8675C215.847 42.7207 215.798 42.5673 215.798 42.4074C215.798 42.2051 215.855 42.0338 215.97 41.8935C216.084 41.7532 216.254 41.6145 216.479 41.4774C216.198 41.3567 215.97 41.1609 215.793 40.8901C215.62 40.6159 215.534 40.2962 215.534 39.9307C215.534 39.3433 215.718 38.8881 216.087 38.5651C216.459 38.242 216.988 38.0805 217.673 38.0805C217.826 38.0805 217.986 38.0919 218.153 38.1147C218.322 38.1343 218.45 38.1555 218.534 38.1784H220.409ZM216.156 44.4338C216.156 44.6818 216.267 44.8727 216.488 45.0065C216.714 45.1403 217.029 45.2072 217.433 45.2072C218.06 45.2072 218.526 45.1175 218.833 44.938C219.14 44.7585 219.293 44.5203 219.293 44.2234C219.293 43.9884 219.208 43.8204 219.039 43.7192C218.872 43.6213 218.561 43.5724 218.104 43.5724H217.232C216.903 43.5724 216.64 43.6491 216.444 43.8024C216.252 43.9591 216.156 44.1695 216.156 44.4338ZM216.65 39.9307C216.65 40.2701 216.736 40.5311 216.909 40.7138C217.086 40.8966 217.337 40.9879 217.663 40.9879C218.329 40.9879 218.662 40.6323 218.662 39.9209C218.662 39.5685 218.579 39.2976 218.412 39.1084C218.249 38.9158 217.999 38.8196 217.663 38.8196C217.33 38.8196 217.077 38.9142 216.905 39.1035C216.735 39.2927 216.65 39.5685 216.65 39.9307Z" fill="white"/>
<path d="M222.868 43.5919H221.718V38.1784H222.868V43.5919ZM221.65 36.7442C221.65 36.5386 221.705 36.3804 221.816 36.2694C221.93 36.1585 222.092 36.103 222.301 36.103C222.503 36.103 222.66 36.1585 222.771 36.2694C222.885 36.3804 222.942 36.5386 222.942 36.7442C222.942 36.94 222.885 37.095 222.771 37.2092C222.66 37.3202 222.503 37.3756 222.301 37.3756C222.092 37.3756 221.93 37.3202 221.816 37.2092C221.705 37.095 221.65 36.94 221.65 36.7442Z" fill="white"/>
<path d="M228.206 43.5919L227.976 42.8382H227.937C227.676 43.1677 227.413 43.3929 227.149 43.5136C226.884 43.6311 226.545 43.6898 226.131 43.6898C225.599 43.6898 225.183 43.5463 224.882 43.2591C224.585 42.9719 224.437 42.5657 224.437 42.0403C224.437 41.4823 224.644 41.0614 225.059 40.7775C225.473 40.4936 226.104 40.3386 226.953 40.3125L227.888 40.2831V39.9943C227.888 39.6484 227.806 39.3906 227.643 39.2209C227.483 39.048 227.233 38.9615 226.894 38.9615C226.617 38.9615 226.351 39.0023 226.096 39.0839C225.842 39.1655 225.597 39.2617 225.362 39.3727L224.99 38.5504C225.284 38.397 225.605 38.2812 225.954 38.2028C226.303 38.1213 226.633 38.0805 226.943 38.0805C227.632 38.0805 228.15 38.2306 228.5 38.5308C228.852 38.831 229.028 39.3025 229.028 39.9454V43.5919H228.206ZM226.493 42.8088C226.91 42.8088 227.245 42.6929 227.496 42.4613C227.751 42.2263 227.878 41.8984 227.878 41.4774V41.0075L227.183 41.0369C226.641 41.0565 226.246 41.1478 225.998 41.311C225.754 41.4709 225.631 41.7173 225.631 42.0501C225.631 42.2916 225.703 42.4792 225.847 42.613C225.99 42.7435 226.206 42.8088 226.493 42.8088Z" fill="white"/>
<path d="M171.181 37.9747C171.181 38.1803 171.235 38.3744 171.343 38.5572C171.453 38.7399 171.607 38.9341 171.803 39.1397C172.171 38.9308 172.429 38.7367 172.576 38.5572C172.726 38.3744 172.801 38.1705 172.801 37.9453C172.801 37.7332 172.729 37.5636 172.586 37.4363C172.445 37.309 172.258 37.2454 172.023 37.2454C171.765 37.2454 171.56 37.3123 171.406 37.4461C171.256 37.5766 171.181 37.7528 171.181 37.9747ZM171.91 42.6981C172.507 42.6981 173.018 42.5235 173.442 42.1744L171.568 40.3291C171.222 40.551 170.984 40.7598 170.853 40.9556C170.723 41.1481 170.657 41.3684 170.657 41.6164C170.657 41.9362 170.77 42.1972 170.995 42.3995C171.223 42.5986 171.529 42.6981 171.91 42.6981ZM169.443 41.6947C169.443 41.2672 169.548 40.8952 169.757 40.5787C169.965 40.2589 170.342 39.9424 170.887 39.6291C170.577 39.2669 170.365 38.9618 170.251 38.7138C170.14 38.4626 170.085 38.2031 170.085 37.9356C170.085 37.4396 170.261 37.048 170.613 36.7608C170.969 36.4737 171.445 36.3301 172.042 36.3301C172.62 36.3301 173.074 36.4704 173.403 36.751C173.733 37.0284 173.898 37.4037 173.898 37.8768C173.898 38.2488 173.787 38.5866 173.565 38.89C173.346 39.1935 172.979 39.497 172.463 39.8004L174.157 41.4353C174.421 41.0861 174.642 40.5738 174.818 39.8983H176.002C175.774 40.8251 175.408 41.5805 174.906 42.1646L176.379 43.589H174.896L174.167 42.8792C173.834 43.1468 173.478 43.3491 173.1 43.4862C172.724 43.62 172.308 43.6869 171.852 43.6869C171.101 43.6869 170.512 43.509 170.085 43.1533C169.657 42.7977 169.443 42.3114 169.443 41.6947Z" fill="#FF5B35"/>
</svg>
