<svg width="444" height="442" viewBox="0 0 444 442" fill="none" xmlns="http://www.w3.org/2000/svg">
<g filter="url(#filter0_d)">
<path d="M342.563 120.647C340.908 125.471 339.586 130.385 338.596 135.391C336.466 146.182 335.666 157.335 334.948 168.344C334.597 174.091 337.52 189.542 341.152 194.172C347.203 182.036 354.983 168.186 363.083 157.01C370.865 146.23 371.582 135.222 382.121 127.046C383.482 125.988 384.802 125.004 386.163 123.947C391.289 120.113 396.342 116.239 400.142 111.182C404.907 104.749 407.256 95.616 403.286 88.6866C400.459 83.6466 394.765 80.6395 388.953 80.0599C383.214 79.5212 377.408 81.1504 372.191 83.7811C357.726 91.0945 347.865 105.405 342.563 120.647Z" fill="#63C5B5"/>
<path d="M384.981 94.1309C369.159 101.641 360.209 115.696 350.881 130.594C341.521 145.378 336.558 162.919 336.572 180.476" stroke="white" stroke-miterlimit="10" stroke-linecap="round" stroke-linejoin="round"/>
<path d="M340.654 359.129C348.767 354.23 356.978 349.264 363.58 342.391C369.33 336.468 373.599 329.341 378.848 322.902C382.235 318.759 386.004 314.855 388.396 310.107C390.789 305.358 391.551 299.293 388.634 294.77C385.665 290.066 379.271 288.309 373.88 289.454C368.406 290.584 363.763 294.159 359.964 298.227C354.91 303.596 351.007 310.11 348.637 317.072C346.469 323.391 345.505 330.099 343.337 336.418C341.326 342.341 338.208 347.807 334.574 352.84C331.359 357.439 323.792 365.412 321.287 370.31C325.094 373.211 337.215 361.223 340.654 359.129Z" fill="#63C5B5"/>
<path d="M376.729 299.49C369.542 301.158 365.46 308.659 362.776 315.479C359.748 323.257 358.478 332.118 353.431 338.849C343.913 351.48 331.912 365.614 324.315 369.077" stroke="white" stroke-miterlimit="10" stroke-linecap="round" stroke-linejoin="round"/>
<path d="M378.489 346.375C384.665 345.118 392.644 345.634 395.434 351.324C397.797 356.087 395.076 361.711 392.07 366.093C389.528 369.795 386.492 373.407 382.223 374.926C379.321 375.928 376.188 375.868 373.167 375.659C364.68 375.137 356.2 374.105 347.809 372.581C338.103 370.817 325.622 372.627 316.455 377.25C330.25 359.787 357.603 350.483 378.489 346.375Z" fill="#2C5B6D"/>
<path d="M386.432 360.65C378.969 359.634 371.476 358.782 364.013 359.635C356.385 360.459 326.183 368.141 320.822 372.86" stroke="white" stroke-miterlimit="10" stroke-linecap="round" stroke-linejoin="round"/>
<path d="M321.245 298.965C330.159 287.801 344.091 280.866 358.252 280.513C368.794 280.197 379.226 283.317 389.681 282.236C400.643 281.125 411.1 275.252 417.672 266.362C424.327 257.481 426.988 245.824 424.936 235.014C423.368 226.778 418.68 218.632 410.971 215.211C406.797 213.341 402.031 213.09 397.519 213.622C393.34 214.189 389.339 215.448 385.61 217.324C377.093 221.552 369.782 228.682 364.09 236.404C358.884 243.504 346.762 253.993 338.554 260.86C333.756 264.893 330.281 267.553 330.281 267.553C324.55 273.252 325.037 291.715 321.245 298.965Z" fill="#63C5B5"/>
<path d="M410.958 238.412C384.829 247.001 356.161 258.936 336.255 277.851" stroke="white" stroke-miterlimit="10" stroke-linecap="round" stroke-linejoin="round"/>
<path opacity="0.2" d="M334.133 274.855C334.133 274.855 374.478 248.685 385.711 217.168C377.193 221.396 369.882 228.526 364.19 236.248C358.984 243.348 346.863 253.838 338.655 260.705C337.301 264.765 335.803 269.399 334.133 274.855Z" fill="#5275A0"/>
<path opacity="0.2" d="M345.129 154.869C347.44 165.622 351.116 176.183 354.81 186.578C356.759 191.996 365.555 205.032 370.722 207.847C371.48 194.308 373.149 178.511 376.169 165.042C379.054 152.064 375.36 141.669 381.807 129.992C382.639 128.483 383.462 127.056 384.294 125.547C383.778 125.66 383.344 125.783 382.828 125.896C373.961 128.659 369.113 137.142 367.525 145.802C366.188 152.89 366.671 160.256 366.913 167.511C366.977 170.881 367.041 174.251 365.951 177.414L365.942 177.497C364.623 181.225 359.07 180.47 358.735 176.483L357.755 164.274C357.468 160.628 357.115 156.808 354.468 154.006C353.41 152.885 351.975 152.145 350.478 151.987C347.966 151.89 346.32 153.145 345.129 154.869Z" fill="#5275A0"/>
<path d="M334.932 267.286C344.068 237.313 347.645 232.899 345.876 224.978C343.587 214.816 346.536 205.207 344.413 195.062C342.374 184.926 341.336 174.056 344.885 164.342C346.05 161.271 347.999 157.945 351.832 158.266C353.338 158.341 354.764 159.165 355.823 160.285C358.469 163.087 358.822 166.908 359.109 170.553L360.089 182.763C360.424 186.75 365.977 187.505 367.296 183.777L367.305 183.693C368.396 180.53 368.331 177.16 368.267 173.791C368.025 166.535 367.533 159.253 368.88 152.081C370.55 143.43 375.398 134.947 384.265 132.185C387.39 131.254 390.834 131.281 393.906 132.447C402.482 135.623 403.896 144.516 401.784 151.775C400.325 156.833 397.404 161.4 394.658 165.902C388.015 177.054 390.873 188.201 388.772 200.926C383.034 236.134 334.932 267.286 334.932 267.286Z" fill="#2C5B6D"/>
<path d="M388.2 141.094C381.575 162.42 374.849 183.904 364.199 203.544C361.072 209.267 359.064 217.126 342.95 231.985" stroke="white" stroke-miterlimit="10" stroke-linecap="round" stroke-linejoin="round"/>
</g>
<g filter="url(#filter1_d)">
<path d="M340.847 36.6336L355.837 37.0655C356.002 31.1627 354.519 25.5477 352.048 20.6526L337.058 20.2207C339.694 25.1158 341.011 30.7307 340.847 36.6336Z" fill="#353535"/>
<path d="M337.057 20.2207L352.048 20.6526C349.906 16.7653 347.106 13.31 343.647 10.5745L328.656 10.1426C332.115 12.8781 334.916 16.3334 337.057 20.2207Z" fill="#353535"/>
<path d="M328.493 10.142L343.483 10.5739C338.047 6.11076 330.964 3.51925 323.386 3.37528L308.396 2.94336C316.138 3.08733 323.057 5.82281 328.493 10.142Z" fill="#353535"/>
<path d="M330.965 387.638L345.955 388.07L355.839 37.0647L340.848 36.6328L330.965 387.638Z" fill="#353535"/>
<path d="M296.7 420.034L311.69 420.466C330.14 420.898 345.46 406.357 345.954 388.073L330.964 387.641C330.469 405.925 315.149 420.466 296.7 420.034Z" fill="#353535"/>
<path d="M230.313 12.8789C228.666 12.8789 227.348 14.1747 227.183 15.7584C227.183 17.3421 228.501 18.7818 230.148 18.7818C231.796 18.7818 233.114 17.486 233.278 15.9023C233.278 14.3186 231.96 12.8789 230.313 12.8789Z" fill="white"/>
<path d="M213.84 26.8418C212.851 26.8418 212.028 27.7056 211.863 28.7134C211.863 29.7213 212.686 30.5851 213.675 30.5851L245.633 31.161C246.621 31.161 247.445 30.2971 247.609 29.2893C247.609 28.2815 246.786 27.4177 245.797 27.4177L213.84 26.8418Z" fill="white"/>
<path d="M227.001 374.248C218.849 374.105 212.001 380.554 211.837 388.723C211.674 396.892 218.033 403.627 226.186 403.771C234.338 403.914 241.187 397.465 241.35 389.296C241.676 381.127 235.154 374.392 227.001 374.248Z" fill="white"/>
<path d="M262.27 26.123C260.293 26.123 258.811 27.5628 258.646 29.4344C258.646 31.3061 260.129 32.8898 262.105 32.8898C264.082 32.8898 265.565 31.45 265.729 29.5784C265.565 27.7067 264.082 26.123 262.27 26.123Z" fill="white"/>
<rect x="141.912" y="45.918" width="188.537" height="332.416" fill="white"/>
<path d="M170.68 0.208597C152.23 -0.223321 136.91 14.3179 136.416 32.6025L126.532 383.608C126.038 401.893 140.535 417.01 158.984 417.298L296.699 420.033C315.149 420.465 330.469 405.924 330.963 387.639L340.847 36.6337C341.341 18.3492 326.845 3.23202 308.395 2.94407L170.68 0.208597ZM138.723 364.172L147.618 46.9997L328.492 50.5991L319.597 367.771L138.723 364.172ZM226.03 404.916C217.134 404.772 210.216 397.429 210.38 388.791C210.71 380.009 217.958 373.098 226.853 373.242C235.749 373.386 242.668 380.729 242.503 389.367C242.338 398.149 234.925 405.06 226.03 404.916ZM245.962 27.4194C246.951 27.4194 247.774 28.2833 247.774 29.2911C247.774 30.2989 246.951 31.1627 245.797 31.1627L213.84 30.5869C212.851 30.5869 212.028 29.723 212.028 28.7152C212.028 27.7074 212.851 26.8436 214.004 26.8436L245.962 27.4194ZM262.271 26.1237C264.247 26.1237 265.73 27.7074 265.73 29.579C265.73 31.4507 264.083 33.0344 262.106 32.8904C260.129 32.8904 258.646 31.3067 258.646 29.4351C258.646 27.5634 260.294 25.9797 262.271 26.1237Z" fill="#333333"/>
</g>
<path d="M32.856 272.214L37.6108 236.614C37.6108 236.614 68.4562 231.371 78.4535 219.057C87.7193 207.475 93.2056 197.6 93.2056 197.6L108.567 209.426C108.567 209.426 91.9865 250.878 60.0438 266.24" fill="#213E49"/>
<path d="M101.618 162.853L109.908 162C110.152 162 110.396 162 110.64 162C110.64 162 110.64 162 110.762 162C111.127 162 111.493 162 111.859 162.122L144.289 168.949C144.411 168.949 144.533 168.949 144.655 169.071C144.777 169.071 144.777 169.071 144.899 169.193C145.143 169.315 145.265 169.315 145.509 169.437C145.63 169.437 145.752 169.559 145.874 169.559C146.118 169.681 146.24 169.803 146.484 169.925C146.606 169.925 146.606 170.047 146.728 170.047C146.728 170.047 146.728 170.047 146.85 170.047C147.215 170.29 147.459 170.412 147.703 170.656L147.825 170.778C148.069 171.022 148.313 171.266 148.556 171.51C148.678 171.632 148.678 171.753 148.8 171.753C149.044 171.997 149.166 172.241 149.288 172.363C149.41 172.485 149.41 172.607 149.532 172.729C149.776 172.973 149.898 173.338 150.141 173.582L150.263 173.704C150.507 174.07 150.629 174.436 150.873 174.801C150.873 174.923 150.995 175.045 150.995 175.167C151.117 175.411 151.239 175.777 151.361 176.021C151.361 176.021 151.361 176.143 151.483 176.143V176.264C151.726 176.874 151.848 177.362 151.97 177.971C151.97 177.971 151.97 177.971 151.97 178.093V178.215C152.092 178.703 152.092 179.191 152.214 179.678C152.214 179.8 152.214 179.8 152.214 179.922V180.044C152.214 180.654 152.336 181.141 152.336 181.751V181.873C152.336 182.117 152.336 182.36 152.336 182.604L149.654 227.348C149.654 227.836 149.532 228.202 149.532 228.689V228.811C149.532 228.933 149.532 229.055 149.41 229.177C149.41 229.299 149.41 229.421 149.288 229.543C149.288 229.787 149.166 229.909 149.166 230.152C149.166 230.274 149.166 230.396 149.044 230.518C149.044 230.762 148.922 230.884 148.922 231.128C148.922 231.25 148.8 231.372 148.8 231.494C148.678 231.737 148.678 231.859 148.556 232.103C148.556 232.225 148.556 232.225 148.435 232.347C148.313 232.591 148.191 232.835 148.069 233.078L147.947 233.2C147.825 233.444 147.703 233.566 147.581 233.81C147.581 233.932 147.459 233.932 147.459 234.054C147.337 234.176 147.215 234.298 147.215 234.541C147.093 234.663 147.093 234.663 146.972 234.785C146.85 234.907 146.728 235.029 146.728 235.151C146.606 235.273 146.606 235.273 146.484 235.395C146.362 235.517 146.24 235.639 146.118 235.761C145.996 235.883 145.996 235.883 145.874 236.005C145.752 236.126 145.63 236.248 145.509 236.248C145.387 236.37 145.387 236.37 145.265 236.492C145.143 236.614 145.021 236.614 144.899 236.736C144.777 236.736 144.777 236.858 144.655 236.858C144.533 236.98 144.411 236.98 144.289 237.102C144.167 237.102 144.167 237.224 144.045 237.224C143.924 237.224 143.802 237.346 143.68 237.346C143.558 237.346 143.558 237.468 143.436 237.468C143.314 237.468 143.192 237.589 142.948 237.589C142.826 237.589 142.826 237.589 142.704 237.711C142.461 237.711 142.217 237.833 141.973 237.833L133.682 238.687C133.926 238.687 134.17 238.565 134.414 238.565C134.536 238.565 134.536 238.565 134.658 238.565C134.78 238.565 135.024 238.443 135.145 238.443C135.267 238.443 135.267 238.321 135.389 238.321C135.511 238.321 135.633 238.199 135.755 238.199C135.877 238.199 135.877 238.077 135.999 238.077C136.121 237.955 136.243 237.955 136.365 237.833C136.487 237.833 136.487 237.711 136.608 237.711C136.73 237.589 136.852 237.589 136.974 237.468C137.096 237.346 137.096 237.346 137.218 237.224C137.34 237.102 137.462 236.98 137.584 236.98C137.706 236.858 137.706 236.858 137.828 236.736C137.95 236.614 138.071 236.492 138.193 236.37C138.315 236.248 138.315 236.248 138.437 236.126C138.559 236.005 138.681 235.883 138.681 235.761C138.803 235.639 138.803 235.639 138.925 235.517C139.047 235.395 139.169 235.273 139.169 235.029C139.169 234.907 139.291 234.907 139.291 234.785C139.413 234.541 139.535 234.42 139.656 234.176L139.778 234.054C139.9 233.81 140.022 233.566 140.144 233.322C140.144 233.2 140.144 233.2 140.266 233.078C140.388 232.835 140.388 232.713 140.51 232.469C140.51 232.347 140.632 232.225 140.632 232.103C140.632 231.859 140.754 231.737 140.754 231.494C140.754 231.372 140.876 231.25 140.876 231.128C140.876 231.006 140.998 230.762 140.998 230.518C140.998 230.396 140.998 230.274 141.119 230.152C141.119 230.031 141.119 229.787 141.241 229.665C141.363 229.299 141.363 228.811 141.363 228.324L144.045 183.58C144.045 183.214 144.045 182.97 144.045 182.604C144.045 181.995 144.045 181.507 143.924 180.897C143.924 180.775 143.924 180.654 143.924 180.532C143.924 180.044 143.802 179.556 143.68 179.069C143.68 178.947 143.68 178.947 143.68 178.825C143.558 178.215 143.314 177.606 143.192 177.118C143.192 176.996 143.07 176.874 143.07 176.752C142.948 176.508 142.826 176.143 142.704 175.899C142.704 175.777 142.582 175.655 142.582 175.533C142.461 175.167 142.217 174.801 141.973 174.436C141.973 174.314 141.851 174.314 141.851 174.192C141.729 173.948 141.485 173.582 141.241 173.338C141.119 173.217 141.119 173.095 140.998 172.973C140.876 172.729 140.632 172.485 140.51 172.363C140.388 172.241 140.388 172.119 140.266 172.119C140.022 171.875 139.778 171.632 139.534 171.388L139.413 171.266C139.169 171.022 138.803 170.778 138.559 170.656C138.437 170.534 138.315 170.534 138.193 170.534C137.95 170.412 137.828 170.29 137.584 170.169C137.462 170.169 137.34 170.047 137.218 170.047C136.974 169.925 136.852 169.925 136.608 169.803C136.365 169.803 136.243 169.681 135.999 169.681L103.569 162.853C103.203 162.732 102.837 162.731 102.471 162.731C102.227 162.731 101.984 162.732 101.618 162.853Z" fill="#BB462C"/>
<path d="M103.569 162.853C98.8143 161.878 94.5472 166.389 94.1815 173.094L91.4992 217.838C91.1335 224.422 94.6691 230.64 99.4239 231.737L131.854 238.565C136.609 239.54 140.876 235.029 141.242 228.323L143.924 183.579C144.29 176.996 140.754 170.778 135.999 169.681L103.569 162.853Z" fill="#F15D3C"/>
<path d="M42.366 419.612C42.4879 422.173 42.7318 424.855 44.3167 426.684C46.1455 429 49.4373 429.61 52.3633 429.975C56.6305 430.585 60.8976 431.195 65.1648 431.804C65.4086 432.414 64.6771 433.023 64.0675 433.145C60.8976 434.243 57.4839 433.755 54.1921 433.389C50.4126 433.023 46.5112 432.779 42.6098 432.779C40.903 432.779 38.8304 432.658 37.977 431.073C37.3674 429.975 37.6112 428.634 37.7331 427.293C38.2208 423.392 37.1235 419.49 37.6112 415.589C37.7331 415.101 37.855 414.614 38.2208 414.492C38.4646 414.37 38.7084 414.492 38.9523 414.492C42.1222 415.345 42.1222 416.686 42.366 419.612Z" fill="#FAB8A3"/>
<path d="M41.1464 429.612C44.3163 431.563 47.608 432.051 51.2656 431.563C51.5094 431.563 52.7286 431.319 52.9724 431.197C53.0944 430.466 52.9724 429.734 53.582 429.856C56.2642 429.978 58.9465 430.222 61.6287 430.466C62.4821 430.588 65.652 430.71 66.0177 431.319C66.2616 431.929 66.1396 432.66 65.652 433.148C65.2862 433.636 64.5547 434.001 63.9451 434.123C60.8971 435.221 57.6054 435.099 54.3136 434.977C50.2902 434.733 46.3889 434.611 42.3656 434.367C41.0245 434.245 39.5614 434.245 38.4641 433.514C36.7573 432.416 36.1477 430.222 36.1477 428.271C36.1477 424.858 40.0491 428.881 41.1464 429.612Z" fill="#414042"/>
<path d="M104.667 426.318C105.154 428.756 105.764 431.438 107.593 433.145C109.787 435.218 112.957 435.34 116.005 435.34C120.272 435.34 124.661 435.462 128.928 435.462C129.172 436.071 128.563 436.681 127.953 436.925C125.027 438.388 121.491 438.388 118.199 438.509C114.298 438.631 110.519 438.875 106.617 439.363C104.91 439.607 102.838 439.729 101.862 438.388C101.131 437.412 101.131 435.949 101.131 434.73C101.131 430.829 99.4241 427.049 99.546 423.148C99.546 422.66 99.6679 422.172 100.034 421.929C100.277 421.807 100.521 421.807 100.765 421.807C103.935 422.05 104.179 423.392 104.667 426.318Z" fill="#FAB8A3"/>
<path d="M33.7094 299.525C33.7094 299.525 36.6355 329.152 37.7327 345.367C38.83 361.582 28.2231 396.207 28.5888 405.594C28.9546 414.982 31.1491 420.347 31.1491 420.347L53.826 420.103L61.5068 302.086L33.7094 299.525Z" fill="#414042"/>
<path d="M59.6553 208.123C58.9039 208.42 57.2315 205.97 55.9201 202.651C54.6086 199.332 54.1545 196.401 54.906 196.104C55.6574 195.807 57.3298 198.257 58.6413 201.576C59.9528 204.895 60.4068 207.826 59.6553 208.123Z" stroke="#414042" stroke-miterlimit="10"/>
<path d="M44.5606 230.639C34.5952 230.639 26.5166 222.56 26.5166 212.595C26.5166 202.629 34.5952 194.551 44.5606 194.551C54.526 194.551 62.6045 202.629 62.6045 212.595C62.6045 222.56 54.526 230.639 44.5606 230.639Z" fill="#FAB8A3"/>
<path d="M49.4376 221.374L53.4609 241.369L42.3664 245.392L37.9773 220.643L49.4376 221.374Z" fill="#FAB8A3"/>
<path d="M32.7336 295.258C32.7336 295.258 66.1393 297.452 76.7462 301.476C82.2325 318.178 105.885 414.494 108.201 424.491C104.666 425.223 89.1819 427.539 89.1819 427.539C89.1819 427.539 79.3065 417.298 69.6749 385.234C59.4338 351.34 36.635 313.911 34.9282 311.107C32.3679 306.962 32.7336 295.258 32.7336 295.258Z" fill="#414042"/>
<path d="M139.9 218.694C140.144 217.962 140.388 217.231 140.998 216.743C141.729 216.134 142.827 216.255 143.802 216.621C144.655 216.987 145.509 217.597 146.484 217.84C148.191 218.328 150.142 217.718 151.483 218.694C152.336 219.303 152.702 220.401 152.458 221.376C152.336 221.864 152.092 222.351 151.848 222.839C151.117 224.424 151.239 226.497 150.142 227.838C149.288 228.935 148.069 229.423 146.728 230.032C143.68 231.251 140.632 232.471 137.584 233.69C137.34 233.812 137.218 233.812 136.974 233.812C136.852 233.69 136.731 233.568 136.609 233.446C135.389 230.276 135.877 228.691 137.462 226.131C138.803 223.814 139.169 221.254 139.9 218.694Z" fill="#FAB8A3"/>
<path d="M104.911 436.437C108.324 437.9 111.616 438.022 115.152 437.046C115.396 437.046 116.615 436.559 116.737 436.559C116.737 435.827 116.615 435.217 117.224 435.096C119.907 434.852 122.589 434.73 125.271 434.73C126.124 434.73 129.294 434.364 129.66 434.974C130.026 435.461 129.904 436.315 129.538 436.802C129.172 437.412 128.563 437.778 128.075 438.022C125.271 439.607 121.857 439.85 118.687 440.094C114.664 440.46 110.763 440.826 106.739 441.07C105.398 441.192 103.935 441.313 102.716 440.704C100.887 439.85 100.034 437.778 99.79 435.827C99.3023 432.291 103.569 435.827 104.911 436.437Z" fill="#414042"/>
<path d="M141.973 210.526C142.217 209.916 142.461 209.306 143.071 209.185C143.802 208.941 144.534 209.428 144.777 210.16C145.021 210.891 145.021 211.623 144.899 212.354C144.656 214.427 144.534 216.378 144.29 218.45C144.168 219.548 143.924 221.011 142.827 221.376C142.095 221.742 140.998 221.376 140.51 220.767C139.413 219.426 140.145 217.963 140.388 216.5C140.754 214.427 141.12 212.476 141.973 210.526Z" fill="#FAB8A3"/>
<path d="M36.7569 244.297C37.3665 240.03 41.146 236.86 45.5351 236.982C54.8009 237.226 68.9434 238.323 71.2599 239.542C74.1859 241.127 93.6929 247.101 99.6669 247.101C105.641 247.101 130.512 224.668 130.512 224.668L142.704 237.713C142.704 237.713 120.515 265.511 112.224 268.802C103.934 271.972 77.8435 271.85 77.8435 271.85L76.6243 301.842C76.6243 301.842 37.8542 309.645 34.1966 303.183C30.5391 296.722 32.8555 272.338 32.8555 272.338L36.7569 244.297Z" fill="#2C5B6D"/>
<path d="M64.5069 211.174C63.7554 211.471 62.0831 209.021 60.7716 205.702C59.4601 202.383 59.0061 199.452 59.7575 199.155C60.509 198.858 62.1813 201.308 63.4928 204.627C64.8043 207.945 65.2583 210.877 64.5069 211.174Z" stroke="#414042" stroke-miterlimit="10"/>
<path d="M63.7021 204.793C62.9706 205.037 44.0733 211.986 44.0733 211.986" stroke="#414042" stroke-width="0.75" stroke-miterlimit="10"/>
<path d="M47.4108 206.51C46.6821 208.715 48.1394 211.533 46.4392 213.126C45.4677 213.984 44.1319 213.984 42.9175 214.229C40.7315 214.841 38.9099 216.802 38.667 219.13C38.4241 221.457 39.6385 223.785 41.703 224.888C42.3103 225.256 43.0389 225.378 43.5247 225.868C44.4962 226.848 44.3747 228.319 43.889 229.544C43.4032 230.769 42.6745 231.872 42.4317 233.219C41.9459 235.547 43.2818 237.875 44.1319 240.08C46.8036 247.187 44.9819 255.395 42.0674 262.379C39.8814 267.77 36.9668 273.038 32.7164 276.836C28.3445 280.634 22.3939 282.962 16.8076 281.615C11.2213 280.267 6.48513 274.876 6.97089 269.118C7.21378 266.912 8.06386 264.952 8.79251 262.992C10.9784 257.233 12.6786 250.74 10.2498 245.104C9.03537 242.041 6.60655 239.468 6.12079 236.16C5.39214 231.994 8.06387 227.828 11.3428 225.256C14.6217 222.683 18.6292 221.09 22.3939 219.007C26.0371 216.924 29.6804 213.984 30.8948 209.941C31.7449 207 31.3805 203.937 32.4735 200.997C33.9308 197.199 37.8169 194.626 41.8245 194.136C45.1034 193.645 53.2399 194.381 54.8187 198.056C56.276 202.467 48.5037 202.957 47.4108 206.51Z" fill="#414042"/>
<path d="M15.4586 225.77C13.5373 222.672 13.2971 217.963 16.059 215.485C17.2599 214.493 18.8209 213.998 19.7816 212.882C21.4628 211.148 21.3427 208.298 21.7029 205.943C22.4234 201.358 25.0652 197.145 28.7878 194.667C32.5104 192.188 37.3137 191.321 41.7568 192.56C42.8375 192.808 43.9183 193.304 44.5187 194.171C45.4793 195.658 44.8789 197.641 43.7982 199.004C42.7174 200.367 41.1564 201.234 39.8354 202.349C36.4731 205.447 35.2723 210.28 33.5911 214.617C31.5497 219.946 28.5477 224.902 24.8251 229.116C19.7816 234.94 18.7008 230.974 15.4586 225.77Z" fill="#414042"/>
<path d="M1.25013 248.341C-0.0818403 251.352 -0.324032 254.845 0.4025 257.976C1.00794 260.867 2.33993 263.637 4.27735 265.926C5.12497 267.01 6.21474 267.973 7.42563 268.455C8.87869 269.058 10.4529 269.058 12.027 268.937C17.3549 268.455 23.0461 266.649 25.5889 262.072C28.4951 256.772 27.042 242.198 20.0189 240.391C13.8434 238.705 3.91409 242.68 1.25013 248.341Z" fill="#414042"/>
<path d="M288.224 170.043L310.461 135.541L307.683 160.961L288.224 170.043Z" fill="white"/>
<path d="M324.721 174.035L310.533 135.552C307.79 144.531 306.498 153.105 307.754 160.972L324.721 174.035Z" fill="white"/>
<path d="M176.915 178.059L174.191 177.998C174.066 177.996 173.992 177.919 173.995 177.794L174.056 175.07C174.062 174.77 173.891 174.591 173.591 174.584L170.542 174.516C170.242 174.51 170.063 174.681 170.057 174.981L169.996 177.705C169.993 177.83 169.917 177.903 169.792 177.901L167.067 177.84C166.768 177.833 166.589 178.004 166.582 178.304L166.514 181.354C166.508 181.653 166.679 181.832 166.979 181.839L169.703 181.9C169.828 181.902 169.901 181.979 169.898 182.104L169.838 184.828C169.831 185.128 170.002 185.307 170.302 185.314L173.351 185.382C173.651 185.388 173.83 185.217 173.837 184.917L173.897 182.193C173.9 182.068 173.977 181.995 174.102 181.997L176.826 182.058C177.126 182.065 177.305 181.893 177.312 181.594L177.379 178.544C177.386 178.244 177.215 178.066 176.915 178.059ZM176.248 208.051L173.524 207.991C173.399 207.988 173.326 207.911 173.329 207.787L173.389 205.062C173.396 204.762 173.225 204.583 172.925 204.577L169.875 204.509C169.576 204.502 169.397 204.673 169.39 204.973L169.33 207.698C169.327 207.823 169.25 207.896 169.125 207.893L166.401 207.833C166.101 207.826 165.922 207.997 165.915 208.297L165.848 211.346C165.841 211.646 166.012 211.825 166.312 211.832L169.036 211.892C169.161 211.895 169.234 211.972 169.232 212.097L169.171 214.821C169.164 215.121 169.336 215.3 169.635 215.306L172.685 215.374C172.985 215.381 173.164 215.21 173.17 214.91L173.231 212.185C173.234 212.06 173.31 211.987 173.435 211.99L176.159 212.05C176.459 212.057 176.638 211.886 176.645 211.586L176.713 208.537C176.719 208.237 176.548 208.058 176.248 208.051ZM175.582 238.044L172.857 237.984C172.732 237.981 172.659 237.904 172.662 237.779L172.722 235.055C172.729 234.755 172.558 234.576 172.258 234.569L169.209 234.502C168.909 234.495 168.73 234.666 168.723 234.966L168.663 237.69C168.66 237.815 168.583 237.889 168.458 237.886L165.734 237.825C165.434 237.819 165.255 237.99 165.249 238.29L165.181 241.339C165.174 241.639 165.345 241.818 165.645 241.824L168.37 241.885C168.495 241.888 168.568 241.964 168.565 242.089L168.504 244.813C168.498 245.113 168.669 245.292 168.969 245.299L172.018 245.367C172.318 245.373 172.497 245.202 172.504 244.902L172.564 242.178C172.567 242.053 172.643 241.98 172.768 241.983L175.493 242.043C175.793 242.05 175.972 241.879 175.978 241.579L176.046 238.53C176.053 238.23 175.882 238.051 175.582 238.044ZM174.915 268.037L172.191 267.976C172.066 267.973 171.992 267.897 171.995 267.772L172.056 265.047C172.062 264.747 171.891 264.569 171.591 264.562L168.542 264.494C168.242 264.487 168.063 264.659 168.057 264.958L167.996 267.683C167.993 267.808 167.917 267.881 167.792 267.878L165.067 267.818C164.768 267.811 164.589 267.982 164.582 268.282L164.514 271.331C164.508 271.631 164.679 271.81 164.979 271.817L167.703 271.877C167.828 271.88 167.901 271.957 167.898 272.082L167.838 274.806C167.831 275.106 168.002 275.285 168.302 275.291L171.351 275.359C171.651 275.366 171.83 275.195 171.837 274.895L171.897 272.171C171.9 272.046 171.977 271.972 172.102 271.975L174.826 272.036C175.126 272.042 175.305 271.871 175.312 271.571L175.379 268.522C175.386 268.222 175.215 268.043 174.915 268.037Z" fill="#F15D3C"/>
<path d="M186.847 187.726C189.546 187.786 191.382 186.206 191.437 183.741L191.439 183.651C191.44 183.597 191.332 183.577 191.153 183.555L189.643 183.449C189.463 183.427 189.353 183.515 189.35 183.641C189.319 185.044 188.344 185.959 186.887 185.926C185.429 185.894 184.478 184.937 184.509 183.533L184.611 178.944C184.643 177.522 185.636 176.608 187.093 176.641C188.551 176.673 189.484 177.63 189.452 179.052L189.45 179.16C189.449 179.214 189.555 179.27 189.736 179.256L191.267 179.2C191.448 179.186 191.539 179.116 191.542 178.99C191.596 176.561 189.833 174.901 187.133 174.841C184.416 174.781 182.579 176.414 182.523 178.952L182.424 183.397C182.368 185.934 184.129 187.666 186.847 187.726ZM193.695 187.734L195.207 187.768C195.387 187.772 195.497 187.666 195.501 187.486L195.769 175.465C195.773 175.285 195.667 175.175 195.487 175.171L193.975 175.137C193.796 175.133 193.685 175.239 193.681 175.419L193.414 187.44C193.41 187.62 193.516 187.73 193.695 187.734ZM199.183 177.504C199.975 177.521 200.527 176.993 200.544 176.22C200.561 175.464 200.033 174.912 199.241 174.894C198.449 174.877 197.879 175.404 197.863 176.16C197.845 176.934 198.391 177.486 199.183 177.504ZM198.197 187.834L199.709 187.868C199.889 187.872 199.999 187.766 200.003 187.586L200.195 178.966C200.199 178.786 200.093 178.676 199.913 178.672L198.402 178.639C198.222 178.635 198.111 178.74 198.107 178.92L197.916 187.54C197.912 187.72 198.017 187.83 198.197 187.834ZM206.509 186.399C205.393 186.374 204.631 185.835 204.398 184.983C204.331 184.784 204.301 184.513 204.308 184.189C204.309 184.117 204.346 184.082 204.418 184.084L209.997 184.208C210.177 184.212 210.287 184.106 210.291 183.926C210.285 183.404 210.26 182.899 210.198 182.448C209.889 180.154 208.75 178.725 206.339 178.671C204.413 178.628 202.967 179.694 202.48 181.376C202.306 181.912 202.257 182.487 202.239 183.279C202.221 184.107 202.33 184.865 202.55 185.518C203.073 187.096 204.329 188.115 206.272 188.158C207.856 188.193 209.095 187.536 209.802 186.472C209.914 186.312 209.863 186.185 209.739 186.074L208.891 185.371C208.749 185.26 208.604 185.293 208.493 185.452C208.084 186.02 207.41 186.383 206.509 186.399ZM206.281 180.47C207.253 180.492 207.888 181.046 208.086 181.879C208.136 182.042 208.15 182.258 208.18 182.529C208.178 182.601 208.141 182.636 208.069 182.634L204.452 182.554C204.38 182.552 204.345 182.516 204.365 182.444C204.389 182.138 204.449 181.906 204.525 181.691C204.758 180.94 205.345 180.449 206.281 180.47ZM216.722 178.902C215.768 178.881 215.024 179.17 214.487 179.824C214.432 179.895 214.378 179.858 214.38 179.768L214.391 179.282C214.395 179.102 214.29 178.992 214.11 178.988L212.598 178.954C212.418 178.95 212.308 179.056 212.304 179.236L212.112 187.855C212.108 188.035 212.214 188.146 212.394 188.15L213.905 188.183C214.085 188.187 214.196 188.082 214.2 187.902L214.32 182.485C214.344 181.387 215.063 180.665 216.088 180.688C217.132 180.711 217.799 181.482 217.775 182.58L217.655 187.979C217.651 188.159 217.756 188.269 217.936 188.273L219.448 188.307C219.628 188.311 219.738 188.205 219.742 188.025L219.872 182.195C219.916 180.197 218.666 178.945 216.722 178.902ZM226.944 180.677L226.969 179.562C226.973 179.382 226.867 179.271 226.688 179.267L224.942 179.228C224.87 179.227 224.835 179.172 224.836 179.118L224.881 177.103C224.885 176.923 224.78 176.812 224.6 176.808L223.178 176.777C222.998 176.773 222.888 176.878 222.884 177.058L222.839 179.074C222.837 179.146 222.8 179.181 222.728 179.179L221.793 179.158C221.613 179.154 221.502 179.26 221.498 179.44L221.474 180.556C221.47 180.736 221.575 180.846 221.755 180.85L222.691 180.871C222.763 180.872 222.798 180.927 222.796 180.981L222.684 186.02C222.66 187.928 223.748 188.384 225.476 188.423C225.764 188.429 226.052 188.417 226.34 188.424C226.538 188.41 226.631 188.304 226.635 188.124L226.661 186.919C226.665 186.739 226.56 186.628 226.38 186.624L225.912 186.614C225.066 186.595 224.679 186.208 224.7 185.273L224.794 181.026C224.796 180.954 224.832 180.918 224.904 180.92L226.65 180.959C226.83 180.963 226.94 180.857 226.944 180.677ZM232.606 186.979C231.491 186.954 230.728 186.415 230.495 185.563C230.428 185.364 230.398 185.093 230.405 184.769C230.406 184.697 230.443 184.662 230.515 184.664L236.094 184.788C236.274 184.792 236.384 184.686 236.388 184.506C236.382 183.984 236.357 183.479 236.295 183.028C235.986 180.734 234.847 179.305 232.436 179.251C230.51 179.208 229.064 180.274 228.577 181.956C228.403 182.492 228.354 183.067 228.337 183.859C228.318 184.687 228.427 185.445 228.647 186.098C229.17 187.676 230.426 188.695 232.369 188.738C233.953 188.773 235.192 188.116 235.899 187.052C236.011 186.892 235.96 186.765 235.836 186.654L234.988 185.951C234.846 185.84 234.701 185.873 234.59 186.033C234.181 186.6 233.507 186.963 232.606 186.979ZM232.378 181.05C233.35 181.072 233.986 181.626 234.183 182.459C234.233 182.622 234.247 182.838 234.277 183.109C234.275 183.181 234.238 183.216 234.166 183.214L230.549 183.134C230.477 183.132 230.442 183.096 230.462 183.024C230.486 182.719 230.546 182.486 230.622 182.271C230.855 181.52 231.442 181.029 232.378 181.05ZM241.637 188.908C243.851 188.957 245.349 187.982 245.387 186.255C245.427 184.455 243.766 183.86 242.282 183.395C241.084 183.026 240.08 182.824 240.097 182.086C240.111 181.438 240.785 181.111 241.702 181.131C242.782 181.155 243.401 181.673 243.387 182.267L243.385 182.375C243.383 182.447 243.491 182.485 243.671 182.489L245.056 182.52C245.236 182.524 245.346 182.437 245.349 182.311C245.385 180.709 243.952 179.543 241.739 179.494C239.615 179.447 238.134 180.458 238.096 182.168C238.057 183.931 239.646 184.543 241.076 185.006C242.255 185.429 243.314 185.578 243.297 186.334C243.284 186.928 242.626 187.363 241.654 187.342C240.611 187.319 239.92 186.781 239.934 186.187L239.936 186.061C239.938 185.989 239.831 185.933 239.651 185.929L238.212 185.897C238.032 185.893 237.921 185.999 237.917 186.179L237.915 186.268C237.883 187.726 239.334 188.857 241.637 188.908ZM185.302 217.555L186.957 217.592C187.119 217.595 187.229 217.526 187.286 217.365L191.333 205.41C191.391 205.213 191.304 205.085 191.106 205.081L189.505 205.045C189.343 205.042 189.215 205.129 189.175 205.29L186.323 214.517C186.285 214.606 186.213 214.605 186.179 214.514L183.723 205.151C183.673 204.97 183.566 204.913 183.404 204.91L181.766 204.873C181.569 204.869 181.476 204.993 181.525 205.192L184.983 217.314C185.033 217.477 185.14 217.551 185.302 217.555ZM195.896 216.17C194.78 216.145 194.018 215.606 193.785 214.755C193.717 214.555 193.687 214.285 193.694 213.961C193.696 213.889 193.733 213.853 193.805 213.855L199.383 213.979C199.563 213.983 199.674 213.877 199.678 213.698C199.671 213.175 199.646 212.671 199.584 212.219C199.275 209.926 198.137 208.496 195.725 208.442C193.8 208.4 192.354 209.466 191.866 211.147C191.692 211.684 191.644 212.259 191.626 213.05C191.608 213.878 191.717 214.637 191.936 215.29C192.459 216.868 193.715 217.886 195.659 217.929C197.242 217.964 198.481 217.308 199.189 216.243C199.301 216.084 199.249 215.957 199.126 215.846L198.277 215.143C198.136 215.032 197.991 215.064 197.879 215.224C197.471 215.791 196.796 216.154 195.896 216.17ZM195.667 210.242C196.639 210.263 197.275 210.817 197.473 211.65C197.523 211.813 197.536 212.03 197.566 212.3C197.565 212.372 197.528 212.407 197.456 212.406L193.839 212.325C193.767 212.324 193.731 212.287 193.751 212.215C193.776 211.91 193.835 211.677 193.912 211.463C194.145 210.712 194.732 210.221 195.667 210.242ZM206.109 208.673C205.155 208.652 204.41 208.942 203.874 209.596C203.818 209.667 203.765 209.629 203.767 209.539L203.778 209.053C203.782 208.874 203.676 208.763 203.496 208.759L201.985 208.726C201.805 208.722 201.694 208.827 201.69 209.007L201.499 217.627C201.495 217.807 201.6 217.917 201.78 217.921L203.292 217.955C203.472 217.959 203.582 217.853 203.586 217.673L203.706 212.257C203.731 211.159 204.449 210.437 205.475 210.46C206.519 210.483 207.186 211.254 207.161 212.352L207.041 217.75C207.037 217.93 207.143 218.04 207.323 218.044L208.834 218.078C209.014 218.082 209.125 217.977 209.129 217.797L209.258 211.966C209.303 209.969 208.052 208.716 206.109 208.673ZM217.133 205.948L217.048 209.763C217.046 209.853 216.974 209.869 216.921 209.796C216.43 209.227 215.771 208.888 214.89 208.868C213.108 208.829 211.917 209.775 211.36 211.311C211.13 211.954 211.024 212.689 211.006 213.499C210.987 214.327 211.078 215.085 211.28 215.756C211.767 217.297 212.951 218.314 214.679 218.352C215.561 218.372 216.252 218.045 216.751 217.462C216.807 217.373 216.878 217.411 216.876 217.501L216.866 217.969C216.862 218.149 216.967 218.259 217.147 218.263L218.659 218.296C218.839 218.3 218.949 218.195 218.953 218.015L219.221 205.994C219.225 205.814 219.119 205.704 218.939 205.7L217.427 205.666C217.247 205.662 217.137 205.768 217.133 205.948ZM216.466 215.727C216.13 216.26 215.673 216.556 215.043 216.542C214.359 216.526 213.844 216.209 213.551 215.644C213.274 215.134 213.146 214.429 213.164 213.583C213.185 212.647 213.382 211.914 213.735 211.399C214.07 210.921 214.562 210.662 215.191 210.676C215.785 210.689 216.229 210.987 216.524 211.497C216.818 212.008 216.946 212.731 216.926 213.649C216.907 214.513 216.764 215.248 216.466 215.727ZM224.909 209.091C222.84 209.045 221.341 210.038 221.094 211.455C221.073 211.58 221.179 211.673 221.358 211.695L222.974 211.929C223.153 211.951 223.245 211.881 223.303 211.702C223.494 211.184 224.059 210.873 224.923 210.892C226.057 210.917 226.584 211.487 226.564 212.405L226.555 212.819C226.553 212.891 226.516 212.926 226.444 212.924L224.537 212.882C222.143 212.829 220.769 213.914 220.728 215.768C220.686 217.657 222.035 218.516 223.709 218.553C224.788 218.577 225.677 218.272 226.321 217.675C226.394 217.622 226.448 217.641 226.446 217.731L226.436 218.181C226.432 218.361 226.537 218.472 226.717 218.476L228.229 218.509C228.409 218.513 228.519 218.408 228.523 218.228L228.656 212.235C228.695 210.472 227.231 209.143 224.909 209.091ZM224.321 216.91C223.457 216.891 222.801 216.462 222.818 215.67C222.838 214.77 223.659 214.303 224.919 214.331L226.412 214.364C226.484 214.365 226.52 214.402 226.518 214.474L226.5 215.302C226.478 216.292 225.455 216.935 224.321 216.91ZM234.029 218.746C236.243 218.795 237.741 217.82 237.779 216.093C237.819 214.293 236.158 213.698 234.674 213.233C233.476 212.864 232.472 212.662 232.488 211.924C232.503 211.276 233.176 210.949 234.094 210.97C235.174 210.994 235.792 211.512 235.779 212.105L235.777 212.213C235.775 212.285 235.882 212.324 236.062 212.328L237.448 212.359C237.628 212.363 237.738 212.275 237.741 212.149C237.776 210.547 236.344 209.381 234.13 209.332C232.007 209.285 230.526 210.296 230.488 212.006C230.449 213.769 232.038 214.381 233.468 214.845C234.647 215.267 235.706 215.417 235.689 216.172C235.676 216.766 235.018 217.202 234.046 217.18C233.002 217.157 232.312 216.619 232.325 216.026L232.328 215.9C232.33 215.828 232.223 215.771 232.043 215.767L230.603 215.735C230.423 215.731 230.313 215.837 230.309 216.017L230.307 216.107C230.274 217.564 231.726 218.695 234.029 218.746ZM185.351 247.708C188.123 247.769 189.846 246.385 189.893 244.28C189.944 241.976 187.891 241.174 186.071 240.432C184.019 239.63 183.163 239.251 183.187 238.153C183.21 237.145 183.978 236.586 185.31 236.616C187.002 236.654 187.899 237.61 187.875 238.689L187.87 238.887C187.867 239.013 187.973 239.106 188.153 239.11L189.629 239.143C189.809 239.147 189.919 239.041 189.923 238.861L189.928 238.627C189.978 236.414 188.175 234.879 185.44 234.818C182.903 234.762 181.183 236.002 181.135 238.144C181.084 240.429 183.011 241.246 184.974 242.01C186.901 242.809 187.827 243.243 187.804 244.287C187.784 245.205 187.101 245.946 185.553 245.912C183.898 245.875 182.909 244.989 182.933 243.927L182.939 243.639C182.943 243.459 182.837 243.367 182.657 243.363L181.182 243.33C181.002 243.326 180.891 243.431 180.887 243.611L180.879 243.989C180.83 246.185 182.58 247.646 185.351 247.708ZM195.879 246.177C194.764 246.152 194.001 245.613 193.768 244.762C193.701 244.562 193.671 244.292 193.678 243.968C193.679 243.896 193.716 243.861 193.788 243.862L199.367 243.986C199.547 243.99 199.657 243.885 199.661 243.705C199.655 243.182 199.63 242.678 199.568 242.226C199.259 239.933 198.12 238.503 195.709 238.449C193.783 238.407 192.337 239.473 191.85 241.154C191.676 241.691 191.627 242.266 191.61 243.057C191.591 243.885 191.7 244.644 191.92 245.297C192.443 246.875 193.699 247.893 195.642 247.936C197.226 247.972 198.465 247.315 199.172 246.25C199.284 246.091 199.233 245.964 199.109 245.853L198.261 245.15C198.119 245.039 197.974 245.071 197.863 245.231C197.454 245.798 196.78 246.161 195.879 246.177ZM195.651 240.249C196.623 240.27 197.259 240.824 197.456 241.657C197.507 241.82 197.52 242.037 197.55 242.307C197.548 242.379 197.511 242.414 197.439 242.413L193.822 242.332C193.75 242.331 193.715 242.294 193.735 242.223C193.759 241.917 193.819 241.684 193.895 241.47C194.128 240.719 194.715 240.228 195.651 240.249ZM207.306 239.139L207.299 239.463C207.297 239.553 207.242 239.588 207.172 239.514C206.679 238.999 205.984 238.678 204.995 238.656C203.375 238.62 202.129 239.582 201.63 240.994C201.381 241.636 201.31 242.427 201.291 243.273C201.274 244.046 201.311 244.804 201.477 245.455C201.978 247.213 203.51 247.913 204.914 247.944C205.886 247.966 206.541 247.674 207.001 247.217C207.074 247.146 207.128 247.183 207.126 247.273L207.123 247.381C207.08 249.343 205.898 249.839 203.581 249.589C203.384 249.567 203.256 249.654 203.252 249.834L203.168 251.164C203.164 251.362 203.233 251.472 203.413 251.494C206.268 251.827 209.128 251.153 209.209 247.482L209.394 239.186C209.398 239.006 209.292 238.895 209.112 238.891L207.601 238.858C207.421 238.854 207.31 238.959 207.306 239.139ZM207.05 244.985C206.854 245.701 206.284 246.264 205.312 246.243C204.376 246.222 203.759 245.632 203.542 244.889C203.44 244.617 203.379 244.111 203.397 243.319C203.413 242.564 203.496 242.079 203.648 241.741C203.916 241.008 204.505 240.445 205.422 240.466C206.358 240.487 206.94 241.058 207.103 241.817C207.203 242.18 207.233 242.433 207.212 243.386C207.19 244.358 207.148 244.645 207.05 244.985ZM216.985 239.354L216.865 244.753C216.84 245.869 216.122 246.591 215.042 246.567C213.962 246.543 213.385 245.792 213.41 244.676L213.53 239.278C213.534 239.098 213.428 238.987 213.248 238.983L211.737 238.95C211.557 238.946 211.446 239.051 211.442 239.231L211.309 245.224C211.264 247.257 212.753 248.299 214.463 248.337C215.47 248.359 216.197 248.051 216.679 247.468C216.735 247.379 216.806 247.416 216.804 247.506L216.793 247.974C216.789 248.154 216.895 248.265 217.075 248.269L218.568 248.302C218.748 248.306 218.859 248.2 218.863 248.02L219.054 239.4C219.058 239.221 218.953 239.11 218.773 239.106L217.279 239.073C217.099 239.069 216.989 239.175 216.985 239.354ZM225.578 239.149C224.642 239.129 223.949 239.545 223.465 240.237C223.409 240.325 223.356 240.288 223.358 240.198L223.374 239.496C223.378 239.317 223.272 239.206 223.092 239.202L221.58 239.169C221.4 239.165 221.29 239.27 221.286 239.45L221.095 248.07C221.091 248.25 221.196 248.36 221.376 248.364L222.888 248.398C223.068 248.402 223.178 248.296 223.182 248.116L223.294 243.096C223.318 241.998 224.125 241.35 225.098 241.317C225.459 241.271 225.782 241.314 226.014 241.392C226.211 241.45 226.32 241.416 226.36 241.219L226.681 239.732C226.721 239.571 226.67 239.444 226.527 239.369C226.296 239.255 226.01 239.159 225.578 239.149ZM231.483 239.245C229.413 239.199 227.915 240.192 227.667 241.608C227.647 241.734 227.753 241.826 227.932 241.848L229.547 242.082C229.727 242.104 229.818 242.034 229.876 241.856C230.068 241.338 230.633 241.026 231.497 241.045C232.631 241.071 233.158 241.64 233.138 242.558L233.128 242.972C233.127 243.044 233.09 243.079 233.018 243.078L231.111 243.035C228.717 242.982 227.343 244.068 227.301 245.921C227.259 247.811 228.609 248.669 230.282 248.706C231.362 248.73 232.251 248.426 232.894 247.828C232.968 247.776 233.021 247.795 233.019 247.885L233.009 248.335C233.005 248.515 233.111 248.625 233.291 248.629L234.802 248.663C234.982 248.667 235.093 248.561 235.097 248.381L235.23 242.389C235.269 240.625 233.804 239.296 231.483 239.245ZM230.895 247.063C230.031 247.044 229.375 246.616 229.392 245.824C229.412 244.924 230.233 244.456 231.492 244.484L232.986 244.517C233.058 244.519 233.093 244.556 233.092 244.628L233.073 245.456C233.051 246.445 232.029 247.089 230.895 247.063ZM241.785 239.474C240.831 239.452 240.086 239.742 239.55 240.396C239.494 240.467 239.441 240.43 239.443 240.34L239.454 239.854C239.458 239.674 239.352 239.564 239.172 239.56L237.66 239.526C237.48 239.522 237.37 239.628 237.366 239.808L237.175 248.427C237.171 248.607 237.276 248.718 237.456 248.722L238.968 248.755C239.148 248.759 239.258 248.654 239.262 248.474L239.382 243.057C239.407 241.959 240.125 241.237 241.151 241.26C242.195 241.283 242.862 242.054 242.837 243.152L242.717 248.551C242.713 248.731 242.819 248.841 242.999 248.845L244.51 248.879C244.69 248.883 244.801 248.777 244.805 248.597L244.934 242.766C244.979 240.769 243.728 239.517 241.785 239.474ZM252.673 246.125C252.457 246.895 251.744 247.383 250.827 247.363C249.873 247.341 249.255 246.787 249.039 245.954C248.957 245.611 248.897 245.087 248.913 244.349C248.929 243.647 249.013 243.091 249.129 242.752C249.362 241.965 250.022 241.457 250.957 241.478C251.929 241.5 252.618 242.091 252.765 242.796L252.813 243.032C252.846 243.194 252.952 243.287 253.132 243.255L254.631 243.054C254.812 243.022 254.904 242.934 254.872 242.735C254.857 242.609 254.843 242.429 254.776 242.229C254.375 240.834 252.923 239.721 250.997 239.678C249.144 239.637 247.682 240.595 247.143 242.167C246.952 242.685 246.829 243.349 246.808 244.284C246.79 245.112 246.846 245.834 247.048 246.45C247.468 247.792 248.491 248.751 249.889 249.052C249.942 249.071 249.978 249.09 250.014 249.109C250.632 249.645 251.016 250.175 250.897 250.659C250.78 251.088 250.363 251.205 249.916 251.087C249.718 251.047 249.609 251.116 249.569 251.296L249.466 251.851C249.445 252.013 249.496 252.14 249.657 252.198C250.461 252.45 251.882 252.517 252.252 251.265C252.429 250.621 252.228 249.914 251.559 249.251C251.488 249.196 251.508 249.124 251.598 249.126C253.079 248.907 254.25 248.051 254.675 246.746C254.714 246.621 254.735 246.495 254.755 246.388C254.795 246.208 254.708 246.098 254.528 246.058L253.04 245.791C252.861 245.751 252.713 245.946 252.693 246.036C252.693 246.036 252.692 246.072 252.673 246.125ZM260.234 239.884C258.164 239.838 256.666 240.831 256.418 242.247C256.397 242.373 256.503 242.465 256.683 242.487L258.298 242.721C258.478 242.743 258.569 242.673 258.627 242.495C258.819 241.977 259.384 241.665 260.248 241.684C261.381 241.71 261.909 242.28 261.888 243.197L261.879 243.611C261.878 243.683 261.841 243.718 261.769 243.717L259.861 243.674C257.468 243.621 256.093 244.707 256.052 246.56C256.01 248.45 257.359 249.308 259.033 249.345C260.113 249.369 261.002 249.065 261.645 248.467C261.718 248.415 261.772 248.434 261.77 248.524L261.76 248.974C261.756 249.154 261.862 249.264 262.041 249.268L263.553 249.302C263.733 249.306 263.843 249.2 263.847 249.02L263.981 243.028C264.02 241.264 262.555 239.935 260.234 239.884ZM259.646 247.703C258.782 247.683 258.125 247.255 258.143 246.463C258.163 245.563 258.983 245.095 260.243 245.123L261.737 245.156C261.809 245.158 261.844 245.195 261.842 245.267L261.824 246.095C261.802 247.084 260.779 247.728 259.646 247.703ZM188.521 277.641L190.159 277.678C190.357 277.682 190.449 277.558 190.4 277.359L186.798 265.234C186.748 265.071 186.642 264.997 186.48 264.993L184.374 264.946C184.212 264.943 184.103 265.012 184.045 265.173L179.926 277.126C179.868 277.323 179.955 277.451 180.153 277.455L181.791 277.492C181.953 277.495 182.062 277.426 182.12 277.265L182.719 275.424C182.739 275.352 182.793 275.336 182.847 275.337L187.562 275.442C187.616 275.443 187.669 275.462 187.686 275.534L188.202 277.4C188.253 277.563 188.359 277.638 188.521 277.641ZM183.318 273.583L185.308 267.505C185.346 267.416 185.418 267.418 185.451 267.509L187.169 273.668C187.185 273.759 187.148 273.794 187.076 273.792L183.405 273.711C183.333 273.709 183.298 273.672 183.318 273.583ZM195.659 277.944C197.512 277.985 199.045 277.065 199.547 275.528C199.586 275.403 199.607 275.277 199.627 275.17C199.667 274.99 199.58 274.88 199.401 274.84L197.912 274.573C197.733 274.533 197.585 274.728 197.565 274.818C197.565 274.818 197.564 274.854 197.545 274.907C197.33 275.677 196.617 276.165 195.699 276.145C194.745 276.123 194.127 275.569 193.912 274.736C193.829 274.393 193.769 273.869 193.785 273.131C193.801 272.429 193.885 271.873 194.001 271.534C194.234 270.747 194.894 270.239 195.83 270.26C196.801 270.282 197.49 270.873 197.637 271.578L197.685 271.814C197.718 271.976 197.824 272.069 198.005 272.037L199.503 271.836C199.684 271.804 199.776 271.716 199.745 271.517C199.729 271.391 199.715 271.211 199.648 271.011C199.247 269.616 197.795 268.503 195.87 268.46C194.016 268.419 192.554 269.377 192.015 270.949C191.824 271.467 191.701 272.131 191.68 273.066C191.662 273.894 191.718 274.616 191.92 275.232C192.406 276.846 193.805 277.903 195.659 277.944ZM205.458 276.397C204.342 276.373 203.58 275.834 203.347 274.982C203.279 274.783 203.249 274.512 203.257 274.188C203.258 274.116 203.295 274.081 203.367 274.082L208.946 274.206C209.126 274.21 209.236 274.105 209.24 273.925C209.234 273.403 209.209 272.898 209.147 272.446C208.838 270.153 207.699 268.723 205.288 268.67C203.362 268.627 201.916 269.693 201.429 271.375C201.255 271.911 201.206 272.486 201.188 273.278C201.17 274.106 201.279 274.864 201.499 275.517C202.022 277.095 203.277 278.113 205.221 278.157C206.805 278.192 208.043 277.535 208.751 276.471C208.863 276.311 208.812 276.184 208.688 276.073L207.84 275.37C207.698 275.259 207.553 275.292 207.442 275.451C207.033 276.018 206.359 276.381 205.458 276.397ZM205.23 270.469C206.202 270.491 206.837 271.045 207.035 271.877C207.085 272.041 207.099 272.257 207.129 272.528C207.127 272.6 207.09 272.635 207.018 272.633L203.401 272.553C203.329 272.551 203.294 272.514 203.313 272.443C203.338 272.137 203.397 271.905 203.474 271.69C203.707 270.939 204.294 270.448 205.23 270.469ZM214.489 278.327C216.703 278.376 218.201 277.401 218.239 275.673C218.279 273.874 216.618 273.279 215.134 272.814C213.936 272.445 212.932 272.243 212.949 271.505C212.963 270.857 213.636 270.53 214.554 270.55C215.634 270.574 216.253 271.092 216.239 271.686L216.237 271.794C216.235 271.866 216.343 271.904 216.522 271.908L217.908 271.939C218.088 271.943 218.198 271.855 218.201 271.729C218.236 270.128 216.804 268.962 214.591 268.913C212.467 268.865 210.986 269.877 210.948 271.586C210.909 273.35 212.498 273.961 213.928 274.425C215.107 274.848 216.166 274.997 216.149 275.753C216.136 276.347 215.478 276.782 214.506 276.761C213.462 276.737 212.772 276.2 212.785 275.606L212.788 275.48C212.79 275.408 212.683 275.352 212.503 275.348L211.063 275.316C210.883 275.312 210.773 275.417 210.769 275.597L210.767 275.687C210.735 277.145 212.186 278.275 214.489 278.327ZM223.206 278.52C225.419 278.57 226.917 277.595 226.956 275.867C226.996 274.068 225.335 273.472 223.851 273.007C222.653 272.639 221.649 272.436 221.665 271.698C221.68 271.051 222.353 270.724 223.271 270.744C224.351 270.768 224.969 271.286 224.956 271.88L224.954 271.988C224.952 272.06 225.059 272.098 225.239 272.102L226.625 272.133C226.805 272.137 226.915 272.049 226.917 271.923C226.953 270.322 225.521 269.156 223.307 269.106C221.184 269.059 219.703 270.07 219.665 271.78C219.626 273.544 221.214 274.155 222.645 274.619C223.823 275.041 224.882 275.191 224.866 275.947C224.852 276.54 224.195 276.976 223.223 276.954C222.179 276.931 221.489 276.394 221.502 275.8L221.505 275.674C221.506 275.602 221.4 275.546 221.22 275.542L219.78 275.51C219.6 275.506 219.49 275.611 219.486 275.791L219.484 275.881C219.451 277.339 220.903 278.469 223.206 278.52ZM230.081 268.213C230.873 268.23 231.425 267.702 231.442 266.929C231.459 266.173 230.931 265.621 230.139 265.603C229.347 265.586 228.778 266.113 228.761 266.869C228.744 267.643 229.289 268.195 230.081 268.213ZM229.095 278.543L230.607 278.577C230.787 278.581 230.897 278.475 230.901 278.295L231.093 269.675C231.097 269.496 230.991 269.385 230.811 269.381L229.3 269.348C229.12 269.344 229.01 269.449 229.006 269.629L228.814 278.249C228.81 278.429 228.915 278.539 229.095 278.543ZM241.158 271.988C240.671 270.429 239.522 269.431 237.741 269.391C236.859 269.372 236.186 269.681 235.67 270.227C235.614 270.298 235.543 270.279 235.545 270.189L235.629 266.373C235.633 266.194 235.528 266.083 235.348 266.079L233.836 266.046C233.656 266.042 233.546 266.147 233.542 266.327L233.275 278.348C233.271 278.528 233.376 278.638 233.556 278.642L235.068 278.676C235.248 278.68 235.358 278.574 235.362 278.395L235.373 277.927C235.375 277.837 235.447 277.802 235.499 277.893C235.972 278.498 236.648 278.855 237.53 278.875C239.258 278.913 240.485 277.95 241.041 276.432C241.272 275.771 241.397 275.018 241.415 274.19C241.433 273.38 241.36 272.64 241.158 271.988ZM238.777 276.22C238.459 276.771 237.93 277.065 237.247 277.05C236.617 277.036 236.174 276.72 235.862 276.173C235.585 275.681 235.475 274.94 235.494 274.076C235.515 273.159 235.675 272.442 235.992 271.945C236.309 271.448 236.765 271.17 237.359 271.183C237.989 271.197 238.469 271.478 238.782 271.971C239.112 272.5 239.276 273.242 239.255 274.178C239.236 275.024 239.076 275.722 238.777 276.22ZM244.58 268.535C245.371 268.553 245.923 268.025 245.94 267.251C245.957 266.495 245.429 265.943 244.638 265.926C243.846 265.908 243.276 266.435 243.259 267.191C243.242 267.965 243.788 268.517 244.58 268.535ZM243.594 278.866L245.105 278.899C245.285 278.903 245.396 278.798 245.4 278.618L245.591 269.998C245.595 269.818 245.49 269.707 245.31 269.703L243.798 269.67C243.618 269.666 243.508 269.771 243.504 269.951L243.312 278.571C243.308 278.751 243.414 278.862 243.594 278.866ZM248.055 278.965L249.566 278.998C249.746 279.002 249.857 278.897 249.861 278.717L250.128 266.696C250.132 266.516 250.026 266.405 249.846 266.401L248.335 266.368C248.155 266.364 248.044 266.469 248.04 266.649L247.773 278.67C247.769 278.85 247.875 278.961 248.055 278.965ZM253.542 268.734C254.334 268.752 254.886 268.224 254.903 267.45C254.92 266.694 254.392 266.142 253.6 266.125C252.808 266.107 252.239 266.635 252.222 267.39C252.205 268.164 252.75 268.717 253.542 268.734ZM252.556 279.065L254.068 279.098C254.248 279.102 254.358 278.997 254.362 278.817L254.554 270.197C254.558 270.017 254.452 269.907 254.272 269.903L252.761 269.869C252.581 269.865 252.471 269.971 252.467 270.151L252.275 278.77C252.271 278.95 252.376 279.061 252.556 279.065ZM262.564 266.972L262.479 270.787C262.477 270.877 262.404 270.894 262.352 270.82C261.86 270.251 261.202 269.913 260.32 269.893C258.538 269.853 257.347 270.799 256.791 272.335C256.561 272.978 256.454 273.714 256.436 274.524C256.418 275.352 256.509 276.11 256.71 276.781C257.198 278.322 258.382 279.338 260.109 279.377C260.991 279.396 261.682 279.07 262.182 278.487C262.238 278.398 262.309 278.435 262.307 278.525L262.296 278.993C262.292 279.173 262.398 279.284 262.578 279.288L264.089 279.321C264.269 279.325 264.38 279.22 264.384 279.04L264.651 267.019C264.655 266.839 264.549 266.728 264.369 266.724L262.858 266.691C262.678 266.687 262.568 266.792 262.564 266.972ZM261.896 276.752C261.56 277.284 261.103 277.58 260.474 277.566C259.79 277.551 259.275 277.234 258.981 276.669C258.704 276.159 258.576 275.454 258.595 274.608C258.616 273.672 258.812 272.938 259.166 272.424C259.5 271.945 259.992 271.686 260.622 271.7C261.216 271.713 261.659 272.011 261.954 272.522C262.249 273.033 262.377 273.756 262.356 274.673C262.337 275.537 262.195 276.272 261.896 276.752ZM270.34 270.116C268.27 270.07 266.772 271.063 266.524 272.48C266.503 272.605 266.609 272.697 266.789 272.719L268.404 272.953C268.584 272.975 268.675 272.905 268.733 272.727C268.925 272.209 269.49 271.897 270.354 271.917C271.487 271.942 272.015 272.512 271.994 273.429L271.985 273.843C271.984 273.915 271.947 273.95 271.875 273.949L269.967 273.906C267.574 273.853 266.199 274.939 266.158 276.792C266.116 278.682 267.466 279.54 269.139 279.577C270.219 279.601 271.108 279.297 271.751 278.699C271.824 278.647 271.878 278.666 271.876 278.756L271.866 279.206C271.862 279.386 271.968 279.496 272.148 279.5L273.659 279.534C273.839 279.538 273.95 279.432 273.954 279.252L274.087 273.26C274.126 271.496 272.661 270.167 270.34 270.116ZM269.752 277.935C268.888 277.915 268.231 277.487 268.249 276.695C268.269 275.795 269.09 275.327 270.349 275.355L271.843 275.388C271.915 275.39 271.95 275.427 271.948 275.499L271.93 276.327C271.908 277.316 270.885 277.96 269.752 277.935ZM281.877 267.401L281.792 271.217C281.79 271.307 281.718 271.323 281.666 271.25C281.174 270.681 280.515 270.342 279.634 270.322C277.852 270.283 276.661 271.228 276.105 272.765C275.874 273.408 275.768 274.143 275.75 274.953C275.731 275.781 275.823 276.539 276.024 277.21C276.512 278.751 277.695 279.768 279.423 279.806C280.305 279.826 280.996 279.499 281.495 278.916C281.551 278.827 281.622 278.865 281.62 278.955L281.61 279.423C281.606 279.602 281.711 279.713 281.891 279.717L283.403 279.75C283.583 279.754 283.693 279.649 283.697 279.469L283.965 267.448C283.969 267.268 283.863 267.158 283.683 267.154L282.171 267.12C281.991 267.116 281.881 267.222 281.877 267.401ZM281.21 277.181C280.874 277.714 280.417 278.01 279.787 277.996C279.103 277.98 278.588 277.663 278.295 277.098C278.018 276.588 277.89 275.883 277.908 275.037C277.929 274.101 278.126 273.368 278.479 272.853C278.814 272.375 279.306 272.115 279.936 272.129C280.529 272.143 280.973 272.441 281.268 272.951C281.562 273.462 281.69 274.185 281.67 275.103C281.651 275.967 281.508 276.702 281.21 277.181ZM290.093 278.279C288.978 278.254 288.216 277.715 287.982 276.863C287.915 276.664 287.885 276.393 287.892 276.069C287.894 275.997 287.93 275.962 288.002 275.964L293.581 276.088C293.761 276.092 293.871 275.986 293.875 275.806C293.869 275.284 293.844 274.779 293.782 274.328C293.473 272.034 292.335 270.605 289.923 270.551C287.998 270.508 286.552 271.574 286.064 273.256C285.89 273.792 285.841 274.367 285.824 275.159C285.805 275.987 285.915 276.746 286.134 277.399C286.657 278.977 287.913 279.995 289.856 280.038C291.44 280.073 292.679 279.416 293.387 278.352C293.498 278.192 293.447 278.065 293.323 277.954L292.475 277.251C292.333 277.14 292.189 277.173 292.077 277.333C291.668 277.9 290.994 278.263 290.093 278.279ZM289.865 272.35C290.837 272.372 291.473 272.926 291.67 273.759C291.721 273.922 291.734 274.138 291.764 274.409C291.762 274.481 291.726 274.516 291.654 274.514L288.036 274.434C287.964 274.432 287.929 274.396 287.949 274.324C287.974 274.019 288.033 273.786 288.11 273.572C288.342 272.82 288.929 272.329 289.865 272.35Z" fill="#333333"/>
<path d="M175.208 120.067C178.657 120.144 181.002 118.125 181.072 114.975L181.074 114.86C181.076 114.791 180.938 114.765 180.709 114.737L178.78 114.602C178.55 114.574 178.41 114.686 178.406 114.847C178.366 116.64 177.121 117.809 175.259 117.768C173.396 117.726 172.181 116.503 172.221 114.71L172.351 108.846C172.391 107.03 173.659 105.861 175.522 105.903C177.384 105.944 178.576 107.167 178.536 108.983L178.533 109.121C178.531 109.19 178.668 109.262 178.898 109.244L180.855 109.173C181.086 109.155 181.203 109.065 181.206 108.904C181.275 105.8 179.022 103.68 175.573 103.603C172.1 103.526 169.754 105.614 169.682 108.856L169.556 114.536C169.484 117.778 171.735 119.99 175.208 120.067ZM189.466 108.259C188.247 108.232 187.296 108.602 186.61 109.438C186.539 109.529 186.471 109.481 186.474 109.366L186.584 104.4C186.589 104.17 186.454 104.029 186.224 104.023L184.292 103.981C184.063 103.976 183.921 104.11 183.916 104.34L183.576 119.701C183.571 119.931 183.706 120.072 183.936 120.077L185.867 120.119C186.097 120.125 186.238 119.99 186.243 119.76L186.397 112.838C186.428 111.436 187.345 110.513 188.656 110.542C189.99 110.572 190.842 111.557 190.811 112.959L190.658 119.858C190.653 120.088 190.788 120.229 191.018 120.234L192.949 120.277C193.179 120.282 193.32 120.147 193.325 119.917L193.491 112.467C193.547 109.914 191.949 108.314 189.466 108.259ZM201.387 118.393C199.961 118.361 198.987 117.673 198.689 116.585C198.603 116.33 198.565 115.984 198.574 115.57C198.576 115.478 198.623 115.433 198.715 115.435L205.843 115.593C206.073 115.598 206.214 115.463 206.219 115.233C206.211 114.566 206.179 113.921 206.1 113.344C205.705 110.414 204.25 108.587 201.169 108.519C198.708 108.464 196.861 109.827 196.238 111.975C196.016 112.661 195.953 113.395 195.931 114.407C195.908 115.465 196.047 116.434 196.328 117.269C196.996 119.285 198.601 120.586 201.084 120.641C203.108 120.686 204.691 119.847 205.595 118.486C205.737 118.282 205.672 118.12 205.514 117.978L204.43 117.08C204.249 116.938 204.064 116.98 203.921 117.184C203.399 117.909 202.538 118.373 201.387 118.393ZM201.095 110.818C202.336 110.845 203.149 111.553 203.401 112.617C203.466 112.826 203.483 113.102 203.521 113.448C203.519 113.54 203.472 113.585 203.38 113.583L198.758 113.481C198.666 113.479 198.621 113.432 198.646 113.34C198.678 112.95 198.754 112.652 198.852 112.378C199.149 111.419 199.899 110.791 201.095 110.818ZM213.432 120.915C215.8 120.967 217.759 119.791 218.401 117.827C218.45 117.667 218.477 117.507 218.503 117.369C218.554 117.14 218.442 117 218.213 116.949L216.311 116.607C216.082 116.556 215.893 116.805 215.867 116.92C215.867 116.92 215.866 116.966 215.841 117.034C215.567 118.017 214.656 118.641 213.483 118.615C212.264 118.588 211.475 117.881 211.199 116.816C211.094 116.377 211.017 115.708 211.038 114.765C211.057 113.868 211.165 113.157 211.313 112.724C211.611 111.718 212.454 111.07 213.65 111.096C214.891 111.124 215.772 111.879 215.959 112.781L216.021 113.081C216.063 113.289 216.198 113.407 216.429 113.366L218.344 113.11C218.575 113.069 218.693 112.956 218.652 112.702C218.633 112.541 218.615 112.31 218.528 112.055C218.016 110.273 216.161 108.851 213.701 108.797C211.332 108.744 209.465 109.968 208.776 111.977C208.531 112.639 208.374 113.487 208.348 114.682C208.324 115.74 208.396 116.662 208.654 117.45C209.276 119.511 211.063 120.862 213.432 120.915ZM221.122 120.901L223.053 120.944C223.283 120.949 223.424 120.814 223.429 120.584L223.505 117.158C223.507 117.089 223.53 117.067 223.578 116.999L225.418 114.946C225.488 114.878 225.558 114.857 225.601 114.973L227.957 120.777C228.022 120.962 228.158 121.057 228.365 121.062L230.412 121.107C230.687 121.113 230.806 120.955 230.697 120.676L227.456 113.289C227.435 113.219 227.436 113.15 227.483 113.105L230.386 109.811C230.598 109.585 230.465 109.352 230.166 109.346L227.959 109.297C227.775 109.293 227.612 109.358 227.494 109.494L223.748 113.459C223.677 113.55 223.586 113.502 223.589 113.387L223.77 105.224C223.775 104.994 223.64 104.853 223.41 104.848L221.479 104.805C221.249 104.8 221.108 104.935 221.103 105.165L220.762 120.525C220.757 120.755 220.892 120.896 221.122 120.901ZM233.158 121.168L235.09 121.211C235.32 121.216 235.461 121.081 235.466 120.851L235.807 105.491C235.812 105.261 235.677 105.12 235.447 105.115L233.515 105.072C233.285 105.067 233.144 105.202 233.139 105.432L232.799 120.792C232.794 121.022 232.929 121.163 233.158 121.168ZM240.17 108.095C241.181 108.118 241.887 107.443 241.908 106.454C241.93 105.488 241.255 104.783 240.244 104.761C239.232 104.738 238.504 105.413 238.482 106.378C238.46 107.367 239.158 108.073 240.17 108.095ZM238.911 121.295L240.842 121.338C241.072 121.343 241.213 121.208 241.218 120.979L241.463 109.964C241.468 109.734 241.333 109.593 241.103 109.588L239.171 109.545C238.941 109.54 238.8 109.675 238.795 109.905L238.551 120.919C238.546 121.149 238.681 121.29 238.911 121.295ZM248.609 121.648C251.437 121.711 253.351 120.465 253.4 118.258C253.451 115.958 251.328 115.198 249.432 114.604C247.901 114.133 246.618 113.874 246.639 112.932C246.658 112.104 247.518 111.686 248.691 111.712C250.071 111.742 250.861 112.404 250.844 113.163L250.841 113.301C250.839 113.393 250.976 113.442 251.206 113.447L252.977 113.486C253.207 113.491 253.347 113.379 253.351 113.218C253.396 111.172 251.566 109.682 248.737 109.619C246.024 109.559 244.132 110.852 244.083 113.036C244.033 115.29 246.064 116.071 247.891 116.663C249.397 117.203 250.75 117.394 250.729 118.36C250.712 119.118 249.872 119.675 248.63 119.647C247.296 119.618 246.414 118.931 246.431 118.172L246.435 118.011C246.437 117.919 246.3 117.847 246.07 117.842L244.231 117.801C244.001 117.796 243.86 117.931 243.855 118.161L243.852 118.276C243.811 120.139 245.665 121.583 248.609 121.648ZM262.012 111.846L262.044 110.42C262.049 110.191 261.914 110.05 261.684 110.044L259.453 109.995C259.361 109.993 259.317 109.923 259.318 109.854L259.376 107.279C259.381 107.049 259.246 106.908 259.016 106.903L257.199 106.862C256.969 106.857 256.828 106.992 256.823 107.222L256.766 109.797C256.764 109.889 256.717 109.934 256.625 109.932L255.429 109.906C255.199 109.901 255.058 110.036 255.053 110.266L255.022 111.691C255.017 111.921 255.152 112.062 255.381 112.067L256.577 112.094C256.669 112.096 256.714 112.166 256.712 112.235L256.569 118.673C256.538 121.111 257.929 121.694 260.136 121.743C260.504 121.751 260.873 121.736 261.24 121.744C261.494 121.727 261.612 121.592 261.617 121.362L261.651 119.821C261.656 119.591 261.521 119.45 261.291 119.445L260.694 119.432C259.613 119.408 259.118 118.914 259.144 117.718L259.264 112.291C259.266 112.199 259.313 112.154 259.405 112.156L261.636 112.206C261.866 112.211 262.007 112.076 262.012 111.846ZM276.241 106.387L276.132 111.262C276.13 111.377 276.037 111.398 275.97 111.304C275.342 110.577 274.501 110.145 273.374 110.12C271.098 110.069 269.575 111.278 268.865 113.24C268.571 114.062 268.435 115.002 268.412 116.037C268.388 117.095 268.505 118.064 268.762 118.92C269.385 120.89 270.898 122.189 273.105 122.238C274.232 122.263 275.116 121.845 275.753 121.1C275.825 120.987 275.916 121.035 275.913 121.15L275.9 121.747C275.895 121.977 276.03 122.118 276.26 122.123L278.191 122.166C278.421 122.171 278.562 122.036 278.567 121.807L278.908 106.446C278.913 106.216 278.778 106.075 278.548 106.07L276.617 106.027C276.387 106.022 276.246 106.157 276.241 106.387ZM275.388 118.883C274.959 119.564 274.376 119.942 273.571 119.924C272.697 119.905 272.039 119.499 271.664 118.778C271.31 118.126 271.146 117.225 271.17 116.144C271.197 114.948 271.447 114.011 271.899 113.354C272.327 112.742 272.955 112.411 273.76 112.429C274.519 112.445 275.086 112.826 275.462 113.479C275.839 114.131 276.002 115.055 275.976 116.228C275.952 117.331 275.77 118.271 275.388 118.883ZM286.437 122.533C288.806 122.586 290.651 121.315 291.389 119.146C291.659 118.393 291.819 117.43 291.838 116.533C291.859 115.614 291.742 114.645 291.483 113.903C290.817 111.772 289.074 110.468 286.729 110.416C284.268 110.361 282.401 111.585 281.664 113.708C281.418 114.416 281.258 115.379 281.238 116.321C281.217 117.241 281.334 118.21 281.57 118.951C282.189 121.128 284.023 122.48 286.437 122.533ZM286.488 120.234C285.292 120.207 284.434 119.498 284.114 118.341C283.987 117.855 283.912 117.117 283.927 116.404C283.944 115.645 284.051 114.957 284.2 114.478C284.571 113.335 285.436 112.688 286.609 112.714C287.782 112.74 288.641 113.426 288.96 114.583C289.087 115.069 289.164 115.761 289.147 116.52C289.132 117.21 289.047 117.921 288.851 118.446C288.481 119.588 287.615 120.259 286.488 120.234ZM182.1 136.034C180.721 136.003 179.489 136.551 178.748 137.8C178.7 137.891 178.608 137.912 178.564 137.796C177.97 136.61 176.835 135.917 175.294 135.883C174.052 135.856 173.031 136.27 172.367 137.175C172.295 137.289 172.204 137.241 172.207 137.126L172.223 136.39C172.229 136.137 172.094 135.996 171.841 135.991L169.38 135.936C169.127 135.93 168.986 136.065 168.981 136.318L168.736 147.355C168.731 147.608 168.865 147.749 169.118 147.755L171.579 147.81C171.832 147.815 171.973 147.68 171.978 147.427L172.137 140.253C172.298 139.221 173.002 138.616 173.991 138.638C175.071 138.662 175.789 139.483 175.762 140.725L175.611 147.508C175.606 147.761 175.741 147.902 175.994 147.907L178.431 147.962C178.684 147.967 178.825 147.832 178.831 147.579L178.982 140.773C179.009 139.531 179.785 138.766 180.843 138.79C181.924 138.814 182.596 139.634 182.568 140.875L182.418 147.659C182.412 147.912 182.547 148.053 182.8 148.058L185.26 148.113C185.513 148.119 185.654 147.984 185.66 147.731L185.826 140.235C185.884 137.636 184.492 136.087 182.1 136.034ZM193.686 145.746C192.398 145.718 191.467 145.168 191.166 144.218C191.101 144.032 191.06 143.801 191.021 143.501C191.023 143.409 191.07 143.365 191.162 143.367L198.221 143.523C198.474 143.529 198.615 143.394 198.621 143.141C198.611 142.542 198.578 141.967 198.52 141.459C198.083 138.344 196.448 136.329 193.344 136.26C190.769 136.203 188.781 137.677 188.11 139.917C187.911 140.58 187.826 141.291 187.807 142.165C187.79 142.924 187.866 143.639 188.035 144.309C188.602 146.761 190.429 148.412 193.326 148.476C195.212 148.518 196.885 147.772 197.901 146.553C198.044 146.349 198.047 146.188 197.867 146L196.585 144.706C196.405 144.518 196.22 144.537 196.032 144.74C195.512 145.349 194.722 145.723 193.686 145.746ZM193.236 139.064C194.294 139.088 194.948 139.678 195.204 140.557C195.247 140.696 195.267 140.835 195.286 141.042C195.307 141.135 195.26 141.18 195.168 141.178L191.259 141.091C191.167 141.089 191.122 141.042 191.147 140.951C191.175 140.721 191.248 140.539 191.297 140.379C191.569 139.557 192.224 139.042 193.236 139.064ZM207.654 137.176L207.496 144.304C207.335 145.312 206.607 145.987 205.549 145.963C204.377 145.937 203.706 145.071 203.733 143.852L203.882 137.092C203.888 136.839 203.753 136.698 203.5 136.692L201.063 136.638C200.81 136.633 200.669 136.768 200.663 137.021L200.496 144.586C200.437 147.23 202.177 148.649 204.407 148.698C205.695 148.727 206.647 148.334 207.263 147.542C207.334 147.452 207.425 147.477 207.423 147.592L207.409 148.213C207.403 148.466 207.538 148.607 207.791 148.612L210.251 148.667C210.504 148.673 210.645 148.538 210.651 148.285L210.896 137.247C210.901 136.994 210.766 136.853 210.514 136.848L208.053 136.793C207.8 136.788 207.659 136.923 207.654 137.176ZM222.346 149.096C225.312 149.162 227.364 147.919 227.415 145.597C227.462 143.481 225.756 142.638 223.951 142.069C222.261 141.502 220.653 141.398 220.673 140.478C220.688 139.811 221.455 139.46 222.444 139.482C223.616 139.508 224.295 140.052 224.28 140.719L224.277 140.857C224.275 140.949 224.412 140.998 224.665 141.004L226.918 141.053C227.171 141.059 227.311 140.947 227.315 140.786C227.363 138.602 225.443 137.018 222.477 136.952C219.626 136.889 217.617 138.248 217.566 140.547C217.521 142.594 219.182 143.413 220.734 143.976C222.42 144.704 224.168 144.719 224.148 145.639C224.134 146.26 223.434 146.705 222.376 146.681C221.226 146.656 220.434 146.086 220.449 145.419L220.452 145.258C220.454 145.166 220.317 145.117 220.064 145.112L217.742 145.06C217.489 145.054 217.348 145.189 217.342 145.442L217.34 145.557C217.295 147.558 219.218 149.027 222.346 149.096ZM231.28 136.181C232.476 136.207 233.275 135.443 233.301 134.293C233.326 133.144 232.562 132.344 231.366 132.318C230.193 132.292 229.371 133.056 229.346 134.206C229.32 135.355 230.108 136.155 231.28 136.181ZM229.775 149.1L232.235 149.154C232.488 149.16 232.629 149.025 232.635 148.772L232.879 137.735C232.885 137.482 232.75 137.341 232.497 137.335L230.037 137.281C229.784 137.275 229.643 137.41 229.637 137.663L229.393 148.7C229.387 148.953 229.522 149.094 229.775 149.1ZM242.169 139.758L242.21 137.942C242.215 137.689 242.08 137.548 241.827 137.542L239.758 137.496C239.666 137.494 239.621 137.447 239.623 137.355L239.681 134.757C239.686 134.504 239.551 134.363 239.298 134.357L236.953 134.305C236.7 134.3 236.559 134.435 236.553 134.687L236.496 137.286C236.494 137.378 236.447 137.423 236.355 137.421L235.182 137.395C234.929 137.389 234.788 137.524 234.783 137.777L234.742 139.594C234.737 139.846 234.872 139.988 235.125 139.993L236.297 140.019C236.389 140.021 236.434 140.068 236.432 140.16L236.299 146.185C236.267 148.669 237.703 149.253 240.048 149.305C240.462 149.314 240.877 149.3 241.314 149.287C241.568 149.269 241.709 149.111 241.714 148.881L241.758 146.904C241.764 146.651 241.629 146.51 241.376 146.504L240.732 146.49C239.812 146.47 239.432 145.978 239.454 144.989L239.559 140.229C239.561 140.137 239.608 140.093 239.7 140.095L241.77 140.14C242.023 140.146 242.164 140.011 242.169 139.758ZM249.51 146.984C248.223 146.955 247.291 146.405 246.99 145.455C246.926 145.27 246.885 145.039 246.845 144.739C246.847 144.647 246.894 144.602 246.986 144.604L254.046 144.761C254.299 144.766 254.44 144.631 254.445 144.378C254.435 143.78 254.402 143.204 254.344 142.697C253.907 139.581 252.273 137.567 249.168 137.498C246.593 137.441 244.605 138.915 243.934 141.155C243.735 141.817 243.651 142.529 243.631 143.402C243.614 144.161 243.69 144.876 243.86 145.547C244.426 147.998 246.253 149.649 249.151 149.713C251.036 149.755 252.709 149.01 253.725 147.79C253.868 147.586 253.871 147.425 253.692 147.237L252.409 145.944C252.229 145.756 252.045 145.775 251.856 145.977C251.336 146.587 250.546 146.961 249.51 146.984ZM249.06 140.302C250.118 140.326 250.772 140.915 251.029 141.795C251.072 141.934 251.091 142.073 251.11 142.28C251.131 142.372 251.084 142.417 250.992 142.415L247.083 142.329C246.991 142.327 246.946 142.28 246.971 142.188C246.999 141.959 247.072 141.776 247.122 141.616C247.393 140.794 248.048 140.28 249.06 140.302Z" fill="#333333"/>
<path d="M113.342 205.683L106.082 198.17L102.87 201.302L113.247 212.041L135.297 190.543L132.18 187.317L113.342 205.683Z" fill="white"/>
<defs>
<filter id="filter0_d" x="305.712" y="67.8262" width="126.895" height="320.74" filterUnits="userSpaceOnUse" color-interpolation-filters="sRGB">
<feFlood flood-opacity="0" result="BackgroundImageFix"/>
<feColorMatrix in="SourceAlpha" type="matrix" values="0 0 0 0 0 0 0 0 0 0 0 0 0 0 0 0 0 0 127 0"/>
<feOffset dy="4"/>
<feGaussianBlur stdDeviation="2"/>
<feColorMatrix type="matrix" values="0 0 0 0 0 0 0 0 0 0 0 0 0 0 0 0 0 0 0.25 0"/>
<feBlend mode="normal" in2="BackgroundImageFix" result="effect1_dropShadow"/>
<feBlend mode="normal" in="SourceGraphic" in2="effect1_dropShadow" result="shape"/>
</filter>
<filter id="filter1_d" x="122.521" y="0.199219" width="237.329" height="428.277" filterUnits="userSpaceOnUse" color-interpolation-filters="sRGB">
<feFlood flood-opacity="0" result="BackgroundImageFix"/>
<feColorMatrix in="SourceAlpha" type="matrix" values="0 0 0 0 0 0 0 0 0 0 0 0 0 0 0 0 0 0 127 0"/>
<feOffset dy="4"/>
<feGaussianBlur stdDeviation="2"/>
<feColorMatrix type="matrix" values="0 0 0 0 0 0 0 0 0 0 0 0 0 0 0 0 0 0 0.25 0"/>
<feBlend mode="normal" in2="BackgroundImageFix" result="effect1_dropShadow"/>
<feBlend mode="normal" in="SourceGraphic" in2="effect1_dropShadow" result="shape"/>
</filter>
</defs>
</svg>
