<svg width="565" height="477" viewBox="0 0 565 477" fill="none" xmlns="http://www.w3.org/2000/svg">
<path d="M124.448 423.216V421.584C124.448 421.344 124.304 421.2 124.064 421.2H113.456C113.216 421.2 113.072 421.344 113.072 421.584V437.616C113.072 437.856 113.216 438 113.456 438H124.064C124.304 438 124.448 437.856 124.448 437.616V435.984C124.448 435.744 124.304 435.6 124.064 435.6H116C115.904 435.6 115.856 435.528 115.856 435.456V430.872C115.856 430.776 115.928 430.728 116 430.728H121.376C121.616 430.728 121.76 430.584 121.76 430.344V428.712C121.76 428.472 121.616 428.328 121.376 428.328H116C115.904 428.328 115.856 428.256 115.856 428.184V423.744C115.856 423.648 115.904 423.6 116 423.6H124.064C124.304 423.6 124.448 423.456 124.448 423.216ZM132.891 425.544C131.619 425.544 130.635 425.952 129.939 426.84C129.867 426.936 129.795 426.888 129.795 426.768V426.12C129.795 425.88 129.651 425.736 129.411 425.736H127.395C127.155 425.736 127.011 425.88 127.011 426.12V437.616C127.011 437.856 127.155 438 127.395 438H129.411C129.651 438 129.795 437.856 129.795 437.616V430.392C129.795 428.928 130.731 427.944 132.099 427.944C133.491 427.944 134.403 428.952 134.403 430.416V437.616C134.403 437.856 134.547 438 134.787 438H136.803C137.043 438 137.187 437.856 137.187 437.616V429.84C137.187 427.176 135.483 425.544 132.891 425.544ZM146.57 427.608V426.12C146.57 425.88 146.426 425.736 146.186 425.736H143.858C143.762 425.736 143.714 425.664 143.714 425.592V422.904C143.714 422.664 143.57 422.52 143.33 422.52H141.434C141.194 422.52 141.05 422.664 141.05 422.904V425.592C141.05 425.688 141.002 425.736 140.906 425.736H139.658C139.418 425.736 139.274 425.88 139.274 426.12V427.608C139.274 427.848 139.418 427.992 139.658 427.992H140.906C141.002 427.992 141.05 428.064 141.05 428.136V434.856C141.074 437.4 142.538 437.976 144.842 437.976C145.226 437.976 145.61 437.952 145.994 437.952C146.258 437.928 146.378 437.784 146.378 437.544V435.936C146.378 435.696 146.234 435.552 145.994 435.552H145.37C144.242 435.552 143.714 435.048 143.714 433.8V428.136C143.714 428.04 143.762 427.992 143.858 427.992H146.186C146.426 427.992 146.57 427.848 146.57 427.608ZM154.755 425.592C153.507 425.592 152.595 426.168 151.971 427.104C151.899 427.224 151.827 427.176 151.827 427.056V426.12C151.827 425.88 151.683 425.736 151.443 425.736H149.427C149.187 425.736 149.043 425.88 149.043 426.12V437.616C149.043 437.856 149.187 438 149.427 438H151.443C151.683 438 151.827 437.856 151.827 437.616V430.92C151.827 429.456 152.883 428.568 154.179 428.496C154.659 428.424 155.091 428.472 155.403 428.568C155.667 428.64 155.811 428.592 155.859 428.328L156.243 426.336C156.291 426.12 156.219 425.952 156.027 425.856C155.715 425.712 155.331 425.592 154.755 425.592ZM163.328 435.84C161.84 435.84 160.808 435.144 160.472 434.016C160.376 433.752 160.328 433.392 160.328 432.96C160.328 432.864 160.376 432.816 160.472 432.816H167.912C168.152 432.816 168.296 432.672 168.296 432.432C168.272 431.736 168.224 431.064 168.128 430.464C167.648 427.416 166.088 425.544 162.872 425.544C160.304 425.544 158.408 427.008 157.808 429.264C157.592 429.984 157.544 430.752 157.544 431.808C157.544 432.912 157.712 433.92 158.024 434.784C158.768 436.872 160.472 438.192 163.064 438.192C165.176 438.192 166.808 437.28 167.72 435.84C167.864 435.624 167.792 435.456 167.624 435.312L166.472 434.4C166.28 434.256 166.088 434.304 165.944 434.52C165.416 435.288 164.528 435.792 163.328 435.84ZM162.848 427.944C164.144 427.944 165.008 428.664 165.296 429.768C165.368 429.984 165.392 430.272 165.44 430.632C165.44 430.728 165.392 430.776 165.296 430.776H160.472C160.376 430.776 160.328 430.728 160.352 430.632C160.376 430.224 160.448 429.912 160.544 429.624C160.832 428.616 161.6 427.944 162.848 427.944ZM181.14 435.84C179.652 435.84 178.62 435.144 178.284 434.016C178.188 433.752 178.14 433.392 178.14 432.96C178.14 432.864 178.188 432.816 178.284 432.816H185.724C185.964 432.816 186.108 432.672 186.108 432.432C186.084 431.736 186.036 431.064 185.94 430.464C185.46 427.416 183.9 425.544 180.684 425.544C178.116 425.544 176.22 427.008 175.62 429.264C175.404 429.984 175.356 430.752 175.356 431.808C175.356 432.912 175.524 433.92 175.836 434.784C176.58 436.872 178.284 438.192 180.876 438.192C182.988 438.192 184.62 437.28 185.532 435.84C185.676 435.624 185.604 435.456 185.436 435.312L184.284 434.4C184.092 434.256 183.9 434.304 183.756 434.52C183.228 435.288 182.34 435.792 181.14 435.84ZM180.66 427.944C181.956 427.944 182.82 428.664 183.108 429.768C183.18 429.984 183.204 430.272 183.252 430.632C183.252 430.728 183.204 430.776 183.108 430.776H178.284C178.188 430.776 178.14 430.728 178.164 430.632C178.188 430.224 178.26 429.912 178.356 429.624C178.644 428.616 179.412 427.944 180.66 427.944ZM201.78 425.544C200.34 425.544 198.996 426.096 198.228 427.368C198.18 427.488 198.084 427.488 198.036 427.392C197.388 426.192 196.212 425.544 194.628 425.544C193.404 425.544 192.324 425.928 191.604 426.816C191.532 426.936 191.436 426.888 191.436 426.768V426.12C191.436 425.88 191.292 425.736 191.052 425.736H189.036C188.796 425.736 188.652 425.88 188.652 426.12V437.616C188.652 437.856 188.796 438 189.036 438H191.052C191.292 438 191.436 437.856 191.436 437.616V429.912C191.58 428.688 192.42 427.944 193.62 427.944C194.94 427.944 195.804 428.88 195.804 430.344V437.616C195.804 437.856 195.948 438 196.188 438H198.18C198.42 438 198.564 437.856 198.564 437.616V430.32C198.564 428.856 199.5 427.944 200.796 427.944C202.092 427.944 202.956 428.88 202.956 430.344V437.616C202.956 437.856 203.1 438 203.34 438H205.332C205.572 438 205.716 437.856 205.716 437.616V429.768C205.716 427.104 204.228 425.544 201.78 425.544ZM218.467 438.192C220.939 438.192 222.955 436.92 223.579 434.856C223.627 434.688 223.651 434.52 223.675 434.376C223.723 434.136 223.603 433.992 223.363 433.944L221.371 433.632C221.131 433.584 220.939 433.848 220.915 433.968C220.915 433.968 220.915 434.016 220.891 434.088C220.627 435.12 219.691 435.792 218.467 435.792C217.195 435.792 216.355 435.072 216.043 433.968C215.923 433.512 215.827 432.816 215.827 431.832C215.827 430.896 215.923 430.152 216.067 429.696C216.355 428.64 217.219 427.944 218.467 427.944C219.763 427.944 220.699 428.712 220.915 429.648L220.987 429.96C221.035 430.176 221.179 430.296 221.419 430.248L223.411 429.936C223.651 429.888 223.771 429.768 223.723 429.504C223.699 429.336 223.675 429.096 223.579 428.832C223.003 426.984 221.035 425.544 218.467 425.544C215.995 425.544 214.075 426.864 213.403 428.976C213.163 429.672 213.019 430.56 213.019 431.808C213.019 432.912 213.115 433.872 213.403 434.688C214.099 436.824 215.995 438.192 218.467 438.192ZM231.22 438.192C233.692 438.192 235.588 436.824 236.308 434.544C236.572 433.752 236.716 432.744 236.716 431.808C236.716 430.848 236.572 429.84 236.284 429.072C235.54 426.864 233.692 425.544 231.244 425.544C228.676 425.544 226.756 426.864 226.036 429.096C225.796 429.84 225.652 430.848 225.652 431.832C225.652 432.792 225.796 433.8 226.06 434.568C226.756 436.824 228.7 438.192 231.22 438.192ZM231.22 435.792C229.972 435.792 229.06 435.072 228.7 433.872C228.556 433.368 228.46 432.6 228.46 431.856C228.46 431.064 228.556 430.344 228.7 429.84C229.06 428.64 229.948 427.944 231.172 427.944C232.396 427.944 233.308 428.64 233.668 429.84C233.812 430.344 233.908 431.064 233.908 431.856C233.908 432.576 233.836 433.32 233.644 433.872C233.284 435.072 232.396 435.792 231.22 435.792ZM245.227 425.544C243.955 425.544 242.971 425.952 242.275 426.84C242.203 426.936 242.131 426.888 242.131 426.768V426.12C242.131 425.88 241.987 425.736 241.747 425.736H239.731C239.491 425.736 239.347 425.88 239.347 426.12V437.616C239.347 437.856 239.491 438 239.731 438H241.747C241.987 438 242.131 437.856 242.131 437.616V430.392C242.131 428.928 243.067 427.944 244.435 427.944C245.827 427.944 246.739 428.952 246.739 430.416V437.616C246.739 437.856 246.883 438 247.123 438H249.139C249.379 438 249.523 437.856 249.523 437.616V429.84C249.523 427.176 247.819 425.544 245.227 425.544ZM258.906 427.608V426.12C258.906 425.88 258.762 425.736 258.522 425.736H256.194C256.098 425.736 256.05 425.664 256.05 425.592V422.904C256.05 422.664 255.906 422.52 255.666 422.52H253.77C253.53 422.52 253.386 422.664 253.386 422.904V425.592C253.386 425.688 253.338 425.736 253.242 425.736H251.994C251.754 425.736 251.61 425.88 251.61 426.12V427.608C251.61 427.848 251.754 427.992 251.994 427.992H253.242C253.338 427.992 253.386 428.064 253.386 428.136V434.856C253.41 437.4 254.874 437.976 257.178 437.976C257.562 437.976 257.946 437.952 258.33 437.952C258.594 437.928 258.714 437.784 258.714 437.544V435.936C258.714 435.696 258.57 435.552 258.33 435.552H257.706C256.578 435.552 256.05 435.048 256.05 433.8V428.136C256.05 428.04 256.098 427.992 256.194 427.992H258.522C258.762 427.992 258.906 427.848 258.906 427.608ZM266.059 425.544C263.299 425.544 261.331 426.912 261.043 428.808C261.019 428.976 261.163 429.096 261.403 429.12L263.563 429.384C263.803 429.408 263.923 429.312 263.995 429.072C264.235 428.376 264.979 427.944 266.131 427.944C267.643 427.944 268.363 428.688 268.363 429.912V430.464C268.363 430.56 268.315 430.608 268.219 430.608H265.675C262.483 430.608 260.683 432.096 260.683 434.568C260.683 437.088 262.507 438.192 264.739 438.192C266.179 438.192 267.355 437.76 268.195 436.944C268.291 436.872 268.363 436.896 268.363 437.016V437.616C268.363 437.856 268.507 438 268.747 438H270.763C271.003 438 271.147 437.856 271.147 437.616V429.624C271.147 427.272 269.155 425.544 266.059 425.544ZM265.507 435.984C264.355 435.984 263.467 435.432 263.467 434.376C263.467 433.176 264.547 432.528 266.227 432.528H268.219C268.315 432.528 268.363 432.576 268.363 432.672V433.776C268.363 435.096 267.019 435.984 265.507 435.984ZM280.234 427.608V426.12C280.234 425.88 280.09 425.736 279.85 425.736H277.522C277.426 425.736 277.378 425.664 277.378 425.592V422.904C277.378 422.664 277.234 422.52 276.994 422.52H275.098C274.858 422.52 274.714 422.664 274.714 422.904V425.592C274.714 425.688 274.666 425.736 274.57 425.736H273.322C273.082 425.736 272.938 425.88 272.938 426.12V427.608C272.938 427.848 273.082 427.992 273.322 427.992H274.57C274.666 427.992 274.714 428.064 274.714 428.136V434.856C274.738 437.4 276.202 437.976 278.506 437.976C278.89 437.976 279.274 437.952 279.658 437.952C279.922 437.928 280.042 437.784 280.042 437.544V435.936C280.042 435.696 279.898 435.552 279.658 435.552H279.034C277.906 435.552 277.378 435.048 277.378 433.8V428.136C277.378 428.04 277.426 427.992 277.522 427.992H279.85C280.09 427.992 280.234 427.848 280.234 427.608ZM287.704 438.192C290.176 438.192 292.072 436.824 292.792 434.544C293.056 433.752 293.2 432.744 293.2 431.808C293.2 430.848 293.056 429.84 292.768 429.072C292.024 426.864 290.176 425.544 287.728 425.544C285.16 425.544 283.24 426.864 282.52 429.096C282.28 429.84 282.136 430.848 282.136 431.832C282.136 432.792 282.28 433.8 282.544 434.568C283.24 436.824 285.184 438.192 287.704 438.192ZM287.704 435.792C286.456 435.792 285.544 435.072 285.184 433.872C285.04 433.368 284.944 432.6 284.944 431.856C284.944 431.064 285.04 430.344 285.184 429.84C285.544 428.64 286.432 427.944 287.656 427.944C288.88 427.944 289.792 428.64 290.152 429.84C290.296 430.344 290.392 431.064 290.392 431.856C290.392 432.576 290.32 433.32 290.128 433.872C289.768 435.072 288.88 435.792 287.704 435.792ZM306.132 435.84C304.644 435.84 303.612 435.144 303.276 434.016C303.18 433.752 303.132 433.392 303.132 432.96C303.132 432.864 303.18 432.816 303.276 432.816H310.716C310.956 432.816 311.1 432.672 311.1 432.432C311.076 431.736 311.028 431.064 310.932 430.464C310.452 427.416 308.892 425.544 305.676 425.544C303.108 425.544 301.212 427.008 300.612 429.264C300.396 429.984 300.348 430.752 300.348 431.808C300.348 432.912 300.516 433.92 300.828 434.784C301.572 436.872 303.276 438.192 305.868 438.192C307.98 438.192 309.612 437.28 310.524 435.84C310.668 435.624 310.596 435.456 310.428 435.312L309.276 434.4C309.084 434.256 308.892 434.304 308.748 434.52C308.22 435.288 307.332 435.792 306.132 435.84ZM305.652 427.944C306.948 427.944 307.812 428.664 308.1 429.768C308.172 429.984 308.196 430.272 308.244 430.632C308.244 430.728 308.196 430.776 308.1 430.776H303.276C303.18 430.776 303.132 430.728 303.156 430.632C303.18 430.224 303.252 429.912 303.348 429.624C303.636 428.616 304.404 427.944 305.652 427.944ZM323.561 438.192C326.033 438.192 328.049 436.92 328.673 434.856C328.721 434.688 328.745 434.52 328.769 434.376C328.817 434.136 328.697 433.992 328.457 433.944L326.465 433.632C326.225 433.584 326.033 433.848 326.009 433.968C326.009 433.968 326.009 434.016 325.985 434.088C325.721 435.12 324.785 435.792 323.561 435.792C322.289 435.792 321.449 435.072 321.137 433.968C321.017 433.512 320.921 432.816 320.921 431.832C320.921 430.896 321.017 430.152 321.161 429.696C321.449 428.64 322.313 427.944 323.561 427.944C324.857 427.944 325.793 428.712 326.009 429.648L326.081 429.96C326.129 430.176 326.273 430.296 326.513 430.248L328.505 429.936C328.745 429.888 328.865 429.768 328.817 429.504C328.793 429.336 328.769 429.096 328.673 428.832C328.097 426.984 326.129 425.544 323.561 425.544C321.089 425.544 319.169 426.864 318.497 428.976C318.257 429.672 318.113 430.56 318.113 431.808C318.113 432.912 318.209 433.872 318.497 434.688C319.193 436.824 321.089 438.192 323.561 438.192ZM336.314 438.192C338.786 438.192 340.682 436.824 341.402 434.544C341.666 433.752 341.81 432.744 341.81 431.808C341.81 430.848 341.666 429.84 341.378 429.072C340.634 426.864 338.786 425.544 336.338 425.544C333.77 425.544 331.85 426.864 331.13 429.096C330.89 429.84 330.746 430.848 330.746 431.832C330.746 432.792 330.89 433.8 331.154 434.568C331.85 436.824 333.794 438.192 336.314 438.192ZM336.314 435.792C335.066 435.792 334.154 435.072 333.794 433.872C333.65 433.368 333.554 432.6 333.554 431.856C333.554 431.064 333.65 430.344 333.794 429.84C334.154 428.64 335.042 427.944 336.266 427.944C337.49 427.944 338.402 428.64 338.762 429.84C338.906 430.344 339.002 431.064 339.002 431.856C339.002 432.576 338.93 433.32 338.738 433.872C338.378 435.072 337.49 435.792 336.314 435.792ZM350.321 425.544C349.049 425.544 348.065 425.952 347.369 426.84C347.297 426.936 347.225 426.888 347.225 426.768V426.12C347.225 425.88 347.081 425.736 346.841 425.736H344.825C344.585 425.736 344.441 425.88 344.441 426.12V437.616C344.441 437.856 344.585 438 344.825 438H346.841C347.081 438 347.225 437.856 347.225 437.616V430.392C347.225 428.928 348.161 427.944 349.529 427.944C350.921 427.944 351.833 428.952 351.833 430.416V437.616C351.833 437.856 351.977 438 352.217 438H354.233C354.473 438 354.617 437.856 354.617 437.616V429.84C354.617 427.176 352.913 425.544 350.321 425.544ZM363.352 425.544C362.08 425.544 361.096 425.952 360.4 426.84C360.328 426.936 360.256 426.888 360.256 426.768V421.584C360.256 421.344 360.112 421.2 359.872 421.2H357.856C357.616 421.2 357.472 421.344 357.472 421.584V437.616C357.472 437.856 357.616 438 357.856 438H359.872C360.112 438 360.256 437.856 360.256 437.616V430.392C360.256 428.928 361.192 427.944 362.56 427.944C363.952 427.944 364.864 428.952 364.864 430.416V437.616C364.864 437.856 365.008 438 365.248 438H367.264C367.504 438 367.648 437.856 367.648 437.616V429.84C367.648 427.176 365.944 425.544 363.352 425.544ZM376.023 435.84C374.535 435.84 373.503 435.144 373.167 434.016C373.071 433.752 373.023 433.392 373.023 432.96C373.023 432.864 373.071 432.816 373.167 432.816H380.607C380.847 432.816 380.991 432.672 380.991 432.432C380.967 431.736 380.919 431.064 380.823 430.464C380.343 427.416 378.783 425.544 375.567 425.544C372.999 425.544 371.103 427.008 370.503 429.264C370.287 429.984 370.239 430.752 370.239 431.808C370.239 432.912 370.407 433.92 370.719 434.784C371.463 436.872 373.167 438.192 375.759 438.192C377.871 438.192 379.503 437.28 380.415 435.84C380.559 435.624 380.487 435.456 380.319 435.312L379.167 434.4C378.975 434.256 378.783 434.304 378.639 434.52C378.111 435.288 377.223 435.792 376.023 435.84ZM375.543 427.944C376.839 427.944 377.703 428.664 377.991 429.768C378.063 429.984 378.087 430.272 378.135 430.632C378.135 430.728 378.087 430.776 377.991 430.776H373.167C373.071 430.776 373.023 430.728 373.047 430.632C373.071 430.224 373.143 429.912 373.239 429.624C373.527 428.616 374.295 427.944 375.543 427.944ZM391.071 434.088C390.807 435.12 389.871 435.792 388.647 435.792C387.375 435.792 386.535 435.072 386.223 433.968C386.103 433.512 386.007 432.816 386.007 431.832C386.007 430.896 386.103 430.152 386.247 429.696C386.535 428.64 387.399 427.944 388.647 427.944C389.943 427.944 390.879 428.712 391.095 429.648L391.167 429.96C391.215 430.176 391.359 430.296 391.599 430.248L393.591 429.936C393.831 429.888 393.951 429.768 393.903 429.504C393.879 429.336 393.855 429.096 393.759 428.832C393.183 426.984 391.215 425.544 388.647 425.544C386.175 425.544 384.255 426.864 383.583 428.976C383.343 429.672 383.199 430.56 383.199 431.808C383.199 432.912 383.295 433.872 383.583 434.688C384.183 436.464 385.575 437.712 387.447 438.072C387.519 438.096 387.567 438.12 387.615 438.144C388.455 438.84 388.983 439.536 388.839 440.184C388.695 440.76 388.143 440.928 387.543 440.784C387.279 440.736 387.135 440.832 387.087 441.072L386.967 441.816C386.943 442.032 387.015 442.2 387.231 442.272C388.311 442.584 390.207 442.632 390.663 440.952C390.879 440.088 390.591 439.152 389.679 438.288C389.583 438.216 389.607 438.12 389.727 438.12C391.695 437.784 393.231 436.608 393.759 434.856C393.807 434.688 393.831 434.52 393.855 434.376C393.903 434.136 393.783 433.992 393.543 433.944L391.551 433.632C391.311 433.584 391.119 433.848 391.095 433.968C391.095 433.968 391.095 434.016 391.071 434.088ZM400.965 425.544C398.205 425.544 396.237 426.912 395.949 428.808C395.925 428.976 396.069 429.096 396.309 429.12L398.469 429.384C398.709 429.408 398.829 429.312 398.901 429.072C399.141 428.376 399.885 427.944 401.037 427.944C402.549 427.944 403.269 428.688 403.269 429.912V430.464C403.269 430.56 403.221 430.608 403.125 430.608H400.581C397.389 430.608 395.589 432.096 395.589 434.568C395.589 437.088 397.413 438.192 399.645 438.192C401.085 438.192 402.261 437.76 403.101 436.944C403.197 436.872 403.269 436.896 403.269 437.016V437.616C403.269 437.856 403.413 438 403.653 438H405.669C405.909 438 406.053 437.856 406.053 437.616V429.624C406.053 427.272 404.061 425.544 400.965 425.544ZM400.413 435.984C399.261 435.984 398.373 435.432 398.373 434.376C398.373 433.176 399.453 432.528 401.133 432.528H403.125C403.221 432.528 403.269 432.576 403.269 432.672V433.776C403.269 435.096 401.925 435.984 400.413 435.984ZM418.309 425.544C415.549 425.544 413.581 426.912 413.293 428.808C413.269 428.976 413.413 429.096 413.653 429.12L415.813 429.384C416.053 429.408 416.173 429.312 416.245 429.072C416.485 428.376 417.229 427.944 418.381 427.944C419.893 427.944 420.613 428.688 420.613 429.912V430.464C420.613 430.56 420.565 430.608 420.469 430.608H417.925C414.733 430.608 412.933 432.096 412.933 434.568C412.933 437.088 414.757 438.192 416.989 438.192C418.429 438.192 419.605 437.76 420.445 436.944C420.541 436.872 420.613 436.896 420.613 437.016V437.616C420.613 437.856 420.757 438 420.997 438H423.013C423.253 438 423.397 437.856 423.397 437.616V429.624C423.397 427.272 421.405 425.544 418.309 425.544ZM417.757 435.984C416.605 435.984 415.717 435.432 415.717 434.376C415.717 433.176 416.797 432.528 418.477 432.528H420.469C420.565 432.528 420.613 432.576 420.613 432.672V433.776C420.613 435.096 419.269 435.984 417.757 435.984ZM152.392 462.904C151.696 460.864 150.088 459.544 147.784 459.544C146.608 459.544 145.696 460 145.048 460.792C144.976 460.912 144.88 460.864 144.88 460.744V460.12C144.88 459.88 144.736 459.736 144.496 459.736H142.48C142.24 459.736 142.096 459.88 142.096 460.12V476.152C142.096 476.392 142.24 476.536 142.48 476.536H144.496C144.736 476.536 144.88 476.392 144.88 476.152V471.064C144.88 470.944 144.976 470.92 145.048 471.016C145.72 471.76 146.608 472.192 147.784 472.192C150.16 472.192 151.72 470.896 152.416 468.832C152.704 467.968 152.824 466.984 152.824 465.904C152.824 464.8 152.68 463.792 152.392 462.904ZM149.248 468.784C148.816 469.432 148.168 469.792 147.328 469.792C146.536 469.792 145.936 469.408 145.528 468.736C145.12 468.064 144.928 467.104 144.928 465.88C144.928 464.728 145.096 463.744 145.48 463.096C145.912 462.376 146.512 461.968 147.352 461.968C148.264 461.968 148.96 462.376 149.368 463.12C149.752 463.792 149.944 464.728 149.944 465.856C149.944 467.104 149.704 468.088 149.248 468.784ZM161.001 459.592C159.753 459.592 158.841 460.168 158.217 461.104C158.145 461.224 158.073 461.176 158.073 461.056V460.12C158.073 459.88 157.929 459.736 157.689 459.736H155.673C155.433 459.736 155.289 459.88 155.289 460.12V471.616C155.289 471.856 155.433 472 155.673 472H157.689C157.929 472 158.073 471.856 158.073 471.616V464.92C158.073 463.456 159.129 462.568 160.425 462.496C160.905 462.424 161.337 462.472 161.649 462.568C161.913 462.64 162.057 462.592 162.105 462.328L162.489 460.336C162.537 460.12 162.465 459.952 162.273 459.856C161.961 459.712 161.577 459.592 161.001 459.592ZM169.31 472.192C171.782 472.192 173.678 470.824 174.398 468.544C174.662 467.752 174.806 466.744 174.806 465.808C174.806 464.848 174.662 463.84 174.374 463.072C173.63 460.864 171.782 459.544 169.334 459.544C166.766 459.544 164.846 460.864 164.126 463.096C163.886 463.84 163.742 464.848 163.742 465.832C163.742 466.792 163.886 467.8 164.15 468.568C164.846 470.824 166.79 472.192 169.31 472.192ZM169.31 469.792C168.062 469.792 167.15 469.072 166.79 467.872C166.646 467.368 166.55 466.6 166.55 465.856C166.55 465.064 166.646 464.344 166.79 463.84C167.15 462.64 168.038 461.944 169.262 461.944C170.486 461.944 171.398 462.64 171.758 463.84C171.902 464.344 171.998 465.064 171.998 465.856C171.998 466.576 171.926 467.32 171.734 467.872C171.374 469.072 170.486 469.792 169.31 469.792ZM187.853 462.904C187.157 460.864 185.549 459.544 183.245 459.544C182.069 459.544 181.157 460 180.509 460.792C180.437 460.912 180.341 460.864 180.341 460.744V460.12C180.341 459.88 180.197 459.736 179.957 459.736H177.941C177.701 459.736 177.557 459.88 177.557 460.12V476.152C177.557 476.392 177.701 476.536 177.941 476.536H179.957C180.197 476.536 180.341 476.392 180.341 476.152V471.064C180.341 470.944 180.437 470.92 180.509 471.016C181.181 471.76 182.069 472.192 183.245 472.192C185.621 472.192 187.181 470.896 187.877 468.832C188.165 467.968 188.285 466.984 188.285 465.904C188.285 464.8 188.141 463.792 187.853 462.904ZM184.709 468.784C184.277 469.432 183.629 469.792 182.789 469.792C181.997 469.792 181.397 469.408 180.989 468.736C180.581 468.064 180.389 467.104 180.389 465.88C180.389 464.728 180.557 463.744 180.941 463.096C181.373 462.376 181.973 461.968 182.813 461.968C183.725 461.968 184.421 462.376 184.829 463.12C185.213 463.792 185.405 464.728 185.405 465.856C185.405 467.104 185.165 468.088 184.709 468.784ZM195.982 472.192C198.454 472.192 200.35 470.824 201.07 468.544C201.334 467.752 201.478 466.744 201.478 465.808C201.478 464.848 201.334 463.84 201.046 463.072C200.302 460.864 198.454 459.544 196.006 459.544C193.438 459.544 191.518 460.864 190.798 463.096C190.558 463.84 190.414 464.848 190.414 465.832C190.414 466.792 190.558 467.8 190.822 468.568C191.518 470.824 193.462 472.192 195.982 472.192ZM195.982 469.792C194.734 469.792 193.822 469.072 193.462 467.872C193.318 467.368 193.222 466.6 193.222 465.856C193.222 465.064 193.318 464.344 193.462 463.84C193.822 462.64 194.71 461.944 195.934 461.944C197.158 461.944 198.07 462.64 198.43 463.84C198.574 464.344 198.67 465.064 198.67 465.856C198.67 466.576 198.598 467.32 198.406 467.872C198.046 469.072 197.158 469.792 195.982 469.792ZM208.693 472.144C211.645 472.144 213.613 470.8 213.613 468.496C213.613 466.096 211.381 465.352 209.389 464.776C207.781 464.32 206.437 464.08 206.437 463.096C206.437 462.232 207.325 461.776 208.549 461.776C209.989 461.776 210.829 462.448 210.829 463.24V463.384C210.829 463.48 210.973 463.528 211.213 463.528H213.061C213.301 463.528 213.445 463.408 213.445 463.24C213.445 461.104 211.501 459.592 208.549 459.592C205.717 459.592 203.773 460.984 203.773 463.264C203.773 465.616 205.909 466.384 207.829 466.96C209.413 467.488 210.829 467.656 210.829 468.664C210.829 469.456 209.965 470.056 208.669 470.056C207.277 470.056 206.341 469.36 206.341 468.568V468.4C206.341 468.304 206.197 468.232 205.957 468.232H204.037C203.797 468.232 203.653 468.376 203.653 468.616V468.736C203.653 470.68 205.621 472.144 208.693 472.144ZM222.449 461.608V460.12C222.449 459.88 222.305 459.736 222.065 459.736H219.737C219.641 459.736 219.593 459.664 219.593 459.592V456.904C219.593 456.664 219.449 456.52 219.209 456.52H217.313C217.073 456.52 216.929 456.664 216.929 456.904V459.592C216.929 459.688 216.881 459.736 216.785 459.736H215.537C215.297 459.736 215.153 459.88 215.153 460.12V461.608C215.153 461.848 215.297 461.992 215.537 461.992H216.785C216.881 461.992 216.929 462.064 216.929 462.136V468.856C216.953 471.4 218.417 471.976 220.721 471.976C221.105 471.976 221.489 471.952 221.873 471.952C222.137 471.928 222.257 471.784 222.257 471.544V469.936C222.257 469.696 222.113 469.552 221.873 469.552H221.249C220.121 469.552 219.593 469.048 219.593 467.8V462.136C219.593 462.04 219.641 461.992 219.737 461.992H222.065C222.305 461.992 222.449 461.848 222.449 461.608ZM229.602 459.544C226.842 459.544 224.874 460.912 224.586 462.808C224.562 462.976 224.706 463.096 224.946 463.12L227.106 463.384C227.346 463.408 227.466 463.312 227.538 463.072C227.778 462.376 228.522 461.944 229.674 461.944C231.186 461.944 231.906 462.688 231.906 463.912V464.464C231.906 464.56 231.858 464.608 231.762 464.608H229.218C226.026 464.608 224.226 466.096 224.226 468.568C224.226 471.088 226.05 472.192 228.282 472.192C229.722 472.192 230.898 471.76 231.738 470.944C231.834 470.872 231.906 470.896 231.906 471.016V471.616C231.906 471.856 232.05 472 232.29 472H234.306C234.546 472 234.69 471.856 234.69 471.616V463.624C234.69 461.272 232.698 459.544 229.602 459.544ZM229.05 469.984C227.898 469.984 227.01 469.432 227.01 468.376C227.01 467.176 228.09 466.528 229.77 466.528H231.762C231.858 466.528 231.906 466.576 231.906 466.672V467.776C231.906 469.096 230.562 469.984 229.05 469.984ZM249.705 455.584V460.672C249.705 460.792 249.609 460.816 249.537 460.72C248.865 459.976 247.977 459.544 246.801 459.544C244.425 459.544 242.865 460.84 242.169 462.904C241.881 463.768 241.761 464.752 241.761 465.832C241.761 466.936 241.905 467.944 242.193 468.832C242.889 470.872 244.497 472.192 246.801 472.192C247.977 472.192 248.889 471.736 249.537 470.944C249.609 470.824 249.705 470.872 249.705 470.992V471.616C249.705 471.856 249.849 472 250.089 472H252.105C252.345 472 252.489 471.856 252.489 471.616V455.584C252.489 455.344 252.345 455.2 252.105 455.2H250.089C249.849 455.2 249.705 455.344 249.705 455.584ZM249.105 468.64C248.673 469.36 248.073 469.768 247.233 469.768C246.321 469.768 245.625 469.36 245.217 468.616C244.833 467.944 244.641 467.008 244.641 465.88C244.641 464.632 244.881 463.648 245.337 462.952C245.769 462.304 246.417 461.944 247.257 461.944C248.049 461.944 248.649 462.328 249.057 463C249.465 463.672 249.657 464.632 249.657 465.856C249.657 467.008 249.489 467.992 249.105 468.64ZM260.716 472.192C263.188 472.192 265.084 470.824 265.804 468.544C266.068 467.752 266.212 466.744 266.212 465.808C266.212 464.848 266.068 463.84 265.78 463.072C265.036 460.864 263.188 459.544 260.74 459.544C258.172 459.544 256.252 460.864 255.532 463.096C255.292 463.84 255.148 464.848 255.148 465.832C255.148 466.792 255.292 467.8 255.556 468.568C256.252 470.824 258.196 472.192 260.716 472.192ZM260.716 469.792C259.468 469.792 258.556 469.072 258.196 467.872C258.052 467.368 257.956 466.6 257.956 465.856C257.956 465.064 258.052 464.344 258.196 463.84C258.556 462.64 259.444 461.944 260.668 461.944C261.892 461.944 262.804 462.64 263.164 463.84C263.308 464.344 263.404 465.064 263.404 465.856C263.404 466.576 263.332 467.32 263.14 467.872C262.78 469.072 261.892 469.792 260.716 469.792ZM284.424 472H288.312C288.624 472 288.792 471.808 288.696 471.472L283.704 455.584C283.632 455.344 283.464 455.2 283.2 455.2H278.256C277.992 455.2 277.824 455.344 277.752 455.584L272.76 471.472C272.664 471.808 272.832 472 273.144 472H277.032C277.296 472 277.464 471.88 277.536 471.616L278.016 469.888C278.04 469.792 278.136 469.72 278.232 469.72H283.224C283.32 469.72 283.416 469.792 283.44 469.888L283.92 471.616C283.992 471.88 284.16 472 284.424 472ZM279.072 466.048L280.608 460.504C280.656 460.336 280.8 460.336 280.848 460.504L282.384 466.048C282.408 466.168 282.336 466.264 282.216 466.264H279.24C279.12 466.264 279.048 466.168 279.072 466.048ZM297.284 462.664V459.976C297.284 459.688 297.116 459.52 296.828 459.52H295.004C294.884 459.52 294.812 459.448 294.812 459.328V456.616C294.812 456.328 294.644 456.16 294.356 456.16H290.948C290.66 456.16 290.492 456.328 290.492 456.616V459.328C290.492 459.448 290.42 459.52 290.3 459.52H289.172C288.884 459.52 288.716 459.688 288.716 459.976V462.664C288.716 462.952 288.884 463.12 289.172 463.12H290.3C290.42 463.12 290.492 463.192 290.492 463.312V468.736C290.516 471.376 292.076 471.952 294.764 471.952C295.316 471.952 295.868 471.928 296.492 471.88C296.78 471.856 296.924 471.712 296.924 471.424V468.52C296.924 468.232 296.756 468.064 296.468 468.064H295.676C295.028 468.064 294.812 467.56 294.812 466.864V463.312C294.812 463.192 294.884 463.12 295.004 463.12H296.828C297.116 463.12 297.284 462.952 297.284 462.664ZM299.027 472H302.627C302.915 472 303.083 471.832 303.083 471.544V455.656C303.083 455.368 302.915 455.2 302.627 455.2H299.027C298.739 455.2 298.571 455.368 298.571 455.656V471.544C298.571 471.832 298.739 472 299.027 472ZM310.157 459.328C306.965 459.328 304.613 460.984 304.397 463.144C304.373 463.36 304.517 463.48 304.805 463.504L308.501 463.984C308.765 464.008 308.861 463.888 309.029 463.672C309.221 463.384 309.677 463.192 310.229 463.192C311.069 463.192 311.597 463.648 311.597 464.32V464.68C311.597 464.8 311.525 464.872 311.405 464.872H309.245C305.933 464.872 304.229 466.264 304.229 468.664C304.229 471.016 305.885 472.192 308.453 472.192C309.893 472.192 310.829 471.832 311.381 471.04C311.501 470.896 311.597 470.944 311.597 471.112V471.544C311.597 471.832 311.765 472 312.053 472H315.653C315.941 472 316.109 471.832 316.109 471.544V463.48C316.109 461.176 313.493 459.328 310.157 459.328ZM309.845 469.072C309.101 469.072 308.765 468.64 308.765 468.112C308.765 467.44 309.293 467.128 310.277 467.128H311.405C311.525 467.128 311.597 467.2 311.597 467.32V467.56C311.597 468.52 310.853 469.072 309.845 469.072ZM323.286 472.192C326.646 472.192 328.974 470.872 328.974 468.184C328.974 466.408 327.966 465.4 326.31 464.824C324.198 464.104 321.918 464.392 321.918 463.48C321.918 463.048 322.47 462.808 323.166 462.808C323.982 462.808 324.486 463.144 324.486 463.672V463.792C324.486 463.864 324.654 463.936 324.942 463.936H328.23C328.518 463.936 328.686 463.84 328.686 463.672C328.686 461.056 326.478 459.328 323.094 459.328C319.83 459.328 317.598 460.936 317.598 463.552C317.598 465.28 318.582 466.192 319.662 466.72C321.822 467.776 324.438 467.344 324.438 468.28C324.438 468.664 323.958 468.88 323.262 468.88C322.374 468.88 321.75 468.544 321.75 468.016V467.872C321.75 467.8 321.582 467.752 321.294 467.752H317.886C317.598 467.752 317.43 467.92 317.43 468.208V468.328C317.43 470.656 319.662 472.192 323.286 472.192ZM341.473 472.192C345.457 472.192 348.097 469.864 348.097 466.36V466.24C348.097 466.168 347.953 466.144 347.665 466.12L344.065 465.928C343.777 465.904 343.585 466.024 343.585 466.192C343.585 467.464 342.745 468.328 341.473 468.328C340.201 468.328 339.361 467.464 339.361 466.192V461.032C339.361 459.736 340.201 458.872 341.473 458.872C342.745 458.872 343.585 459.736 343.585 461.032V461.176C343.585 461.248 343.777 461.32 344.065 461.296L347.665 461.056C347.953 461.032 348.097 460.936 348.097 460.792C348.097 457.312 345.457 455.008 341.473 455.008C337.489 455.008 334.849 457.456 334.849 461.152V466C334.849 469.72 337.489 472.192 341.473 472.192ZM355.403 472.192C358.547 472.192 360.731 470.344 361.379 467.512C361.499 466.936 361.571 466.336 361.571 465.688C361.571 464.92 361.475 464.224 361.283 463.552C360.539 461.008 358.451 459.328 355.427 459.328C352.427 459.328 350.267 460.984 349.523 463.6C349.331 464.248 349.235 464.968 349.235 465.736C349.235 466.408 349.307 467.056 349.475 467.656C350.147 470.392 352.331 472.192 355.403 472.192ZM355.403 468.328C354.563 468.328 354.083 467.704 353.867 466.792C353.795 466.456 353.771 466.096 353.771 465.712C353.771 465.328 353.795 464.944 353.891 464.608C354.083 463.768 354.539 463.192 355.403 463.192C356.219 463.192 356.699 463.744 356.915 464.608C356.987 464.944 357.035 465.304 357.035 465.712C357.035 466.096 357.011 466.456 356.939 466.792C356.747 467.68 356.267 468.328 355.403 468.328ZM370.322 455.656V460.24C370.322 460.408 370.226 460.456 370.106 460.336C369.578 459.688 368.786 459.328 367.586 459.328C365.21 459.328 363.578 460.816 362.858 462.64C362.474 463.624 362.33 464.656 362.33 465.712C362.33 466.6 362.426 467.512 362.69 468.4C363.41 470.752 365.282 472.192 367.394 472.192C368.69 472.192 369.53 471.736 370.106 470.992C370.202 470.848 370.322 470.872 370.322 471.04V471.544C370.322 471.832 370.49 472 370.778 472H374.378C374.666 472 374.834 471.832 374.834 471.544V455.656C374.834 455.368 374.666 455.2 374.378 455.2H370.778C370.49 455.2 370.322 455.368 370.322 455.656ZM369.962 467.512C369.698 468.016 369.29 468.328 368.69 468.328C368.09 468.328 367.682 468.016 367.418 467.536C367.178 467.08 367.058 466.456 367.058 465.784C367.058 465.088 367.178 464.44 367.418 463.984C367.682 463.48 368.09 463.192 368.69 463.192C369.266 463.192 369.674 463.48 369.938 463.936C370.202 464.416 370.322 465.04 370.322 465.784C370.322 466.456 370.202 467.056 369.962 467.512ZM383.291 468.376C382.211 468.424 381.347 468.136 381.011 467.416C380.963 467.32 380.939 467.224 380.891 467.104C380.867 466.96 380.939 466.888 381.059 466.888H388.187C388.475 466.888 388.643 466.72 388.643 466.432C388.619 466.048 388.571 465.664 388.499 465.28C387.875 461.728 385.859 459.328 382.475 459.328C379.595 459.328 377.267 461.08 376.547 463.648C376.379 464.272 376.283 464.92 376.283 465.664C376.283 467.272 376.715 468.664 377.483 469.744C378.611 471.28 380.483 472.192 382.907 472.192C384.707 472.192 386.459 471.736 387.659 470.632C387.851 470.44 387.875 470.248 387.707 470.008L386.075 467.752C385.907 467.512 385.691 467.512 385.451 467.704C384.947 468.112 384.155 468.328 383.291 468.376ZM382.379 463.192C383.123 463.192 383.555 463.576 383.795 464.152C383.819 464.224 383.843 464.272 383.867 464.344C383.915 464.488 383.819 464.56 383.699 464.56H381.107C380.987 464.56 380.891 464.488 380.939 464.344C380.963 464.272 380.987 464.2 381.011 464.152C381.251 463.552 381.683 463.192 382.379 463.192ZM392.235 472.024C393.363 472.024 394.203 471.208 394.203 470.176C394.203 469.168 393.243 468.352 392.235 468.352C391.251 468.352 390.315 469.168 390.315 470.176C390.315 471.208 391.107 472.024 392.235 472.024Z" fill="white"/>
<g filter="url(#filter0_d)">
<path d="M460.762 196.891C467.485 190.499 467.703 180.005 471.726 171.593C474.804 165.167 480.224 159.899 486.763 157.053C490.895 155.272 496.141 154.614 499.446 157.681C500.153 158.342 500.981 159.212 501.883 158.923C502.452 158.781 502.779 158.22 503.036 157.7C505.309 153.18 504.384 147.391 507.462 143.382C509.101 141.228 511.677 139.973 514.245 139.187C519.202 137.627 524.635 137.373 529.684 138.549C531.019 138.848 532.434 139.286 533.427 140.2C535.277 141.875 535.545 144.835 534.636 147.127C533.713 149.473 531.818 151.264 529.817 152.791C523.213 157.86 514.589 161.444 511.503 169.223C511.127 170.184 510.833 171.284 511.037 172.282C511.241 173.279 511.904 174.106 512.163 175.118C512.911 178.266 509.211 180.635 505.983 181.243C503.059 181.816 500.048 181.834 497.114 181.343C495.09 180.977 492.875 180.443 491.102 181.559C487.905 183.591 489.616 188.647 488.093 192.13C487.159 194.297 485.022 195.669 482.945 196.822C479.139 198.927 475.077 200.668 470.883 202.02C467.467 203.109 464.014 203.893 460.81 205.511C457.606 207.128 454.746 209.663 453.667 213.028" fill="#63C5B5"/>
<path d="M468.857 191.101C470.614 187.622 473.248 184.614 475.851 181.716C479.961 177.158 484.1 172.49 489.265 169.276C493.229 166.801 497.662 165.219 501.611 162.799C504.43 161.078 507.062 158.954 509.299 156.547C510.537 155.228 511.624 153.81 513.093 152.73C514.785 151.474 516.909 150.805 518.818 149.843C521.409 148.533 523.678 146.665 525.511 144.444" stroke="white" stroke-miterlimit="10" stroke-linecap="round" stroke-linejoin="round"/>
<path d="M526.157 220.132C524.036 223.867 521.421 227.469 517.871 229.937C515.411 231.636 512.685 232.791 509.772 233.543C508.26 233.905 506.763 234.211 505.226 234.448C499.287 235.273 493.228 235.005 487.394 233.678C478.891 231.753 470.757 227.57 462.023 227.823C458.044 227.936 454.103 229.002 450.591 230.89C448.389 232.069 446.403 233.541 444.633 235.307L447.604 228.617C451.644 221.682 455.782 214.597 461.675 209.102C465.52 205.534 469.972 202.778 474.571 200.355C481.97 196.502 489.812 193.416 497.96 191.826C504.556 190.528 511.632 190.302 517.86 192.796C524.089 195.291 529.378 201.07 529.748 207.83C530.007 212.144 528.293 216.342 526.157 220.132Z" fill="#539C90"/>
<path d="M454.534 224.753C463.14 217.274 474.321 212.725 485.7 212.06C492.834 211.613 499.93 212.631 507.031 212.529C514.147 212.373 521.602 210.951 526.984 206.263" stroke="white" stroke-miterlimit="10" stroke-linecap="round" stroke-linejoin="round"/>
<path d="M459.351 59.3381C459.458 58.263 459.993 57.0678 461.047 56.6662C461.874 56.3506 462.926 56.5097 463.514 57.1474C468.061 62.1787 463.504 70.6815 463.504 70.6815C463.504 70.6815 458.425 67.5334 459.351 59.3381Z" fill="#63C5B5"/>
<path d="M451.794 75.7931C445.2 80.7635 458.425 86.0626 464.824 84.312C464.847 84.26 457.472 71.4734 451.794 75.7931Z" fill="#63C5B5"/>
<path d="M475.383 67.1415C475.035 65.5507 475.538 63.5922 476.986 62.8679C478.085 62.3623 479.472 62.6092 480.447 63.3578C481.445 64.0544 482.643 65.8385 482.946 66.9725C484.833 74.1816 480.508 78.5456 480.508 78.5456C480.508 78.5456 475.954 69.7679 475.383 67.1415Z" fill="#63C5B5"/>
<path d="M519.654 106.625C519.807 105.446 520.418 104.222 521.575 103.867C522.304 103.632 523.102 103.802 523.754 104.157C524.406 104.511 524.965 105.074 525.421 105.59C526.44 106.795 527.014 108.3 527.108 109.902C527.229 113.949 524.299 117.565 524.299 117.565C524.299 117.565 519.293 109.521 519.654 106.625Z" fill="#63C5B5"/>
<path d="M498.017 111.469C496.638 108.418 493.361 106.264 490.019 106.202C489.152 106.188 488.29 106.301 487.572 106.791C485.904 107.728 485.337 109.97 485.8 111.862C486.211 113.73 487.501 115.307 488.734 116.732C491.062 119.335 495.415 121.596 498.132 123.749C498.132 123.749 500.803 117.646 498.017 111.469Z" fill="#63C5B5"/>
<path d="M462.724 62.5332C461.853 69.6302 465.14 76.7797 470.027 82.0259C474.915 87.2722 481.264 90.927 487.573 94.2521C493.935 97.6005 500.441 100.764 505.961 105.295C511.348 109.705 515.92 115.933 515.964 122.94C516.02 131.451 509.392 138.589 502.031 142.904C494.694 147.166 486.333 149.536 479.082 154.024C475.728 156.079 472.529 158.764 471.362 162.484C469.764 167.445 472.206 172.719 474.568 177.334" stroke="white" stroke-miterlimit="10" stroke-linecap="round" stroke-linejoin="round"/>
<path d="M478.818 66.998C480.99 73.7107 481.12 82.7532 479.088 89.5173" stroke="white" stroke-miterlimit="10" stroke-linecap="round" stroke-linejoin="round"/>
<path d="M455.982 78.9801C458.174 80.7729 460.389 82.5137 462.935 83.6542C465.481 84.7947 469.072 84.7183 471.734 83.7894" stroke="white" stroke-miterlimit="10" stroke-linecap="round" stroke-linejoin="round"/>
<path d="M523.7 108.873C525.037 112.155 525.021 115.953 523.681 119.222C522.342 122.49 518.83 125.596 515.629 127.032" stroke="white" stroke-miterlimit="10" stroke-linecap="round" stroke-linejoin="round"/>
<path d="M492.943 112.629C495.66 118.962 498.177 124.207 501.692 130.149C503.286 132.859 507.008 137.084 509.343 137.444" stroke="white" stroke-miterlimit="10" stroke-linecap="round" stroke-linejoin="round"/>
</g>
<path d="M91.1546 106.733C92.3631 109.58 93.3744 112.495 94.1885 115.48C95.9409 121.915 96.9045 128.626 97.8123 135.253C98.2724 138.715 97.169 148.185 95.1712 151.142C90.9898 144.062 85.6886 136.02 80.3086 129.609C75.1384 123.424 74.2306 116.797 67.505 112.306C66.6363 111.725 65.7955 111.186 64.9268 110.605C61.6616 108.507 58.4388 106.382 55.923 103.486C52.7644 99.8003 50.9506 94.3779 53.054 90.0161C54.5467 86.8462 57.8615 84.7825 61.3515 84.1819C64.7991 83.6092 68.3806 84.3447 71.6495 85.7114C80.7127 89.5123 87.2924 97.7432 91.1546 106.733Z" fill="#63C5B5"/>
<path d="M64.3592 92.519C74.2516 96.3804 80.2695 104.496 86.552 113.105C92.8489 121.644 96.6055 132.04 97.352 142.659" stroke="white" stroke-miterlimit="10" stroke-linecap="round" stroke-linejoin="round"/>
<g filter="url(#filter1_d)">
<path d="M70.2651 351.265C62.938 345.712 55.5239 340.085 49.8553 332.782C44.9122 326.482 41.5203 319.172 37.1131 312.425C34.2679 308.083 31.0305 303.933 29.2065 299.108C27.3826 294.284 27.2655 288.355 30.5404 284.289C33.8841 280.054 40.231 279.011 45.3154 280.665C50.4806 282.313 54.5956 286.235 57.8451 290.546C62.1738 296.241 65.2749 302.923 66.8514 309.881C68.2987 316.197 68.5449 322.766 69.9923 329.083C71.3285 335.002 73.779 340.593 76.7714 345.818C79.4041 350.583 85.8911 359.045 87.808 364.025C83.8402 366.436 73.3698 353.636 70.2651 351.265Z" fill="#63C5B5"/>
<path d="M41.5435 290.055C48.3057 292.396 51.4792 300.048 53.3731 306.901C55.5012 314.712 55.8236 323.39 60.0062 330.397C67.9007 343.552 78.0367 358.411 85.0126 362.526" stroke="white" stroke-miterlimit="10" stroke-linecap="round" stroke-linejoin="round"/>
</g>
<g filter="url(#filter2_d)">
<path d="M35.0656 335.107C29.2352 333.265 21.4856 332.949 18.2144 338.154C15.4489 342.508 17.501 348.21 19.9538 352.744C22.0288 356.574 24.5891 360.368 28.5533 362.268C31.2499 363.531 34.2786 363.793 37.2142 363.899C45.4552 364.26 53.7407 364.129 61.9901 363.514C71.5335 362.802 83.3885 365.821 91.761 371.214C80.2331 352.962 54.7945 341.198 35.0656 335.107Z" fill="#539C90"/>
<path d="M25.9482 348.068C33.2512 347.849 40.5663 347.791 47.6786 349.374C54.9526 350.946 83.3051 361.436 87.9959 366.535" stroke="white" stroke-miterlimit="10" stroke-linecap="round" stroke-linejoin="round"/>
</g>
<path d="M95.12 295.207C87.6587 283.529 74.9259 275.418 61.3009 273.634C51.1633 272.256 40.7824 274.202 30.8069 272.093C20.3449 269.904 10.8561 263.172 5.42233 253.927C-0.0925382 244.681 -1.47125 233.165 1.61059 222.946C3.96251 215.16 9.31519 207.78 17.1009 205.266C21.3181 203.887 25.9409 204.131 30.2392 205.104C34.2132 206.077 37.9438 207.699 41.3501 209.889C49.1358 214.836 55.4617 222.459 60.1655 230.488C64.4639 237.869 75.0881 249.223 82.3061 256.684C86.5233 261.064 89.6052 263.983 89.6052 263.983C94.5523 270.066 92.2004 287.827 95.12 295.207Z" fill="#63C5B5"/>
<path d="M14.749 227.648C39.0793 238.597 65.5183 253.033 82.7928 273.308" stroke="white" stroke-miterlimit="10" stroke-linecap="round" stroke-linejoin="round"/>
<path opacity="0.2" d="M85.1447 270.633C85.1447 270.633 48.8925 241.275 41.269 209.727C49.0547 214.674 55.3806 222.297 60.0845 230.326C64.3828 237.706 75.0071 249.061 82.2251 256.522C83.1172 260.577 84.0904 265.2 85.1447 270.633Z" fill="#5275A0"/>
<path opacity="0.2" d="M86.7669 153.766C83.4418 163.904 78.819 173.717 74.1963 183.368C71.7632 188.397 61.95 200.075 56.6785 202.265C57.3273 189.127 57.3273 173.717 55.7864 160.417C54.3265 147.603 58.9493 137.952 53.921 126.03C53.2722 124.489 52.6234 123.029 51.9746 121.488C52.4612 121.65 52.8667 121.813 53.3533 121.975C61.6256 125.543 65.4374 134.221 66.0862 142.737C66.6539 149.711 65.4374 156.767 64.4642 163.742C64.0587 166.986 63.6531 170.23 64.3831 173.393V173.474C65.2752 177.205 70.7089 177.042 71.4388 173.231L73.6286 161.552C74.2774 158.065 75.0073 154.415 77.8458 151.982C78.9812 151.009 80.4411 150.441 81.9009 150.441C84.3339 150.604 85.7937 151.982 86.7669 153.766Z" fill="#5275A0"/>
<path d="M85.1453 263.252C79.3872 233.407 76.3864 228.785 78.9006 221.323C82.1446 211.753 80.2793 202.183 83.3611 192.614C86.3618 183.044 88.4705 172.663 86.0374 162.931C85.2264 159.849 83.6855 156.442 79.9549 156.361C78.4951 156.28 77.0352 156.929 75.8998 157.902C73.0613 160.335 72.3314 163.985 71.6826 167.472L69.4928 179.151C68.7629 182.962 63.3292 183.125 62.437 179.394V179.313C61.7071 176.15 62.1126 172.906 62.5182 169.662C63.4914 162.687 64.7079 155.713 64.1402 148.657C63.4103 140.141 59.5985 131.463 51.3262 127.895C48.4066 126.678 45.0814 126.354 41.9996 127.165C33.4029 129.355 31.1321 137.789 32.4297 145.007C33.3218 150.035 35.6737 154.739 37.8634 159.362C43.135 170.797 39.2422 181.259 39.9721 193.749C41.9185 228.298 85.1453 263.252 85.1453 263.252Z" fill="#539C90"/>
<path d="M46.6221 136.086C50.8393 157.334 55.1377 178.745 63.41 198.777C65.843 204.616 66.9784 212.402 81.0089 228.379" stroke="white" stroke-miterlimit="10" stroke-linecap="round" stroke-linejoin="round"/>
<path d="M63.5571 49.5365C64.696 49.4654 72.7399 43.557 75.8009 41.5638C76.6551 40.9943 77.5805 40.4248 78.15 39.5706C78.7195 38.7164 79.0042 37.5774 78.5771 36.652C78.0076 35.5131 77.1534 34.3029 74.8043 34.3741C70.8179 34.3741 69.4654 35.6554 67.4722 37.7198C61.1368 44.34 63.5571 49.5365 63.5571 49.5365Z" fill="#63C5B5"/>
<path d="M99.3632 73.4527C102.851 75.0188 106.553 76.5849 110.326 76.0866C111.821 75.873 113.387 75.2324 113.885 73.8087C114.312 72.5985 113.743 71.246 112.746 70.3918C111.821 69.5375 110.539 69.1816 109.329 68.8257C104.702 67.6867 98.2242 68.3274 93.5972 69.6087C93.6684 69.6799 97.2988 72.4561 99.3632 73.4527Z" fill="#63C5B5"/>
<path d="M122.286 22.0556C120.72 21.059 119.011 19.7777 119.011 17.9269C119.011 16.076 120.933 14.6523 122.784 14.6523C124.635 14.6523 126.343 15.6489 127.696 16.8591C133.533 21.9844 132.821 27.8216 132.821 27.8216C132.821 27.8216 123.994 23.1234 122.286 22.0556Z" fill="#63C5B5"/>
<path d="M126.912 6.39597C125.56 5.82649 124.136 5.11464 123.353 3.8333C122.997 3.19264 122.712 2.48079 122.997 1.76894C123.424 0.629972 124.136 -0.366622 126.983 0.131674C136.095 1.76893 138.017 8.03323 138.017 8.03323C138.017 8.03323 129.333 7.39256 126.912 6.39597Z" fill="#63C5B5"/>
<path d="M153.536 20.1346C157.166 19.8499 160.939 17.9991 163.217 15.1517C164.071 14.0839 164.854 12.8737 165.139 11.5212C165.424 10.1687 165.139 8.60262 164.071 7.7484C162.79 6.68062 160.797 6.82299 159.373 7.7484C157.949 8.6738 157.095 10.1687 156.312 11.7348C155.386 13.728 153.536 20.1346 153.536 20.1346Z" fill="#63C5B5"/>
<path d="M88.4009 153.037C79.574 145.278 70.747 137.447 61.92 129.688C57.2218 125.559 52.3812 121.288 49.4626 115.736C43.056 103.848 46.7576 88.4718 55.371 78.1499C63.9844 67.8281 76.6554 61.7062 89.3975 57.2927C102.14 52.8792 115.38 49.7471 127.482 43.8387C135.098 40.1371 142.715 34.6558 144.851 26.4695C146.132 21.5577 145.064 16.0765 142.075 11.9477C139.085 7.81898 134.173 5.18513 129.119 4.90039" stroke="white" stroke-miterlimit="10" stroke-linecap="round" stroke-linejoin="round"/>
<path d="M159.658 11.6621C157.237 19.0654 147.841 23.55 143.57 29.9567" stroke="white" stroke-miterlimit="10" stroke-linecap="round" stroke-linejoin="round"/>
<path d="M125.916 20.2051C127.766 22.1271 129.973 23.7643 131.61 25.8999C135.027 30.4557 135.312 37.859 130.258 42.4149" stroke="white" stroke-miterlimit="10" stroke-linecap="round" stroke-linejoin="round"/>
<path d="M78.4351 61.6367C86.1942 67.6163 96.4449 71.6026 106.268 72.0298" stroke="white" stroke-miterlimit="10" stroke-linecap="round" stroke-linejoin="round"/>
<path d="M60.6395 72.5979C57.0802 62.0625 60.9954 49.3915 69.8936 42.6289" stroke="white" stroke-miterlimit="10" stroke-linecap="round" stroke-linejoin="round"/>
<path d="M467.887 336.809C464.346 322.21 467.979 306.835 473.794 293.026C478.622 281.509 485.295 270.376 495.286 262.859C498.444 260.494 502.084 258.539 505.954 258.343C509.849 258.233 514.118 260.388 515.181 264.101C516.184 267.284 514.763 270.612 513.221 273.519C507.922 283.071 499.739 290.527 492.341 298.489C479.641 312.169 468.594 328.754 467.267 347.395" fill="#63C5B5"/>
<path d="M469.917 322.532C473.291 298.922 492.29 273.121 507.671 266.252" stroke="white" stroke-miterlimit="10" stroke-linecap="round" stroke-linejoin="round"/>
<path d="M465.242 336.893C464.373 334.495 470.517 325.979 471.83 323.868C479.057 312.12 488.926 302.264 500.135 294.854C504.654 291.825 509.657 289.206 514.974 288.962C520.291 288.718 526.031 291.548 528.084 296.804C530.089 301.89 527.994 307.968 524.247 311.781C520.499 315.593 515.364 317.428 510.313 318.601C502.513 320.378 494.362 320.612 486.623 322.919C478.944 325.118 468.3 329.079 465.242 336.893Z" fill="#539C90"/>
<path d="M471.156 327.257C484.472 314.131 506.842 301.699 524.745 298.856" stroke="white" stroke-miterlimit="10" stroke-linecap="round" stroke-linejoin="round"/>
<g filter="url(#filter3_d)">
<path d="M345.438 90.8453C345.438 88.5797 347.055 87.6087 348.994 88.8224L453.245 149.103C455.185 150.236 456.801 152.987 456.801 155.334V358.186C456.801 360.451 455.185 361.422 453.245 360.29L348.994 300.008C347.055 298.876 345.438 297.419 345.438 295.154V90.8453ZM339.458 59.9361V318.861C339.458 321.532 341.317 324.768 343.66 326.063L458.256 392.412C460.518 393.788 462.458 392.655 462.458 389.985V131.06C462.458 128.389 460.599 125.153 458.256 123.858L343.58 57.5896C341.317 56.214 339.458 57.3468 339.458 59.9361Z" fill="white"/>
</g>
<path d="M458.458 392.267C460.828 393.319 464.179 393.238 466.386 392.025L471.208 389.273C473.578 387.979 475.458 384.742 475.458 382.071V123.127C475.458 122.075 475.213 121.023 474.722 119.971C474.559 119.647 474.396 119.324 474.232 119L460.992 126.607C461.237 127.092 461.564 127.658 461.727 128.144C462.054 129.034 462.218 129.924 462.218 130.733V389.678C462.136 392.025 460.501 393.157 458.458 392.267Z" fill="#00B2A7"/>
<g filter="url(#filter4_d)">
<path d="M462.154 393C460.84 393 459.526 392.757 458.458 392.272C458.951 392.515 459.444 392.596 459.854 392.596C461.25 392.596 462.154 391.463 462.154 389.602V130.73C462.154 129.921 461.989 129.031 461.661 128.141C461.497 127.656 461.25 127.09 460.922 126.604L474.226 119C474.39 119.324 474.555 119.647 474.719 119.971C475.212 121.022 475.458 122.074 475.458 123.126V126.2V137.283V363.23V381.917C475.458 383.373 474.883 385.072 473.98 386.447C473.241 387.58 472.255 388.551 471.27 389.117L466.424 391.867C465.192 392.676 463.714 393 462.154 393Z" fill="#CFCBCA"/>
</g>
<path d="M399.498 336.446L399.735 335.964C398.627 335.321 397.599 335 396.571 335C395.385 335 394.277 335.482 393.565 336.446C392.853 337.411 392.458 338.696 392.458 340.223C392.458 342.473 393.249 344.804 394.435 346.973C395.622 349.062 397.283 350.991 399.181 352.036C400.289 352.679 401.317 353 402.345 353C403.531 353 404.639 352.518 405.351 351.554C406.063 350.589 406.458 349.304 406.458 347.777C406.458 345.527 405.667 343.196 404.481 341.027C403.294 338.938 401.633 337.009 399.735 335.964L399.498 336.446L399.26 336.929C400.921 337.893 402.503 339.661 403.611 341.589C404.718 343.598 405.43 345.768 405.43 347.777C405.43 349.143 405.113 350.187 404.56 350.911C404.006 351.554 403.294 351.955 402.424 351.955C401.712 351.955 400.763 351.714 399.814 351.152C398.153 350.187 396.571 348.42 395.464 346.491C394.356 344.482 393.644 342.312 393.644 340.304C393.644 338.937 393.961 337.893 394.514 337.17C395.068 336.527 395.78 336.125 396.65 336.125C397.362 336.125 398.311 336.366 399.26 336.929L399.498 336.446Z" fill="#2C5B6D"/>
<path d="M400.458 96.3676C398.829 95.5062 397.458 96.211 397.458 97.9338C397.458 99.6566 398.744 101.771 400.458 102.632C402.087 103.494 403.458 102.789 403.458 101.066C403.372 99.3434 402.087 97.229 400.458 96.3676Z" fill="white"/>
<path d="M411.138 113.636L389.778 101.33C388.498 100.611 387.458 101.091 387.458 102.529C387.458 103.887 388.498 105.645 389.778 106.364L411.138 118.67C412.418 119.389 413.458 118.909 413.458 117.471C413.458 116.033 412.418 114.355 411.138 113.636Z" fill="white"/>
<path d="M345.458 295.242C345.458 297.512 347.069 298.971 349.002 300.107L452.914 360.51C454.847 361.645 456.458 360.753 456.458 358.402V155.138C456.458 152.868 454.847 150.112 452.914 148.895L349.002 88.492C347.069 87.3569 345.458 88.2488 345.458 90.519V295.242Z" fill="#2C5B6D"/>
<path d="M454.444 361C453.961 361 453.478 360.838 452.914 360.513L349.002 300.108C347.069 298.973 345.458 297.514 345.458 295.243V90.5946C345.458 88.973 346.264 88 347.391 88C347.875 88 348.438 88.1622 349.002 88.4865L452.914 148.892C454.847 150.027 456.458 152.784 456.458 155.135V358.405C456.458 360.027 455.652 360.919 454.444 361Z" fill="#CFCBCA"/>
<path d="M353.458 106.925V103.586C353.458 103.179 353.68 102.934 353.902 103.016L354.014 103.097C354.236 103.179 354.458 103.667 354.458 104.075V107.414C354.458 107.821 354.236 108.066 354.014 107.984L353.902 107.903C353.68 107.74 353.458 107.333 353.458 106.925Z" fill="#2C5B6D"/>
<path d="M355.458 107.99V103.55C355.458 103.168 355.68 102.938 355.902 103.015L356.014 103.091C356.236 103.168 356.458 103.627 356.458 104.01V108.45C356.458 108.832 356.236 109.062 356.014 108.985L355.902 108.909C355.68 108.832 355.458 108.45 355.458 107.99Z" fill="#2C5B6D"/>
<path d="M361.387 109.944V106.708L360.172 109.135L361.387 109.944ZM361.315 112.64C361.315 112.551 361.244 112.461 361.244 112.281V110.933L359.601 109.764C359.529 109.674 359.458 109.584 359.458 109.404V108.955V108.685L359.529 108.506L361.244 105.09L361.315 105H361.458L361.672 105.18L361.815 105.36C361.815 105.449 361.887 105.539 361.887 105.719V110.303L362.244 110.573L362.387 110.753C362.387 110.843 362.458 110.933 362.458 111.112V111.382C362.458 111.562 362.458 111.652 362.387 111.652H362.244L361.887 111.382V112.73C361.887 112.91 361.887 113 361.815 113H361.672L361.387 112.82L361.315 112.64Z" fill="#2C5B6D"/>
<path d="M363.925 112.766C363.591 111.969 363.458 110.932 363.458 109.735C363.458 108.539 363.591 107.741 363.925 107.342C364.191 106.943 364.658 106.863 365.191 107.262C365.391 107.422 365.591 107.581 365.791 107.821C365.991 108.06 366.125 108.299 366.258 108.539L366.325 108.698V108.778L366.191 109.177L366.125 109.257L366.058 109.177C365.858 108.778 365.591 108.459 365.258 108.219C364.925 107.98 364.591 107.98 364.391 108.299C364.191 108.618 364.058 109.177 364.058 110.054C364.058 110.932 364.191 111.729 364.391 112.288C364.591 112.846 364.858 113.245 365.258 113.484C365.391 113.564 365.525 113.644 365.658 113.644C365.791 113.644 365.858 113.724 365.925 113.644V111.969L365.258 111.49L365.125 111.331C365.125 111.251 365.058 111.171 365.058 111.011V110.772C365.058 110.613 365.058 110.533 365.125 110.533H365.258L366.258 111.251L366.391 111.49C366.391 111.57 366.458 111.729 366.458 111.889V114.601C366.458 114.681 366.458 114.761 366.458 114.84L366.391 114.92C366.125 115.08 365.725 115 365.191 114.681C364.658 114.202 364.258 113.564 363.925 112.766Z" fill="#2C5B6D"/>
<path d="M441.06 156.496C440.974 156.343 440.974 156.037 440.974 155.807V151.898C440.974 151.208 441.318 150.825 441.662 150.978L447.598 154.044C447.684 154.12 447.77 154.197 447.856 154.274L447.942 154.427C448.028 154.58 448.028 154.887 448.028 155.117V159.026C448.028 159.715 447.684 160.099 447.34 159.945L441.404 156.88C441.318 156.803 441.146 156.65 441.06 156.496ZM448.114 154.12C447.856 153.584 447.598 153.201 447.34 153.124L441.404 150.058C440.888 149.828 440.458 150.288 440.458 151.285V155.193C440.458 155.73 440.544 156.266 440.802 156.803C440.888 157.033 440.974 157.186 441.146 157.416C441.318 157.646 441.49 157.799 441.576 157.876L447.512 160.942C448.028 161.172 448.458 160.712 448.458 159.715V155.807C448.458 155.193 448.372 154.657 448.114 154.12Z" fill="#2C5B6D"/>
<path d="M445.458 152.63V158L441.563 156.151L441.458 156.063V155.887V151.838C441.458 151.221 441.774 150.869 442.09 151.045L445.458 152.63Z" fill="#2C5B6D"/>
<path d="M448.958 156.112C449.258 156.191 449.458 156.983 449.458 157.854V158.646C449.458 159.517 449.258 160.072 448.958 159.992L448.458 159.834V156.033C448.458 155.954 448.658 156.033 448.958 156.112Z" fill="#2C5B6D"/>
<path d="M434.458 152.017C434.458 152.776 433.996 153.19 433.458 152.914C432.92 152.638 432.458 151.741 432.458 150.983C432.458 150.224 432.92 149.81 433.458 150.086C433.996 150.362 434.458 151.259 434.458 152.017Z" fill="#2C5B6D"/>
<path d="M433.941 147.316C432.921 146.653 431.98 147.068 431.51 148.228C431.431 148.476 431.431 148.808 431.588 149.139C431.823 149.471 432.059 149.636 432.215 149.305C432.529 148.476 433.157 148.228 433.941 148.642C434.647 149.056 435.353 150.134 435.667 151.376C435.745 151.791 436.059 152.122 436.294 151.956C436.451 151.874 436.529 151.542 436.372 151.211C435.902 149.471 434.961 147.896 433.941 147.316Z" fill="#2C5B6D"/>
<path d="M433.871 144.489C432.439 143.554 431.221 143.979 430.505 145.594C430.433 145.849 430.433 146.273 430.577 146.528C430.72 146.868 431.006 146.953 431.15 146.698C431.723 145.424 432.725 144.999 433.942 145.764C435.088 146.528 436.163 148.398 436.735 150.437C436.879 150.862 437.093 151.117 437.308 150.947C437.452 150.862 437.523 150.437 437.38 150.097C436.592 147.718 435.303 145.509 433.871 144.489Z" fill="#2C5B6D"/>
<path d="M339.458 59.2056C339.779 57.0187 341.466 56.2087 343.555 57.4237L457.552 123.841C458.676 124.489 459.721 125.623 460.444 127L473.458 119.386C472.735 118.09 471.691 116.956 470.486 116.308L356.489 49.972C354.24 48.676 350.464 48.676 348.215 49.972L343.475 52.7259C341.466 53.8598 339.779 56.6947 339.458 59.2056Z" fill="#00B2A7"/>
<path d="M461.201 127C460.473 125.705 459.422 124.573 458.29 123.844L396.207 88L343.581 57.5768C342.934 57.1722 342.287 57.0104 341.721 57.0104C340.59 57.0104 339.701 57.8195 339.458 59.1141C339.458 59.195 339.458 59.195 339.458 59.2759C339.701 56.7676 341.479 53.9357 343.581 52.722L348.35 49.971C349.482 49.3236 351.018 49 352.554 49C354.09 49 355.545 49.3236 356.757 49.971L471.467 116.239C472.599 116.886 473.65 118.019 474.458 119.313L461.201 127Z" fill="#A8A8A8"/>
<path d="M424.458 308C424.458 308 412.458 319.904 396.458 315.369C396.458 315.369 401.274 320.066 412.54 316.908C420.213 314.802 424.458 308 424.458 308Z" fill="white"/>
<path d="M447.903 235C447.903 235 453.964 250.52 443.458 263C443.458 263 449.681 260.6 451.297 249.16C452.348 241.48 447.903 235 447.903 235Z" fill="white"/>
<path d="M422.458 313C433.469 301.664 438.371 288.492 438.452 275C438.452 275 441.667 282.983 436.603 295.676C431.62 308.37 422.458 313 422.458 313Z" fill="white"/>
<path d="M206.401 295.097C206.401 297.363 204.786 298.82 202.847 299.953L98.6648 360.24C96.7266 361.373 95.1113 360.483 95.1113 358.136V155.262C95.1113 152.996 96.7266 150.245 98.6648 149.031L202.847 88.7431C204.786 87.6101 206.401 88.5003 206.401 90.7661V295.097ZM208.258 57.5876L93.6576 123.864C91.3963 125.239 89.458 128.476 89.458 131.066V390.02C89.458 392.691 91.3155 393.743 93.6576 392.448L208.258 326.172C210.52 324.877 212.458 321.559 212.458 318.97V60.0153C212.377 57.3448 210.52 56.2119 208.258 57.5876Z" fill="#00B2A7"/>
<g filter="url(#filter5_d)">
<path d="M91.7223 393C91.5606 393 91.3988 393 91.2371 392.919C90.8328 392.838 90.4284 392.596 90.1858 392.272C89.7815 391.786 89.458 390.977 89.458 390.006V131.109C89.458 130.3 89.6197 129.41 89.9432 128.52C90.105 128.035 90.3476 127.469 90.671 126.983C91.3988 125.689 92.4501 124.556 93.5823 123.828L152.05 90.0903L208.334 57.5663C208.981 57.1618 209.628 57 210.194 57C211.326 57 212.135 57.7281 212.377 59.0226C212.458 59.3463 212.458 59.6699 212.458 59.9935V318.891C212.458 321.561 210.598 324.797 208.253 326.091L93.5014 392.353C93.3397 392.434 93.0971 392.596 92.9353 392.676H93.0162C92.6119 392.919 92.1266 393 91.7223 393ZM95.0379 358.13C95.0379 359.748 95.8466 360.719 97.0596 360.719C97.5448 360.719 98.1109 360.557 98.677 360.233L202.996 299.959C204.937 298.826 206.555 297.37 206.555 295.104V251.173C207.121 250.445 207.606 249.717 208.01 248.827C214.075 237.5 209.304 229.328 206.636 223.261C206.636 223.18 206.555 223.099 206.555 223.018V90.8993C206.555 89.2812 205.746 88.3104 204.614 88.3104C204.129 88.3104 203.563 88.4722 202.996 88.7958L98.677 149.07C96.7361 150.203 95.1188 152.954 95.1188 155.3V358.13H95.0379Z" fill="white"/>
</g>
<path d="M93.458 392.267C91.0878 393.319 87.7369 393.238 85.5301 392.025L80.708 389.273C78.3378 387.979 76.458 384.742 76.458 382.071V123.127C76.458 122.075 76.7032 121.023 77.1936 119.971C77.3571 119.647 77.5205 119.324 77.684 119L90.9244 126.607C90.6792 127.092 90.3522 127.658 90.1888 128.144C89.8619 129.034 89.6984 129.924 89.6984 130.733V389.678C89.6984 392.025 91.333 393.157 93.458 392.267Z" fill="#00B2A7"/>
<g filter="url(#filter6_d)">
<path d="M89.8445 393C88.2841 393 86.8058 392.676 85.5739 392.029L80.7285 389.279C78.8396 388.227 77.2793 386.043 76.7044 383.778C76.5401 383.211 76.458 382.564 76.458 381.998V123.126C76.458 122.074 76.7044 121.022 77.1971 119.971C77.3614 119.647 77.5256 119.324 77.6899 119L90.9942 126.604C90.7479 127.09 90.4194 127.656 90.2551 128.141C89.9266 129.031 89.7624 129.921 89.7624 130.73V389.602C89.7624 391.463 90.7479 392.596 92.0619 392.596C92.4725 392.596 92.9653 392.515 93.458 392.272C92.4725 392.757 91.1585 393 89.8445 393Z" fill="#CFCBCA"/>
</g>
<path d="M152.418 336.446L152.656 336.929C153.605 336.366 154.554 336.125 155.266 336.125C156.215 336.125 156.848 336.446 157.402 337.17C157.955 337.812 158.272 338.857 158.272 340.304C158.272 342.232 157.56 344.482 156.452 346.491C155.345 348.5 153.763 350.187 152.102 351.152C151.153 351.714 150.204 351.955 149.492 351.955C148.543 351.955 147.91 351.634 147.356 350.911C146.803 350.268 146.486 349.223 146.486 347.777C146.486 345.848 147.198 343.598 148.305 341.589C149.413 339.58 150.995 337.893 152.656 336.929L152.418 336.446L152.181 335.964C150.283 337.089 148.622 338.938 147.435 341.027C146.249 343.116 145.458 345.527 145.458 347.777C145.458 349.384 145.853 350.67 146.565 351.554C147.277 352.518 148.385 353 149.571 353C150.52 353 151.627 352.679 152.735 352.036C154.633 350.911 156.294 349.062 157.481 346.973C158.667 344.884 159.458 342.473 159.458 340.223C159.458 338.616 159.063 337.33 158.351 336.446C157.639 335.482 156.531 335 155.345 335C154.396 335 153.289 335.321 152.181 335.964L152.418 336.446Z" fill="#2C5B6D"/>
<path d="M151.458 96.3676C153.087 95.5062 154.458 96.211 154.458 97.9338C154.458 99.6566 153.172 101.771 151.458 102.632C149.829 103.494 148.458 102.789 148.458 101.066C148.544 99.3434 149.829 97.229 151.458 96.3676Z" fill="white"/>
<path d="M140.778 113.636L162.138 101.33C163.418 100.611 164.458 101.091 164.458 102.529C164.458 103.887 163.418 105.645 162.138 106.364L140.778 118.67C139.498 119.389 138.458 118.909 138.458 117.471C138.458 116.033 139.498 114.355 140.778 113.636Z" fill="white"/>
<path d="M206.458 295.242C206.458 297.512 204.847 298.971 202.914 300.107L99.0023 360.51C97.069 361.645 95.458 360.753 95.458 358.402V155.138C95.458 152.868 97.069 150.112 99.0023 148.895L202.914 88.492C204.847 87.3569 206.458 88.2488 206.458 90.519V295.242Z" fill="#2C5B6D"/>
<path d="M97.0319 362C95.8128 362 95 361.023 95 359.396V155.381C95 153.102 96.6255 150.336 98.5762 149.115L203.424 88.4883C203.993 88.1628 204.562 88 205.049 88C206.187 88 207 88.9765 207 90.6041V223.576C200.254 208.195 192.533 196.314 185.543 195.582L163.273 196.802C157.177 197.291 151.406 198.837 145.961 200.871C138.483 206.242 134.257 214.706 132.55 224.715C132.55 224.715 132.55 224.715 132.55 224.797C132.794 234.562 134.176 241.398 134.176 248.64C134.176 251.733 133.932 254.906 133.2 258.324C133.2 258.324 131.493 260.684 128.811 263.777C127.836 264.916 126.698 266.137 125.479 267.357C120.684 272.24 119.139 279.076 118.57 285.911C117.595 297.549 120.846 309.999 130.03 317.73C134.257 321.311 138.727 322.613 143.035 322.613C154.657 322.613 165.386 313.092 167.662 311.057C180.504 299.664 184.73 284.121 184.811 284.04C190.826 275.414 194.239 266.706 196.922 259.138C196.922 259.138 202.936 256.941 207 251.57V295.677C207 297.955 205.374 299.42 203.424 300.56L98.5762 361.186C98.0885 361.837 97.5196 362 97.0319 362Z" fill="#CFCBCA"/>
<path d="M179.458 115.69C179.458 116.702 179.92 117.254 180.458 116.886C180.996 116.518 181.458 115.322 181.458 114.31C181.458 113.298 180.996 112.746 180.458 113.114C179.843 113.482 179.458 114.586 179.458 115.69Z" fill="#2C5B6D"/>
<path d="M178.51 114.205C178.431 114.539 178.431 114.873 178.588 114.956C178.823 115.123 179.059 114.789 179.215 114.372C179.529 113.203 180.157 112.118 180.941 111.617C181.647 111.2 182.353 111.45 182.667 112.285C182.745 112.619 183.059 112.452 183.294 112.118C183.451 111.784 183.529 111.45 183.372 111.2C182.902 110.031 181.961 109.697 180.941 110.282C179.843 111.033 178.98 112.535 178.51 114.205Z" fill="#2C5B6D"/>
<path d="M176.512 113.224C176.43 113.516 176.43 113.881 176.594 113.954C176.757 114.1 177.085 113.881 177.248 113.516C177.903 111.763 179.049 110.156 180.44 109.499C181.75 108.841 182.977 109.134 183.632 110.302C183.796 110.521 184.041 110.448 184.287 110.156C184.451 109.864 184.532 109.499 184.369 109.353C183.55 108.038 182.077 107.6 180.522 108.403C178.803 109.134 177.33 111.033 176.512 113.224Z" fill="#2C5B6D"/>
<path d="M101.458 161.584V160C101.458 159.684 101.64 159.288 101.913 159.13L102.003 159.05C102.276 158.892 102.458 159.13 102.458 159.446V161.03C102.458 161.346 102.276 161.742 102.003 161.901L101.913 161.98C101.64 162.059 101.458 161.901 101.458 161.584Z" fill="#2C5B6D"/>
<path d="M103.458 160.46V157.183C103.458 156.809 103.64 156.34 103.913 156.153L104.003 156.06C104.276 155.872 104.458 156.153 104.458 156.528V159.805C104.458 160.179 104.276 160.647 104.003 160.835L103.913 160.928C103.64 161.115 103.458 160.928 103.458 160.46Z" fill="#2C5B6D"/>
<path d="M105.458 159.536V155.117C105.458 154.763 105.64 154.321 105.913 154.145L106.003 154.056C106.276 153.88 106.458 154.145 106.458 154.498V158.917C106.458 159.27 106.276 159.712 106.003 159.889L105.913 159.977C105.731 160.066 105.458 159.889 105.458 159.536Z" fill="#2C5B6D"/>
<path d="M107.458 158.513V151.091C107.458 150.745 107.64 150.314 107.913 150.141L108.003 150.055C108.276 149.882 108.458 150.141 108.458 150.487V157.909C108.458 158.255 108.276 158.686 108.003 158.859L107.913 158.945C107.64 159.118 107.458 158.859 107.458 158.513Z" fill="#2C5B6D"/>
<path d="M112.958 153.614V150.828L111.375 154.571L112.958 153.614ZM112.875 155.964C112.875 155.964 112.791 155.877 112.791 155.79V154.658L110.625 155.964C110.541 156.051 110.458 155.964 110.458 155.877V155.442V155.181L110.541 154.919L112.875 149.522L112.958 149.348L113.125 149.174L113.458 149H113.625C113.625 149 113.708 149.087 113.708 149.261V153.091L114.208 152.83H114.375C114.375 152.83 114.458 152.917 114.458 153.091V153.352C114.458 153.44 114.458 153.527 114.375 153.614L114.208 153.788L113.708 154.049V155.181C113.708 155.268 113.708 155.355 113.625 155.442L113.458 155.616L113.125 155.877L112.875 155.964Z" fill="#2C5B6D"/>
<path d="M115.199 153.781C114.736 153.426 114.458 152.717 114.458 151.564C114.458 150.412 114.736 149.436 115.199 148.549C115.662 147.663 116.402 146.953 117.236 146.51C117.606 146.333 117.884 146.155 118.254 146.067C118.532 145.978 118.81 145.978 118.995 146.067L119.088 146.155V146.333L118.902 146.953L118.81 147.131H118.717C118.347 147.042 117.977 147.219 117.421 147.485C116.865 147.84 116.402 148.283 116.032 148.904C115.662 149.525 115.569 150.234 115.569 151.121C115.569 152.008 115.754 152.54 116.032 152.806C116.31 153.072 116.773 152.983 117.328 152.717C117.514 152.628 117.699 152.451 117.977 152.362C118.162 152.185 118.347 152.096 118.439 151.919V150.057L117.421 150.589H117.236C117.236 150.589 117.143 150.5 117.143 150.323V150.057C117.143 149.968 117.143 149.791 117.236 149.791L117.421 149.613L119.088 148.727H119.365C119.458 148.727 119.458 148.904 119.458 148.993V151.564V151.83L119.365 152.008C118.902 152.628 118.254 153.16 117.421 153.604C116.402 154.047 115.662 154.136 115.199 153.781Z" fill="#2C5B6D"/>
<path d="M189.052 110.335C188.967 110.252 188.883 110.086 188.883 109.837V106.181C188.883 105.516 189.222 104.769 189.647 104.519L196.354 100.697L196.609 100.614L196.694 100.697C196.779 100.781 196.864 100.947 196.864 101.196V104.852C196.864 105.516 196.524 106.264 196.1 106.513L189.392 110.335C189.222 110.418 189.137 110.418 189.052 110.335ZM197.033 100.199C196.779 99.9496 196.439 99.9496 196.184 100.116L189.477 103.938C188.883 104.27 188.458 105.184 188.458 106.098V109.754C188.458 110.252 188.628 110.668 188.883 110.834C188.967 110.917 189.137 111 189.222 111C189.392 111 189.562 111 189.732 110.917L196.439 107.095C197.033 106.763 197.458 105.849 197.458 104.935V101.279C197.458 100.78 197.288 100.365 197.033 100.199Z" fill="#2C5B6D"/>
<path d="M193.458 103V107.025L189.549 108.924L189.458 109V108.848V105.81C189.458 105.354 189.731 104.823 190.094 104.671L193.458 103Z" fill="#2C5B6D"/>
<path d="M212.458 59.2866C212.134 57.0997 210.435 56.2897 208.33 57.5047L93.4832 123.841C92.3501 124.489 91.2979 125.623 90.5695 127L77.458 119.386C78.1864 118.09 79.2386 116.956 80.4526 116.308L195.3 49.972C197.566 48.676 201.37 48.676 203.636 49.972L208.411 52.7259C210.435 53.9408 212.215 56.7757 212.458 59.2866Z" fill="#00B2A7"/>
<path d="M90.5538 127L77.458 119.386C78.1856 118.09 79.2364 116.956 80.449 116.308L195.159 49.972C196.29 49.324 197.826 49 199.362 49C200.898 49 202.353 49.324 203.566 49.972L208.335 52.7259C210.437 53.9408 212.215 56.7757 212.458 59.2866C212.458 59.2056 212.458 59.0436 212.377 58.9626C212.135 57.6667 211.245 56.9377 210.195 56.9377C209.629 56.9377 208.982 57.0997 208.335 57.5047L152.072 90.0654L93.6257 123.841C92.3323 124.57 91.2814 125.704 90.5538 127Z" fill="#A8A8A8"/>
<path d="M115.965 296C115.965 296 115.8 312.883 130.458 321C130.458 321 123.584 320.919 117.87 310.692C113.978 303.792 115.965 296 115.965 296Z" fill="white"/>
<path d="M112.256 303C109.686 287.493 113.499 273.974 121.458 263C121.458 263 113.914 267.692 110.598 280.893C107.282 294.014 112.256 303 112.256 303Z" fill="white"/>
<path d="M362.061 209.153L366.743 195C354.393 197.196 351.003 198.904 347.371 209.234L344.95 217.45L330.098 263.407C326.546 264.301 282.879 276.502 281.346 276.665L281.265 276.828C266.978 277.722 262.458 278.373 262.458 278.373C266.494 288.947 274 294.885 284.332 297V296.756V296.837C302.735 293.665 332.842 286.507 342.69 283.254C346.806 281.952 348.582 277.234 350.277 273.33C357.218 257.306 364.483 235.751 366.985 222.818C368.519 215.01 366.178 211.105 362.061 209.153Z" fill="#93603F"/>
<path d="M366.591 195.116C366.591 195.116 354.319 193.237 348.991 204.596C345.357 212.278 334.458 245.294 334.458 245.294C334.458 245.294 342.289 255.346 359.244 256C359.244 256 375.311 218.652 374.423 217.427C373.534 216.364 366.591 195.116 366.591 195.116Z" fill="#E1A730"/>
<path d="M364.116 195.193C361.152 195.516 353.622 205.611 353.462 222.894C353.221 245.991 364.437 274.257 367.321 280.395C370.125 286.533 375.652 298.405 385.025 307.288C387.989 310.115 408.577 318.191 421.795 303.17C435.254 287.906 433.171 267.877 430.447 261.578C425.961 251.079 417.95 238.804 418.271 224.994C416.588 215.06 413.384 202.219 406.014 196.808C402.97 196.001 393.437 194.789 391.594 195.031L364.116 195.193Z" fill="#F6B93B"/>
<path d="M403.204 214L399.458 218.71C400.574 226.134 406.233 236.912 412.77 245.534C417.871 252.239 428.313 259.185 432.458 271C432.219 266.849 431.422 263.496 430.545 261.5C426.081 251.122 418.11 238.987 418.429 225.336C418.19 223.739 417.791 221.983 417.472 220.307L413.965 217.113L403.204 214Z" fill="#E5E5E4"/>
<path d="M405.711 197C412.274 198.603 415.677 201.968 421.43 208.458C427.912 215.75 441.282 231.054 441.282 231.054C450.681 247.079 442.254 263.425 435.205 260.701C435.205 260.701 419.404 245.477 409.681 233.858C403.199 226.086 399.877 221.679 399.472 213.266C399.31 206.535 400.525 199.724 405.711 197Z" fill="#93603F"/>
<path d="M402.565 196.105C402.565 196.105 408.115 194.889 415.436 200.725C422.676 206.641 440.454 226.093 440.454 226.093C440.454 226.093 441.018 246.76 427.905 256C427.905 256 408.678 236.548 403.932 229.821C399.99 224.229 394.6 210.289 402.565 196.105Z" fill="#E1A730"/>
<path d="M399.458 157C399.458 157 396.541 174.27 395.208 177.189C393.875 180.108 390.791 181 390.791 181L390.458 168.919L399.458 157Z" fill="#191F26"/>
<path d="M390.458 131.875C390.458 131.875 394.948 129.527 397.967 132.523C400.986 135.438 401.218 145.721 398.896 159L391.232 158.595L390.458 131.875Z" fill="#191F26"/>
<path d="M383.434 147.407C384.001 159.799 374.444 170.328 362.051 170.976C349.659 171.543 339.13 161.986 338.482 149.593C337.915 137.201 347.472 126.672 359.865 126.024C372.257 125.457 382.786 135.014 383.434 147.407Z" fill="#191F26"/>
<path d="M390.641 134L397.458 127.641C395.793 125.628 392.861 125.467 390.958 127.158C389.056 129.009 388.977 132.068 390.641 134Z" fill="#191F26"/>
<path d="M348.988 135.463C347.519 137.871 340.418 148.065 343.03 167.17C345.478 185.151 351.355 189.326 354.457 190.289C357.559 191.252 363.844 190.69 369.313 189.165L370.292 196.791C370.292 196.791 367.109 201.848 371.435 204.658C375.679 207.387 385.311 205.38 387.515 203.694C392.657 199.6 391.923 196.229 391.923 196.229L390.78 171.425C390.78 171.425 394.698 174.555 399.677 170.863C404.411 167.331 404.656 158.1 400.656 154.889C396.657 151.678 390.209 153.604 389.392 158.742C389.392 158.742 389.229 139.717 378.21 134.66C364.17 128.238 348.988 135.463 348.988 135.463Z" fill="#93603F"/>
<path d="M387.972 161.744C388.618 161.418 389.587 156.285 392.655 154.492C395.4 152.862 390.233 129.803 390.152 129.721C389.829 128.01 388.134 126.055 387.003 124.832C385.308 123.04 383.128 121.654 380.867 120.921C377.637 119.862 374.166 119.78 370.855 120.351C365.688 121.166 360.682 123.366 355.515 123.366C350.509 123.366 345.826 121.41 340.901 120.432C339.932 120.269 338.883 120.106 338.075 120.595C337.591 120.921 337.268 121.329 337.026 121.899C336.38 123.366 336.38 125.077 336.864 126.543C337.349 128.092 338.156 129.395 339.044 130.781C337.349 129.966 334.846 129.884 333.877 131.514C333.069 132.818 333.554 134.447 334.281 135.832C337.349 141.373 342.758 143.736 348.41 145.122C350.509 145.61 353.496 145.692 355.676 145.773C361.813 146.099 367.707 143.655 373.358 141.21C374.892 140.558 377.96 139.418 379.656 140.803C381.755 142.514 381.674 148.136 382.32 152.699C383.289 159.788 385.631 162.966 387.972 161.744Z" fill="#191F26"/>
<path d="M369.458 188.384C373.926 187.315 382.781 183.452 384.456 180C384.456 180 384.616 182.137 381.983 185.425C379.35 188.712 369.937 192 369.937 192L369.458 188.384Z" fill="#865A3E"/>
<path d="M217.458 193H179.097C159.997 193 144.539 177.536 144.458 158.429V152.438C144.458 134.059 159.349 119.081 177.721 119H183.952C202.324 119 217.296 133.897 217.377 152.276L217.458 193Z" fill="#191F26"/>
<path d="M185.458 195.111C199.37 194.067 208.127 200.413 208.455 213.106C208.618 219.533 202.971 245 202.971 245L185.458 195.111Z" fill="#F69DA3"/>
<path d="M185.603 195C192.668 195.731 200.383 207.674 207.124 223.11C209.804 229.203 214.595 237.409 208.504 248.783C204.769 255.851 196.972 258.613 196.972 258.613C194.373 266.168 190.963 274.861 184.872 283.473C184.872 283.473 180.649 298.99 167.736 310.446C164.569 313.208 145.484 330.188 130.054 317.107C120.877 309.308 117.71 296.959 118.603 285.342C119.171 278.517 120.633 271.693 125.506 266.818C130.135 262.106 133.221 257.8 133.221 257.8C135.657 246.183 132.896 238.221 132.571 224.329C134.277 214.336 138.5 205.887 145.971 200.443C151.412 198.331 157.097 196.869 163.269 196.381L185.603 195Z" fill="#333333"/>
<path d="M129.458 263C131.902 260.164 133.458 258 133.458 258C133.458 258 131.977 260.164 129.458 263Z" fill="#BEDDD9"/>
<path d="M177.814 295.919C173.711 295.919 170.01 294.387 164.297 287.773C157.538 279.948 142.01 258.009 142.01 258.009C142.01 258.009 135.653 262.929 130.906 262.929C130.424 262.929 129.941 262.848 129.458 262.768C132.113 259.703 133.803 257.363 133.803 257.363C134.527 253.895 134.768 250.749 134.768 247.765C134.768 240.586 133.32 233.81 133.159 224.131C133.159 224.131 133.159 224.131 133.159 224.051C133.883 220.098 134.929 216.388 136.458 213C142.492 216.952 150.217 222.115 150.941 223.002C151.665 223.728 161.24 238.65 169.929 252.201C159.63 249.862 155.768 243.167 155.768 243.167C155.768 243.167 155.447 257.686 171.86 260.832C173.309 261.074 174.596 261.235 175.803 261.316C180.711 269.059 184.493 274.867 184.493 274.867L185.458 282.368C185.297 282.61 185.136 282.852 184.975 283.094C184.975 283.094 183.366 288.902 179.263 296C178.78 295.839 178.297 295.919 177.814 295.919Z" fill="#2D2D2D"/>
<path d="M206.458 251C207.236 250.379 207.902 249.759 208.458 249C207.902 249.759 207.236 250.379 206.458 251Z" fill="#006F5F"/>
<path d="M196.458 259C196.458 259 202.506 256.677 206.458 251C202.506 256.677 196.458 259 196.458 259Z" fill="#CBE9E4"/>
<path d="M176.015 262C175.769 262 175.606 262 175.36 262C173.474 259.115 171.507 255.901 169.458 252.687C170.688 252.934 171.999 253.181 173.474 253.346C174.13 253.429 174.704 253.429 175.278 253.429C179.458 253.429 182.573 251.945 185.196 250.379C187.819 248.896 190.032 247.33 192.327 247.33C192.655 247.33 192.983 247.33 193.392 247.412C196.589 248.071 199.54 249.555 202.737 249.555C204.786 249.555 206.999 248.896 209.458 247C209.212 247.577 208.884 248.236 208.556 248.813C208.065 249.637 207.573 250.462 207.081 251.203C203.065 256.643 196.917 258.868 196.917 258.868C192.491 258.621 191.261 257.549 189.868 257.549C188.556 257.549 187.081 258.621 184.95 259.775C182.737 260.929 179.95 262 176.015 262Z" fill="#2D2D2D"/>
<path d="M175.458 262C174.253 262 172.968 261.831 171.522 261.493C155.057 258.2 155.459 243 155.459 243C155.459 243 159.314 250.009 169.595 252.458C171.683 255.836 173.691 259.044 175.458 262Z" fill="#00AE9D"/>
<path d="M204.234 137C205.595 139.343 212.4 149.282 209.918 167.948C207.596 185.482 201.992 188.391 199.029 189.28C196.067 190.25 190.062 189.684 184.858 188.149L183.657 198.734C183.657 198.734 188.701 206.007 187.74 210.774C186.7 215.542 176.612 214.976 170.286 209.401C163.961 203.906 163.401 196.229 163.401 196.229L164.522 171.988C164.522 171.988 160.839 175.059 156.035 171.423C151.551 168.029 151.311 158.979 155.154 155.827C158.997 152.676 165.082 154.615 165.883 159.544C165.883 159.544 177.652 162.292 188.141 157.363C201.431 151.222 203.433 142.091 204.234 137Z" fill="#F69DA3"/>
<path d="M165.791 167L165.458 156C168.707 156 171.373 158.507 171.456 161.5C171.539 164.574 169.04 167 165.791 167Z" fill="#191F26"/>
<path d="M184.458 188.426C179.926 187.319 171.108 183.404 169.46 180C169.46 180 169.295 182.213 172.015 185.447C174.652 188.766 184.128 192 184.128 192L184.458 188.426Z" fill="#E9969C"/>
<path d="M178.458 292.031L189.234 271.226C192.853 271.711 196.392 272.278 200.01 272.764C207.168 273.735 234.108 277.054 235.636 277.135C238.451 277.135 240.783 276.569 244.241 275.273C248.503 273.654 251.72 271.064 255.098 270.335C257.269 269.849 258.878 270.011 259.923 270.092C261.933 270.254 261.451 271.307 263.461 271.711C264.024 271.792 264.668 271.954 265.07 272.359C265.874 273.088 265.311 273.573 264.829 274.14C264.346 274.788 264.185 275.84 264.024 276.65C263.864 277.378 263.22 279.969 264.346 280.374C269.413 282.397 270.056 285.312 276.65 291.06C279.787 293.812 281.556 295.755 283.647 297.131C285.014 299.155 285.094 300.45 280.35 303.284C277.213 305.146 271.423 308.87 262.175 305.874C252.042 302.636 246.815 296.969 244.241 296.807C225.825 295.755 188.591 294.217 178.458 292.031Z" fill="#F69DA3"/>
<path d="M189.458 271.395L162.18 226.817C162.18 226.817 157.674 201.882 146.57 201C146.57 201 136.351 203.646 134.098 209.739C131.282 217.115 131.443 224.331 139.811 240.687C146.087 253.034 163.226 276.285 170.066 284.223C172.802 287.43 175.859 291.118 178.756 292" fill="#F69DA3"/>
<path d="M244.505 296.905C245.244 296.99 246.72 297.757 247.377 298.353C248.443 298.268 249.92 297.672 252.053 296.052C257.304 292.132 275.19 300.058 270.759 305.171C267.56 308.921 264.442 309.858 259.355 308.239C251.807 305.853 243.767 302.273 244.505 296.905Z" fill="#93603F"/>
<path d="M262.047 271.11C256.287 272.102 250.208 276.486 247.088 277.809C243.968 279.133 240.688 279.96 243.568 282.772C246.448 285.667 253.487 282.772 258.367 280.952C261.647 279.712 265.807 280.952 267.726 281.78C269.086 282.359 268.366 278.554 268.366 278.554C267.246 276.9 280.926 278.554 280.446 276.9C273.246 277.23 266.767 270.034 262.047 271.11Z" fill="#8B5E3C"/>
<defs>
<filter id="filter0_d" x="417.215" y="55.7383" width="123.284" height="207.214" filterUnits="userSpaceOnUse" color-interpolation-filters="sRGB">
<feFlood flood-opacity="0" result="BackgroundImageFix"/>
<feColorMatrix in="SourceAlpha" type="matrix" values="0 0 0 0 0 0 0 0 0 0 0 0 0 0 0 0 0 0 127 0"/>
<feOffset dy="4"/>
<feGaussianBlur stdDeviation="2"/>
<feColorMatrix type="matrix" values="0 0 0 0 0 0 0 0 0 0 0 0 0 0 0 0 0 0 0.25 0"/>
<feBlend mode="normal" in2="BackgroundImageFix" result="effect1_dropShadow"/>
<feBlend mode="normal" in="SourceGraphic" in2="effect1_dropShadow" result="shape"/>
</filter>
<filter id="filter1_d" x="23.0293" y="276.832" width="68.7952" height="99.4641" filterUnits="userSpaceOnUse" color-interpolation-filters="sRGB">
<feFlood flood-opacity="0" result="BackgroundImageFix"/>
<feColorMatrix in="SourceAlpha" type="matrix" values="0 0 0 0 0 0 0 0 0 0 0 0 0 0 0 0 0 0 127 0"/>
<feOffset dy="4"/>
<feGaussianBlur stdDeviation="2"/>
<feColorMatrix type="matrix" values="0 0 0 0 0 0 0 0 0 0 0 0 0 0 0 0 0 0 0.25 0"/>
<feBlend mode="normal" in2="BackgroundImageFix" result="effect1_dropShadow"/>
<feBlend mode="normal" in="SourceGraphic" in2="effect1_dropShadow" result="shape"/>
</filter>
<filter id="filter2_d" x="12.2402" y="329.279" width="83.5207" height="55.337" filterUnits="userSpaceOnUse" color-interpolation-filters="sRGB">
<feFlood flood-opacity="0" result="BackgroundImageFix"/>
<feColorMatrix in="SourceAlpha" type="matrix" values="0 0 0 0 0 0 0 0 0 0 0 0 0 0 0 0 0 0 127 0"/>
<feOffset dy="4"/>
<feGaussianBlur stdDeviation="2"/>
<feColorMatrix type="matrix" values="0 0 0 0 0 0 0 0 0 0 0 0 0 0 0 0 0 0 0.25 0"/>
<feBlend mode="normal" in2="BackgroundImageFix" result="effect1_dropShadow"/>
<feBlend mode="normal" in="SourceGraphic" in2="effect1_dropShadow" result="shape"/>
</filter>
<filter id="filter3_d" x="335.458" y="57" width="131" height="344" filterUnits="userSpaceOnUse" color-interpolation-filters="sRGB">
<feFlood flood-opacity="0" result="BackgroundImageFix"/>
<feColorMatrix in="SourceAlpha" type="matrix" values="0 0 0 0 0 0 0 0 0 0 0 0 0 0 0 0 0 0 127 0"/>
<feOffset dy="4"/>
<feGaussianBlur stdDeviation="2"/>
<feColorMatrix type="matrix" values="0 0 0 0 0 0 0 0 0 0 0 0 0 0 0 0 0 0 0.25 0"/>
<feBlend mode="normal" in2="BackgroundImageFix" result="effect1_dropShadow"/>
<feBlend mode="normal" in="SourceGraphic" in2="effect1_dropShadow" result="shape"/>
</filter>
<filter id="filter4_d" x="454.458" y="119" width="25" height="282" filterUnits="userSpaceOnUse" color-interpolation-filters="sRGB">
<feFlood flood-opacity="0" result="BackgroundImageFix"/>
<feColorMatrix in="SourceAlpha" type="matrix" values="0 0 0 0 0 0 0 0 0 0 0 0 0 0 0 0 0 0 127 0"/>
<feOffset dy="4"/>
<feGaussianBlur stdDeviation="2"/>
<feColorMatrix type="matrix" values="0 0 0 0 0 0 0 0 0 0 0 0 0 0 0 0 0 0 0.25 0"/>
<feBlend mode="normal" in2="BackgroundImageFix" result="effect1_dropShadow"/>
<feBlend mode="normal" in="SourceGraphic" in2="effect1_dropShadow" result="shape"/>
</filter>
<filter id="filter5_d" x="85.458" y="57" width="131" height="344" filterUnits="userSpaceOnUse" color-interpolation-filters="sRGB">
<feFlood flood-opacity="0" result="BackgroundImageFix"/>
<feColorMatrix in="SourceAlpha" type="matrix" values="0 0 0 0 0 0 0 0 0 0 0 0 0 0 0 0 0 0 127 0"/>
<feOffset dy="4"/>
<feGaussianBlur stdDeviation="2"/>
<feColorMatrix type="matrix" values="0 0 0 0 0 0 0 0 0 0 0 0 0 0 0 0 0 0 0.25 0"/>
<feBlend mode="normal" in2="BackgroundImageFix" result="effect1_dropShadow"/>
<feBlend mode="normal" in="SourceGraphic" in2="effect1_dropShadow" result="shape"/>
</filter>
<filter id="filter6_d" x="72.458" y="119" width="25" height="282" filterUnits="userSpaceOnUse" color-interpolation-filters="sRGB">
<feFlood flood-opacity="0" result="BackgroundImageFix"/>
<feColorMatrix in="SourceAlpha" type="matrix" values="0 0 0 0 0 0 0 0 0 0 0 0 0 0 0 0 0 0 127 0"/>
<feOffset dy="4"/>
<feGaussianBlur stdDeviation="2"/>
<feColorMatrix type="matrix" values="0 0 0 0 0 0 0 0 0 0 0 0 0 0 0 0 0 0 0.25 0"/>
<feBlend mode="normal" in2="BackgroundImageFix" result="effect1_dropShadow"/>
<feBlend mode="normal" in="SourceGraphic" in2="effect1_dropShadow" result="shape"/>
</filter>
</defs>
</svg>
